<svg fill="#000000" xmlns="http://www.w3.org/2000/svg"  viewBox="0 0 50 50" width="50px" height="50px"><path fill="none" d="M0 0H50V50H0z"/><path fill="none" stroke="#000000" stroke-linecap="round" stroke-linejoin="round" stroke-miterlimit="10" stroke-width="2" d="M26.047 15.983c.86-.927 1.904-1.782 2.909-2.606 2.474-2.034 5.043-4.129 5.043-7.371C33.999 3.059 31.933 1 28.975 1c-1.703 0-3.176 1.218-3.979 2.059C24.197 2.218 22.726 1 21.025 1c-2.956 0-5.026 2.059-5.026 5.006 0 3.242 2.567 5.337 5.043 7.371.998.82 2.036 1.67 2.894 2.592M1 36v9.308C1 48.365 3.481 49 6.538 49h36.923C46.519 49 49 48.365 49 45.308V36"/><path fill="none" stroke="#000000" stroke-linecap="round" stroke-linejoin="round" stroke-miterlimit="10" stroke-width="2" d="M8,39c5.407,0,8-3,8-3s2.722,3,9,3s9-3,9-3s2.555,3,8,3c5.993,0,6.999-3.196,6.999-3.196C48.243,33.597,46.172,32,43.711,32H6.289c-2.463,0-4.533,1.599-5.29,3.806C0.999,35.806,2.182,39,8,39z"/><g><path fill="none" stroke="#000000" stroke-linecap="round" stroke-linejoin="round" stroke-miterlimit="10" stroke-width="2" d="M45 32V20M5 20v12M12 23c5.407 0 6-3 6-3s.722 3 7 3 7-3 7-3 .555 3 6 3c5.993 0 6.999-3.196 6.999-3.196C44.243 17.597 42.172 16 39.711 16H10.289c-2.463 0-4.533 1.599-5.29 3.806C4.999 19.806 6.182 23 12 23z"/></g></svg>