<svg xmlns="http://www.w3.org/2000/svg" xmlns:xlink="http://www.w3.org/1999/xlink" width="270.97" height="73.694" viewBox="0 0 270.97 73.694">
  <defs>
    <clipPath id="clip-path">
      <rect id="Rectangle_1" data-name="Rectangle 1" width="270.97" height="73.694" transform="translate(0 0)" fill="#f8f8f8"/>
    </clipPath>
  </defs>
  <g id="Groupe_1" data-name="Groupe 1" transform="translate(0 0)" clip-path="url(#clip-path)">
    <path id="Tracé_1" data-name="Tracé 1" d="M21.424,45.282a.37.37,0,0,1-.256-.1.311.311,0,0,1-.108-.242.327.327,0,0,1,.108-.255.375.375,0,0,1,.256-.1h5.768a.391.391,0,0,1,.267.1.327.327,0,0,1,.108.255.309.309,0,0,1-.108.249.408.408,0,0,1-.267.091Zm2.89,7.808a.375.375,0,0,1-.279-.11.347.347,0,0,1-.11-.255V44.99h.766v7.735a.347.347,0,0,1-.11.255.363.363,0,0,1-.267.11" transform="translate(8.584 18.176)" fill="#f8f8f8"/>
    <path id="Tracé_2" data-name="Tracé 2" d="M29.491,46.976a2.137,2.137,0,0,1,1.239.328,1.919,1.919,0,0,1,.7.887,3.273,3.273,0,0,1,.225,1.239v3.436a.375.375,0,0,1-.365.365.363.363,0,0,1-.376-.365V49.43a2.5,2.5,0,0,0-.152-.892,1.381,1.381,0,0,0-.487-.638,1.506,1.506,0,0,0-.9-.244,2.024,2.024,0,0,0-.966.244,2.076,2.076,0,0,0-.735.638,1.509,1.509,0,0,0-.279.892v3.436a.375.375,0,0,1-.365.365.366.366,0,0,1-.377-.365V44.609a.352.352,0,0,1,.11-.256.367.367,0,0,1,.267-.108.345.345,0,0,1,.26.108.363.363,0,0,1,.1.256v3.934l-.28.425a1.658,1.658,0,0,1,.236-.735,2.513,2.513,0,0,1,.553-.643,2.744,2.744,0,0,1,.753-.45,2.267,2.267,0,0,1,.838-.163" transform="translate(10.863 18.035)" fill="#f8f8f8"/>
    <path id="Tracé_3" data-name="Tracé 3" d="M34.47,52.588a3.32,3.32,0,0,1-1.651-.4A2.841,2.841,0,0,1,31.7,51.071a3.38,3.38,0,0,1-.4-1.676,3.556,3.556,0,0,1,.407-1.761,2.983,2.983,0,0,1,1.057-1.123,2.607,2.607,0,0,1,1.378-.394,2.953,2.953,0,0,1,1.039.187,2.7,2.7,0,0,1,.9.559,2.76,2.76,0,0,1,.632.905,3.308,3.308,0,0,1,.26,1.239.376.376,0,0,1-.121.249.359.359,0,0,1-.255.1h-4.87L31.58,48.7h4.785l-.158.146V48.6a1.817,1.817,0,0,0-.377-.966,2.166,2.166,0,0,0-.759-.607,2.117,2.117,0,0,0-.929-.213,2.067,2.067,0,0,0-.747.146,1.942,1.942,0,0,0-.691.455,2.344,2.344,0,0,0-.5.79,2.989,2.989,0,0,0-.194,1.136,2.87,2.87,0,0,0,.291,1.3,2.24,2.24,0,0,0,.843.922,2.467,2.467,0,0,0,1.318.341,2.141,2.141,0,0,0,1.354-.443,2.31,2.31,0,0,0,.431-.419.411.411,0,0,1,.256-.108.294.294,0,0,1,.224.1.313.313,0,0,1,.091.218.336.336,0,0,1-.121.255,3.274,3.274,0,0,1-.947.759,2.586,2.586,0,0,1-1.275.322" transform="translate(12.759 18.798)" fill="#f8f8f8"/>
    <path id="Tracé_4" data-name="Tracé 4" d="M42.5,44.589a2.216,2.216,0,0,1,1.6.552,2.03,2.03,0,0,1,.577,1.537,2.235,2.235,0,0,1-.218.977,1.822,1.822,0,0,1-.65.74,2.075,2.075,0,0,1-1.05.322l-.061-.242a3.107,3.107,0,0,1,.88.127,2.258,2.258,0,0,1,.777.407,2.064,2.064,0,0,1,.553.7,2.277,2.277,0,0,1,.207,1.015,2.567,2.567,0,0,1-.213,1.087,2.011,2.011,0,0,1-.577.74,2.337,2.337,0,0,1-.821.412,3.477,3.477,0,0,1-.953.128H39.281a.343.343,0,0,1-.26-.11.356.356,0,0,1-.1-.255V44.954a.356.356,0,0,1,.1-.255.343.343,0,0,1,.26-.11Zm-.11.728H39.549l.146-.229v3.436l-.134-.182H42.4a1.456,1.456,0,0,0,1.493-1.6,1.379,1.379,0,0,0-.4-1.039,1.531,1.531,0,0,0-1.111-.383m.1,3.765H39.634L39.7,49v3.485l-.073-.11H42.5a2.111,2.111,0,0,0,1.311-.394,1.472,1.472,0,0,0,.522-1.257,1.665,1.665,0,0,0-.255-.973,1.38,1.38,0,0,0-.68-.515,2.683,2.683,0,0,0-.911-.152" transform="translate(15.864 18.176)" fill="#f8f8f8"/>
    <path id="Tracé_5" data-name="Tracé 5" d="M47.307,52.588a3.32,3.32,0,0,1-1.651-.4,2.841,2.841,0,0,1-1.118-1.116,3.38,3.38,0,0,1-.4-1.676,3.556,3.556,0,0,1,.407-1.761A2.983,2.983,0,0,1,45.6,46.51a2.607,2.607,0,0,1,1.378-.394,2.953,2.953,0,0,1,1.039.187,2.7,2.7,0,0,1,.9.559,2.76,2.76,0,0,1,.632.905,3.308,3.308,0,0,1,.26,1.239.376.376,0,0,1-.121.249.359.359,0,0,1-.255.1h-4.87l-.145-.656H49.2l-.158.146V48.6a1.817,1.817,0,0,0-.377-.966,2.166,2.166,0,0,0-.759-.607,2.117,2.117,0,0,0-.929-.213,2.073,2.073,0,0,0-.747.146,1.942,1.942,0,0,0-.691.455,2.344,2.344,0,0,0-.5.79,2.989,2.989,0,0,0-.194,1.136,2.87,2.87,0,0,0,.291,1.3,2.24,2.24,0,0,0,.843.922,2.467,2.467,0,0,0,1.318.341,2.141,2.141,0,0,0,1.354-.443,2.309,2.309,0,0,0,.431-.419.411.411,0,0,1,.256-.108.294.294,0,0,1,.224.1.313.313,0,0,1,.091.218.336.336,0,0,1-.121.255,3.274,3.274,0,0,1-.947.759,2.586,2.586,0,0,1-1.275.322" transform="translate(17.992 18.798)" fill="#f8f8f8"/>
    <path id="Tracé_6" data-name="Tracé 6" d="M49.087,46.732h2.831a.318.318,0,0,1,.242.1.351.351,0,0,1,.1.249.332.332,0,0,1-.339.339H49.087a.334.334,0,0,1-.248-.1.34.34,0,0,1-.1-.249.318.318,0,0,1,.1-.242.347.347,0,0,1,.248-.1m1.251-1.712a.344.344,0,0,1,.262.11.362.362,0,0,1,.1.255v6.1a1.094,1.094,0,0,0,.091.51.451.451,0,0,0,.236.225.821.821,0,0,0,.291.055.5.5,0,0,0,.176-.031.5.5,0,0,1,.176-.03.251.251,0,0,1,.189.084.31.31,0,0,1,.079.218.333.333,0,0,1-.194.286.885.885,0,0,1-.462.115c-.073,0-.182-.006-.328-.018a1.236,1.236,0,0,1-.449-.134.932.932,0,0,1-.389-.407,1.786,1.786,0,0,1-.158-.838V45.385a.351.351,0,0,1,.108-.255.363.363,0,0,1,.267-.11" transform="translate(19.866 18.351)" fill="#f8f8f8"/>
    <path id="Tracé_7" data-name="Tracé 7" d="M52.012,46.732h2.831a.318.318,0,0,1,.242.1.351.351,0,0,1,.1.249.332.332,0,0,1-.339.339H52.012a.334.334,0,0,1-.248-.1.34.34,0,0,1-.1-.249.318.318,0,0,1,.1-.242.347.347,0,0,1,.248-.1m1.251-1.712a.344.344,0,0,1,.262.11.362.362,0,0,1,.1.255v6.1a1.094,1.094,0,0,0,.091.51.451.451,0,0,0,.236.225.821.821,0,0,0,.291.055.5.5,0,0,0,.176-.031.5.5,0,0,1,.176-.03.251.251,0,0,1,.189.084.31.31,0,0,1,.079.218.333.333,0,0,1-.194.286.885.885,0,0,1-.462.115c-.073,0-.182-.006-.328-.018a1.236,1.236,0,0,1-.449-.134.932.932,0,0,1-.389-.407,1.786,1.786,0,0,1-.158-.838V45.385A.351.351,0,0,1,53,45.13a.363.363,0,0,1,.267-.11" transform="translate(21.058 18.351)" fill="#f8f8f8"/>
    <path id="Tracé_8" data-name="Tracé 8" d="M57.988,52.588a3.32,3.32,0,0,1-1.651-.4,2.841,2.841,0,0,1-1.118-1.116,3.38,3.38,0,0,1-.4-1.676,3.556,3.556,0,0,1,.407-1.761,2.983,2.983,0,0,1,1.057-1.123,2.607,2.607,0,0,1,1.378-.394A2.953,2.953,0,0,1,58.7,46.3a2.7,2.7,0,0,1,.9.559,2.76,2.76,0,0,1,.632.905,3.308,3.308,0,0,1,.26,1.239.376.376,0,0,1-.121.249.359.359,0,0,1-.255.1h-4.87L55.1,48.7h4.785l-.158.146V48.6a1.817,1.817,0,0,0-.377-.966,2.166,2.166,0,0,0-.759-.607,2.117,2.117,0,0,0-.929-.213,2.073,2.073,0,0,0-.747.146,1.942,1.942,0,0,0-.691.455,2.344,2.344,0,0,0-.5.79,2.989,2.989,0,0,0-.194,1.136,2.87,2.87,0,0,0,.291,1.3,2.24,2.24,0,0,0,.843.922,2.467,2.467,0,0,0,1.318.341,2.141,2.141,0,0,0,1.354-.443,2.309,2.309,0,0,0,.431-.419.411.411,0,0,1,.256-.108.294.294,0,0,1,.224.1.313.313,0,0,1,.091.218.336.336,0,0,1-.121.255,3.274,3.274,0,0,1-.947.759,2.586,2.586,0,0,1-1.275.322" transform="translate(22.345 18.798)" fill="#f8f8f8"/>
    <path id="Tracé_9" data-name="Tracé 9" d="M60.319,52.467a.366.366,0,0,1-.377-.365v-5.44a.349.349,0,0,1,.11-.255.363.363,0,0,1,.267-.11.339.339,0,0,1,.26.11.36.36,0,0,1,.1.255v1.821l-.183.037a2.844,2.844,0,0,1,.213-.845,2.914,2.914,0,0,1,.48-.77,2.444,2.444,0,0,1,.722-.571,2.018,2.018,0,0,1,.942-.218,1.044,1.044,0,0,1,.425.09.31.31,0,0,1,.207.3.377.377,0,0,1-.1.279.316.316,0,0,1-.231.1.545.545,0,0,1-.236-.061.806.806,0,0,0-.335-.061,1.34,1.34,0,0,0-.68.2,2.343,2.343,0,0,0-.619.541,2.8,2.8,0,0,0-.443.76,2.313,2.313,0,0,0-.163.843v3a.375.375,0,0,1-.365.365" transform="translate(24.434 18.798)" fill="#f8f8f8"/>
    <path id="Tracé_10" data-name="Tracé 10" d="M75.819,44.571a.439.439,0,0,1,.267.091.32.32,0,0,1,.121.273.6.6,0,0,1-.024.158L73.5,52.866a.307.307,0,0,1-.134.169.361.361,0,0,1-.194.061.436.436,0,0,1-.218-.053.34.34,0,0,1-.146-.176l-2.149-5.319.1.024-2.149,5.3a.331.331,0,0,1-.152.176.445.445,0,0,1-.213.053.353.353,0,0,1-.193-.061.309.309,0,0,1-.135-.169l-2.683-7.773a.516.516,0,0,1-.024-.146.321.321,0,0,1,.134-.279.45.45,0,0,1,.266-.1.4.4,0,0,1,.22.061.307.307,0,0,1,.132.17L68.4,51.917l-.134.013,2.113-5.27a.337.337,0,0,1,.128-.176.436.436,0,0,1,.424,0,.415.415,0,0,1,.141.176l2.076,5.246-.121.048L75.454,44.8a.31.31,0,0,1,.134-.17.425.425,0,0,1,.231-.061" transform="translate(26.58 18.168)" fill="#f8f8f8"/>
    <path id="Tracé_11" data-name="Tracé 11" d="M79.078,46.261a.343.343,0,0,1,.26.11.374.374,0,0,1,.1.267V52.1a.353.353,0,0,1-.108.255.349.349,0,0,1-.255.11.338.338,0,0,1-.267-.11.372.372,0,0,1-.1-.255V50.657l.206-.084a1.473,1.473,0,0,1-.187.686,2.41,2.41,0,0,1-.517.656,2.7,2.7,0,0,1-.771.486,2.394,2.394,0,0,1-.953.189,2.624,2.624,0,0,1-1.475-.425A2.909,2.909,0,0,1,74,51a3.659,3.659,0,0,1-.37-1.664A3.564,3.564,0,0,1,74,47.664a2.936,2.936,0,0,1,1.021-1.136,2.731,2.731,0,0,1,2.423-.231,2.521,2.521,0,0,1,.8.5,2.381,2.381,0,0,1,.535.722,1.941,1.941,0,0,1,.194.845l-.255-.183V46.638a.389.389,0,0,1,.1-.267.338.338,0,0,1,.267-.11m-2.527,5.647a2,2,0,0,0,1.142-.334,2.274,2.274,0,0,0,.783-.923,2.967,2.967,0,0,0,.286-1.318,2.835,2.835,0,0,0-.286-1.281,2.292,2.292,0,0,0-.783-.911,2,2,0,0,0-1.142-.334,2.072,2.072,0,0,0-1.136.321,2.211,2.211,0,0,0-.788.892,2.883,2.883,0,0,0-.286,1.312,2.967,2.967,0,0,0,.286,1.318,2.274,2.274,0,0,0,.783.923,2,2,0,0,0,1.142.334" transform="translate(30.012 18.798)" fill="#f8f8f8"/>
    <path id="Tracé_12" data-name="Tracé 12" d="M83.743,46.141a.344.344,0,0,1,.262.11.362.362,0,0,1,.1.255v5.356a3.268,3.268,0,0,1-.388,1.657,2.6,2.6,0,0,1-1.044,1.021,3.154,3.154,0,0,1-1.493.346,3.8,3.8,0,0,1-.966-.115,2.726,2.726,0,0,1-.724-.286.587.587,0,0,1-.218-.213.276.276,0,0,1-.013-.26.36.36,0,0,1,.189-.225.31.31,0,0,1,.262.006q.2.11.594.267a2.333,2.333,0,0,0,.887.158,2.283,2.283,0,0,0,1.154-.279,1.933,1.933,0,0,0,.759-.808,2.693,2.693,0,0,0,.273-1.257V51l.086.3a2.109,2.109,0,0,1-.524.655,2.546,2.546,0,0,1-.764.456,2.5,2.5,0,0,1-.911.165,2.252,2.252,0,0,1-1.208-.3,1.838,1.838,0,0,1-.718-.819,2.949,2.949,0,0,1-.236-1.226V46.506a.366.366,0,0,1,.377-.365.341.341,0,0,1,.26.11.358.358,0,0,1,.1.255v3.619a2.045,2.045,0,0,0,.37,1.312,1.46,1.46,0,0,0,1.208.46,1.906,1.906,0,0,0,.96-.248,2.165,2.165,0,0,0,.716-.656,1.509,1.509,0,0,0,.279-.869V46.506a.37.37,0,0,1,.1-.255.338.338,0,0,1,.267-.11" transform="translate(32.245 18.808)" fill="#f8f8f8"/>
    <path id="Tracé_13" data-name="Tracé 13" d="M86.345,45.282a.37.37,0,0,1-.256-.1.311.311,0,0,1-.108-.242.327.327,0,0,1,.108-.255.375.375,0,0,1,.256-.1h5.768a.391.391,0,0,1,.267.1.327.327,0,0,1,.108.255.309.309,0,0,1-.108.249.408.408,0,0,1-.267.091Zm2.89,7.808a.375.375,0,0,1-.279-.11.347.347,0,0,1-.11-.255V44.99h.766v7.735a.347.347,0,0,1-.11.255.363.363,0,0,1-.267.11" transform="translate(35.048 18.176)" fill="#f8f8f8"/>
    <path id="Tracé_14" data-name="Tracé 14" d="M96.431,49.358a3.4,3.4,0,0,1-.4,1.658A3.074,3.074,0,0,1,91.8,52.169a3.032,3.032,0,0,1-1.1-1.153,3.594,3.594,0,0,1,0-3.322,3.108,3.108,0,0,1,1.1-1.154,3.11,3.11,0,0,1,3.139,0,3.068,3.068,0,0,1,1.094,1.154,3.392,3.392,0,0,1,.4,1.664m-.729,0a2.781,2.781,0,0,0-.3-1.318,2.3,2.3,0,0,0-.832-.905,2.357,2.357,0,0,0-2.4,0,2.335,2.335,0,0,0-.843.905,2.735,2.735,0,0,0-.31,1.318,2.7,2.7,0,0,0,.31,1.312,2.4,2.4,0,0,0,.843.905,2.322,2.322,0,0,0,2.4,0,2.366,2.366,0,0,0,.832-.905,2.751,2.751,0,0,0,.3-1.312" transform="translate(36.803 18.798)" fill="#f8f8f8"/>
    <path id="Tracé_15" data-name="Tracé 15" d="M100.787,53.246a3.84,3.84,0,0,1-1.6-.286,4.375,4.375,0,0,1-1.3-.905.619.619,0,0,1-.1-.132.323.323,0,0,1-.044-.17.382.382,0,0,1,.117-.267.351.351,0,0,1,.26-.121.376.376,0,0,1,.267.121,3.255,3.255,0,0,0,1.074.777,3.144,3.144,0,0,0,1.294.267,2.791,2.791,0,0,0,1.039-.182,1.705,1.705,0,0,0,.722-.522,1.238,1.238,0,0,0,.267-.79,1.368,1.368,0,0,0-.31-.9,2.343,2.343,0,0,0-.8-.57,7.43,7.43,0,0,0-1.1-.4q-.5-.156-.953-.346a3.359,3.359,0,0,1-.8-.46,1.924,1.924,0,0,1-.541-.674,2.183,2.183,0,0,1-.194-.96,2,2,0,0,1,.341-1.147,2.258,2.258,0,0,1,.964-.79,3.474,3.474,0,0,1,1.453-.286,3.975,3.975,0,0,1,1.378.244,2.391,2.391,0,0,1,1.05.716.549.549,0,0,1,.182.352.34.34,0,0,1-.121.249.377.377,0,0,1-.266.115.277.277,0,0,1-.207-.086,2.18,2.18,0,0,0-.522-.455,2.676,2.676,0,0,0-.7-.31,2.878,2.878,0,0,0-.8-.11,2.845,2.845,0,0,0-1.028.176,1.663,1.663,0,0,0-.716.505,1.247,1.247,0,0,0-.26.8,1.192,1.192,0,0,0,.291.832,2.266,2.266,0,0,0,.766.533c.315.142.65.274,1.008.4a10.421,10.421,0,0,1,1,.334,3.54,3.54,0,0,1,.85.467,1.978,1.978,0,0,1,.584.705,2.391,2.391,0,0,1,.211,1.068,1.89,1.89,0,0,1-.352,1.118,2.44,2.44,0,0,1-.964.788,3.455,3.455,0,0,1-1.44.3" transform="translate(39.841 18.14)" fill="#f8f8f8"/>
    <path id="Tracé_16" data-name="Tracé 16" d="M102.775,46.732h2.831a.318.318,0,0,1,.242.1.351.351,0,0,1,.1.249.332.332,0,0,1-.339.339h-2.831a.334.334,0,0,1-.248-.1.34.34,0,0,1-.1-.249.318.318,0,0,1,.1-.242.347.347,0,0,1,.248-.1m1.251-1.712a.344.344,0,0,1,.262.11.362.362,0,0,1,.1.255v6.1a1.114,1.114,0,0,0,.09.51.458.458,0,0,0,.238.225.821.821,0,0,0,.291.055.5.5,0,0,0,.176-.031.5.5,0,0,1,.176-.03.251.251,0,0,1,.189.084.31.31,0,0,1,.079.218.333.333,0,0,1-.194.286.885.885,0,0,1-.462.115c-.073,0-.182-.006-.328-.018a1.236,1.236,0,0,1-.449-.134.925.925,0,0,1-.389-.407,1.786,1.786,0,0,1-.158-.838V45.385a.345.345,0,0,1,.108-.255.363.363,0,0,1,.267-.11" transform="translate(41.751 18.351)" fill="#f8f8f8"/>
    <path id="Tracé_17" data-name="Tracé 17" d="M111.077,46.261a.344.344,0,0,1,.262.11.374.374,0,0,1,.1.267V52.1a.375.375,0,0,1-.365.365.335.335,0,0,1-.266-.11.372.372,0,0,1-.1-.255V50.657l.206-.084a1.473,1.473,0,0,1-.187.686,2.409,2.409,0,0,1-.517.656,2.722,2.722,0,0,1-.771.486,2.394,2.394,0,0,1-.953.189,2.624,2.624,0,0,1-1.475-.425A2.909,2.909,0,0,1,106,51a3.66,3.66,0,0,1-.372-1.664A3.564,3.564,0,0,1,106,47.664a2.925,2.925,0,0,1,1.021-1.136,2.731,2.731,0,0,1,2.423-.231,2.521,2.521,0,0,1,.8.5,2.381,2.381,0,0,1,.535.722,1.941,1.941,0,0,1,.194.845l-.255-.183V46.638a.389.389,0,0,1,.1-.267.335.335,0,0,1,.266-.11m-2.525,5.647a2,2,0,0,0,1.142-.334,2.285,2.285,0,0,0,.783-.923,2.986,2.986,0,0,0,.286-1.318,2.853,2.853,0,0,0-.286-1.281,2.3,2.3,0,0,0-.783-.911,2,2,0,0,0-1.142-.334,2.072,2.072,0,0,0-1.136.321,2.214,2.214,0,0,0-.79.892,2.9,2.9,0,0,0-.284,1.312,2.985,2.985,0,0,0,.284,1.318,2.288,2.288,0,0,0,.784.923,2,2,0,0,0,1.142.334" transform="translate(43.056 18.798)" fill="#f8f8f8"/>
    <path id="Tracé_18" data-name="Tracé 18" d="M111.479,52.467a.363.363,0,0,1-.376-.365v-5.44a.347.347,0,0,1,.108-.255.363.363,0,0,1,.267-.11.346.346,0,0,1,.262.11.365.365,0,0,1,.1.255v1.821l-.183.037a2.844,2.844,0,0,1,.213-.845,2.914,2.914,0,0,1,.48-.77,2.444,2.444,0,0,1,.722-.571,2.018,2.018,0,0,1,.942-.218,1.044,1.044,0,0,1,.425.09.31.31,0,0,1,.207.3.377.377,0,0,1-.1.279.316.316,0,0,1-.231.1.545.545,0,0,1-.236-.061.806.806,0,0,0-.335-.061,1.341,1.341,0,0,0-.68.2,2.343,2.343,0,0,0-.619.541,2.8,2.8,0,0,0-.443.76,2.313,2.313,0,0,0-.163.843v3a.375.375,0,0,1-.365.365" transform="translate(45.289 18.798)" fill="#f8f8f8"/>
    <path id="Tracé_19" data-name="Tracé 19" d="M114.25,46.732h2.831a.318.318,0,0,1,.242.1.351.351,0,0,1,.1.249.332.332,0,0,1-.339.339H114.25a.334.334,0,0,1-.248-.1.34.34,0,0,1-.1-.249.318.318,0,0,1,.1-.242.347.347,0,0,1,.248-.1M115.5,45.02a.344.344,0,0,1,.262.11.362.362,0,0,1,.1.255v6.1a1.114,1.114,0,0,0,.09.51.458.458,0,0,0,.238.225.821.821,0,0,0,.291.055.5.5,0,0,0,.176-.031.5.5,0,0,1,.176-.03.251.251,0,0,1,.189.084.31.31,0,0,1,.079.218.333.333,0,0,1-.194.286.885.885,0,0,1-.462.115c-.073,0-.182-.006-.328-.018a1.236,1.236,0,0,1-.449-.134.925.925,0,0,1-.389-.407,1.786,1.786,0,0,1-.158-.838V45.385a.345.345,0,0,1,.108-.255.363.363,0,0,1,.267-.11" transform="translate(46.428 18.351)" fill="#f8f8f8"/>
    <path id="Tracé_20" data-name="Tracé 20" d="M119.689,45.282a.364.364,0,0,1-.255-.1.307.307,0,0,1-.11-.242.323.323,0,0,1,.11-.255.369.369,0,0,1,.255-.1h5.768a.391.391,0,0,1,.267.1.327.327,0,0,1,.108.255.309.309,0,0,1-.108.249.408.408,0,0,1-.267.091Zm2.89,7.808a.373.373,0,0,1-.279-.11.347.347,0,0,1-.11-.255V44.99h.764v7.735a.345.345,0,0,1-.108.255.363.363,0,0,1-.267.11" transform="translate(48.64 18.176)" fill="#f8f8f8"/>
    <path id="Tracé_21" data-name="Tracé 21" d="M127.757,46.976a2.132,2.132,0,0,1,1.237.328,1.928,1.928,0,0,1,.7.887,3.3,3.3,0,0,1,.225,1.239v3.436a.375.375,0,0,1-.365.365.366.366,0,0,1-.377-.365V49.43a2.468,2.468,0,0,0-.151-.892,1.4,1.4,0,0,0-.486-.638,1.51,1.51,0,0,0-.905-.244,2.02,2.02,0,0,0-.966.244,2.076,2.076,0,0,0-.735.638,1.509,1.509,0,0,0-.279.892v3.436a.352.352,0,0,1-.11.255.347.347,0,0,1-.255.11.356.356,0,0,1-.273-.11.352.352,0,0,1-.1-.255V44.609a.348.348,0,0,1,.111-.256.362.362,0,0,1,.266-.108.35.35,0,0,1,.262.108.368.368,0,0,1,.1.256v3.934l-.279.425a1.638,1.638,0,0,1,.235-.735,2.485,2.485,0,0,1,.553-.643,2.772,2.772,0,0,1,.754-.45,2.256,2.256,0,0,1,.838-.163" transform="translate(50.919 18.035)" fill="#f8f8f8"/>
    <path id="Tracé_22" data-name="Tracé 22" d="M132.735,52.588a3.32,3.32,0,0,1-1.651-.4,2.841,2.841,0,0,1-1.118-1.116,3.38,3.38,0,0,1-.4-1.676,3.556,3.556,0,0,1,.407-1.761,2.983,2.983,0,0,1,1.057-1.123,2.607,2.607,0,0,1,1.378-.394,2.953,2.953,0,0,1,1.039.187,2.7,2.7,0,0,1,.9.559,2.781,2.781,0,0,1,.632.905,3.307,3.307,0,0,1,.26,1.239.376.376,0,0,1-.121.249.359.359,0,0,1-.255.1h-4.87l-.145-.656h4.785l-.158.146V48.6a1.817,1.817,0,0,0-.377-.966,2.166,2.166,0,0,0-.759-.607,2.117,2.117,0,0,0-.929-.213,2.067,2.067,0,0,0-.747.146,1.942,1.942,0,0,0-.691.455,2.368,2.368,0,0,0-.505.79,3.045,3.045,0,0,0-.193,1.136,2.87,2.87,0,0,0,.291,1.3,2.23,2.23,0,0,0,.843.922,2.467,2.467,0,0,0,1.318.341,2.141,2.141,0,0,0,1.354-.443,2.365,2.365,0,0,0,.432-.419.4.4,0,0,1,.255-.108.294.294,0,0,1,.224.1.313.313,0,0,1,.091.218.336.336,0,0,1-.121.255,3.274,3.274,0,0,1-.947.759,2.586,2.586,0,0,1-1.275.322" transform="translate(52.815 18.798)" fill="#f8f8f8"/>
    <path id="Tracé_23" data-name="Tracé 23" d="M147.245,44.571a.439.439,0,0,1,.267.091.32.32,0,0,1,.121.273.6.6,0,0,1-.024.158l-2.684,7.773a.307.307,0,0,1-.134.169.361.361,0,0,1-.194.061.432.432,0,0,1-.218-.053.34.34,0,0,1-.146-.176l-2.149-5.319.1.024-2.149,5.3a.331.331,0,0,1-.152.176.445.445,0,0,1-.213.053.361.361,0,0,1-.194-.061.313.313,0,0,1-.134-.169l-2.683-7.773a.516.516,0,0,1-.024-.146.324.324,0,0,1,.132-.279.453.453,0,0,1,.267-.1.4.4,0,0,1,.218.061.3.3,0,0,1,.134.17l2.441,7.116-.132.013,2.113-5.27a.342.342,0,0,1,.127-.176.3.3,0,0,1,.213-.055.292.292,0,0,1,.213.055.415.415,0,0,1,.141.176l2.076,5.246-.122.048,2.43-7.152a.31.31,0,0,1,.134-.17.425.425,0,0,1,.231-.061" transform="translate(55.695 18.168)" fill="#f8f8f8"/>
    <path id="Tracé_24" data-name="Tracé 24" d="M148.169,52.588a3.32,3.32,0,0,1-1.651-.4,2.841,2.841,0,0,1-1.118-1.116,3.38,3.38,0,0,1-.4-1.676,3.556,3.556,0,0,1,.407-1.761,2.983,2.983,0,0,1,1.057-1.123,2.607,2.607,0,0,1,1.378-.394,2.953,2.953,0,0,1,1.039.187,2.7,2.7,0,0,1,.9.559,2.782,2.782,0,0,1,.632.905,3.308,3.308,0,0,1,.26,1.239.376.376,0,0,1-.121.249.359.359,0,0,1-.255.1h-4.87l-.145-.656h4.785l-.158.146V48.6a1.817,1.817,0,0,0-.377-.966,2.167,2.167,0,0,0-.759-.607,2.117,2.117,0,0,0-.929-.213,2.067,2.067,0,0,0-.747.146,1.942,1.942,0,0,0-.691.455,2.344,2.344,0,0,0-.5.79,3.017,3.017,0,0,0-.194,1.136,2.87,2.87,0,0,0,.291,1.3,2.23,2.23,0,0,0,.843.922,2.467,2.467,0,0,0,1.318.341,2.141,2.141,0,0,0,1.354-.443,2.364,2.364,0,0,0,.432-.419.4.4,0,0,1,.255-.108.294.294,0,0,1,.224.1.313.313,0,0,1,.091.218.336.336,0,0,1-.121.255,3.274,3.274,0,0,1-.947.759,2.586,2.586,0,0,1-1.275.322" transform="translate(59.106 18.798)" fill="#f8f8f8"/>
    <path id="Tracé_25" data-name="Tracé 25" d="M155.326,44.244a.343.343,0,0,1,.262.108.359.359,0,0,1,.1.255v8.259a.375.375,0,0,1-.365.365.335.335,0,0,1-.266-.11.372.372,0,0,1-.1-.255V51.42l.206-.169a1.635,1.635,0,0,1-.182.722,2.368,2.368,0,0,1-.517.68,2.748,2.748,0,0,1-.777.5,2.35,2.35,0,0,1-.953.194,2.607,2.607,0,0,1-1.464-.425,2.975,2.975,0,0,1-1.026-1.153,3.858,3.858,0,0,1,0-3.322A2.95,2.95,0,0,1,151.27,47.3a2.592,2.592,0,0,1,1.444-.418,2.538,2.538,0,0,1,.96.182,2.62,2.62,0,0,1,.8.5,2.418,2.418,0,0,1,.546.722,1.891,1.891,0,0,1,.2.845l-.255-.183V44.607a.372.372,0,0,1,.1-.255.334.334,0,0,1,.266-.108M152.8,52.671a2,2,0,0,0,1.147-.334,2.313,2.313,0,0,0,.777-.911,3.155,3.155,0,0,0,0-2.624,2.268,2.268,0,0,0-.783-.905,2.149,2.149,0,0,0-2.278,0,2.251,2.251,0,0,0-.79.905,2.906,2.906,0,0,0-.284,1.306,2.941,2.941,0,0,0,.284,1.311,2.279,2.279,0,0,0,.79.918,2.014,2.014,0,0,0,1.136.334" transform="translate(61.093 18.035)" fill="#f8f8f8"/>
    <path id="Tracé_26" data-name="Tracé 26" d="M160.554,44.244a.343.343,0,0,1,.262.108.359.359,0,0,1,.1.255v8.259a.375.375,0,0,1-.365.365.335.335,0,0,1-.266-.11.372.372,0,0,1-.1-.255V51.42l.206-.169a1.635,1.635,0,0,1-.182.722,2.368,2.368,0,0,1-.517.68,2.748,2.748,0,0,1-.777.5,2.35,2.35,0,0,1-.953.194,2.607,2.607,0,0,1-1.464-.425,2.975,2.975,0,0,1-1.026-1.153,3.858,3.858,0,0,1,0-3.322A2.95,2.95,0,0,1,156.5,47.3a2.592,2.592,0,0,1,1.444-.418,2.538,2.538,0,0,1,.96.182,2.62,2.62,0,0,1,.8.5,2.418,2.418,0,0,1,.546.722,1.891,1.891,0,0,1,.2.845l-.255-.183V44.607a.372.372,0,0,1,.1-.255.334.334,0,0,1,.266-.108m-2.525,8.427a2,2,0,0,0,1.147-.334,2.313,2.313,0,0,0,.777-.911,3.154,3.154,0,0,0,0-2.624,2.268,2.268,0,0,0-.783-.905,2.149,2.149,0,0,0-2.278,0,2.251,2.251,0,0,0-.79.905,2.906,2.906,0,0,0-.284,1.306,2.941,2.941,0,0,0,.284,1.311,2.279,2.279,0,0,0,.79.918,2.014,2.014,0,0,0,1.136.334" transform="translate(63.224 18.035)" fill="#f8f8f8"/>
    <path id="Tracé_27" data-name="Tracé 27" d="M160.978,45.858a.553.553,0,0,1-.383-.115.426.426,0,0,1-.127-.334v-.121a.406.406,0,0,1,.139-.334.581.581,0,0,1,.383-.115.511.511,0,0,1,.358.115.422.422,0,0,1,.128.334v.121a.422.422,0,0,1-.128.334.531.531,0,0,1-.37.115m.365,6.765a.375.375,0,0,1-.365.365.338.338,0,0,1-.267-.11.372.372,0,0,1-.1-.255V47.036a.36.36,0,0,1,.1-.255.339.339,0,0,1,.26-.11.346.346,0,0,1,.262.11.365.365,0,0,1,.1.255Z" transform="translate(65.412 18.278)" fill="#f8f8f8"/>
    <path id="Tracé_28" data-name="Tracé 28" d="M165.365,46.115a2.257,2.257,0,0,1,1.281.322,1.791,1.791,0,0,1,.693.874,3.4,3.4,0,0,1,.213,1.22V52.1a.37.37,0,0,1-.365.363.361.361,0,0,1-.376-.363V48.569a2.424,2.424,0,0,0-.158-.887,1.343,1.343,0,0,0-.511-.638,1.651,1.651,0,0,0-.935-.236,2.162,2.162,0,0,0-.99.236,2.086,2.086,0,0,0-.759.638,1.475,1.475,0,0,0-.291.887V52.1a.373.373,0,0,1-.365.363.363.363,0,0,1-.377-.363V46.661a.349.349,0,0,1,.11-.255.363.363,0,0,1,.267-.11.343.343,0,0,1,.26.11.36.36,0,0,1,.1.255v1.021l-.28.438a1.579,1.579,0,0,1,.249-.747,2.589,2.589,0,0,1,.577-.643,2.8,2.8,0,0,1,.783-.449,2.417,2.417,0,0,1,.869-.165" transform="translate(66.21 18.798)" fill="#f8f8f8"/>
    <path id="Tracé_29" data-name="Tracé 29" d="M170.114,46.115a2.62,2.62,0,0,1,1,.189,2.9,2.9,0,0,1,.808.486,2.532,2.532,0,0,1,.541.632,1.285,1.285,0,0,1,.194.638l-.194-.291v-1.13a.374.374,0,0,1,.1-.267.348.348,0,0,1,.262-.108.341.341,0,0,1,.266.108.389.389,0,0,1,.1.267v5.27a3.112,3.112,0,0,1-.4,1.629A2.618,2.618,0,0,1,171.7,54.55a3.413,3.413,0,0,1-1.56.346,3.894,3.894,0,0,1-.892-.11,3.6,3.6,0,0,1-.8-.279c-.222-.114-.345-.231-.37-.352a.307.307,0,0,1-.091-.213.238.238,0,0,1,.1-.177.222.222,0,0,1,.249-.017c.093.044.228.1.407.176l.321.108a3.641,3.641,0,0,0,.5.128,3.171,3.171,0,0,0,.6.055,2.127,2.127,0,0,0,2.3-2.259V50.791l.134.037a2.033,2.033,0,0,1-.365.752,2.5,2.5,0,0,1-.59.553,2.59,2.59,0,0,1-.728.341,2.82,2.82,0,0,1-.784.115,2.777,2.777,0,0,1-1.512-.425,3.023,3.023,0,0,1-1.063-1.154,3.745,3.745,0,0,1,0-3.322,2.967,2.967,0,0,1,1.057-1.153,2.768,2.768,0,0,1,1.506-.419m.084.693a2.223,2.223,0,0,0-1.2.328,2.251,2.251,0,0,0-.825.905,2.8,2.8,0,0,0-.3,1.3,2.844,2.844,0,0,0,.3,1.312,2.282,2.282,0,0,0,.825.916,2.3,2.3,0,0,0,2.375.006,2.308,2.308,0,0,0,.825-.9,2.81,2.81,0,0,0,.3-1.33,2.773,2.773,0,0,0-.3-1.323,2.267,2.267,0,0,0-.825-.892,2.2,2.2,0,0,0-1.178-.322" transform="translate(68.14 18.798)" fill="#f8f8f8"/>
    <path id="Tracé_30" data-name="Tracé 30" d="M59.481,13.471q0,5.524-5.524,9.724A39.21,39.21,0,0,1,40.336,29.59a21.434,21.434,0,0,1,8.778,4.351,8.513,8.513,0,0,1,3.33,6.471q0,5.374-7.3,9.838a31.932,31.932,0,0,1-16.99,4.465q-7.189,0-11.086-2.914a9.889,9.889,0,0,1-3.9-8.439q0-5.825,3.972-13.962a57.086,57.086,0,0,1,9.535-14.075q5.562-5.939,9.648-5.94a4.606,4.606,0,0,1,4.162,1.966A77.9,77.9,0,0,0,28.756,28.3a34.383,34.383,0,0,0,8.779-2.044A23.664,23.664,0,0,0,45.9,20.886a11.424,11.424,0,0,0,3.822-8.4q0-8.475-11.654-8.475A27.915,27.915,0,0,0,26.524,6.471a29.424,29.424,0,0,0-9,6.016,32.569,32.569,0,0,0-5.6,7.417A14.836,14.836,0,0,0,9.838,26.79a8.489,8.489,0,0,0,.984,4.237,6.558,6.558,0,0,1-2.8.455,7.865,7.865,0,0,1-5.6-2.309A8.607,8.607,0,0,1,0,22.628q0-5.749,4.654-10.936A33.425,33.425,0,0,1,17.67,3.254,49.978,49.978,0,0,1,35.947,0q10.9,0,17.215,3.86t6.319,9.611M42.454,38.065q0-3.406-3.67-4.54T26.79,32.39q-3.1,6.51-3.178,10.746-.076,5.676,5.6,5.676a14.228,14.228,0,0,0,9.081-3.329q4.162-3.33,4.162-7.417" transform="translate(0 0)" fill="#f8f8f8"/>
    <path id="Tracé_31" data-name="Tracé 31" d="M78.845,3.363a5.789,5.789,0,0,0-4.015-1.589q-2.194,0-3.782,2.646a10.029,10.029,0,0,0-1.589,5.151,4.312,4.312,0,0,0,1.246,3.25,3.8,3.8,0,0,0,2.918,1.136A24.919,24.919,0,0,1,76.99,9.188a11.153,11.153,0,0,1,3.594-3.1q0-1.138-1.738-2.725" transform="translate(28.314 0.723)" fill="#f8f8f8"/>
    <path id="Tracé_32" data-name="Tracé 32" d="M242.984,28.374a2.67,2.67,0,0,0-2.01-.493q-9.155,12.335-11.879,12.332c-.857,0-1.289-.908-1.289-2.724a24.907,24.907,0,0,1,1.289-6.812,51.054,51.054,0,0,0,3.7-4.956,22.155,22.155,0,0,0,2.348-4.126,4.608,4.608,0,0,0-1.627-2.154,4.763,4.763,0,0,0-3.14-1.1q-2.8,0-6.2,5.372a7.265,7.265,0,0,0-2.8-4.086,7.711,7.711,0,0,0-4.541-1.44q-4.394,0-8.627,4.43a32.865,32.865,0,0,0-6.474,9.758l-.006.006a55.074,55.074,0,0,1-5.819,6.208q-4.728,4.269-7.831,4.274a3.094,3.094,0,0,1-2.724-1.478,7.034,7.034,0,0,1-.987-3.97v-.61A71.244,71.244,0,0,0,200.3,21.032q7.451-9.875,7.453-15.854a4.715,4.715,0,0,0-1.55-3.671,5.515,5.515,0,0,0-3.822-1.4q-5.3,0-11.844,7.42a68.249,68.249,0,0,0-10.937,17.1,60.284,60.284,0,0,0-3.056,8.112l-.006.006a54.667,54.667,0,0,1-5.526,5.849q-4.725,4.269-7.831,4.274a3.094,3.094,0,0,1-2.724-1.478,7.034,7.034,0,0,1-.985-3.97v-.61A71.269,71.269,0,0,0,175.4,21.032q7.451-9.875,7.453-15.854a4.729,4.729,0,0,0-1.55-3.671,5.512,5.512,0,0,0-3.82-1.4q-5.3,0-11.845,7.42a68.088,68.088,0,0,0-10.936,17.1,60.384,60.384,0,0,0-3.029,8.008,52.754,52.754,0,0,1-5.826,5.692q-5.747,4.842-10.288,4.839a4,4,0,0,1-4.39-3.556,36.516,36.516,0,0,0,12.636-7.491q5-4.694,4.994-8.4a5.734,5.734,0,0,0-2.537-4.618,9.421,9.421,0,0,0-5.936-1.965q-4.394,0-8.816,3.937a29.654,29.654,0,0,0-7.037,9.309q-.665,1.353-1.153,2.652l-.006.006a46.939,46.939,0,0,1-3.537,3.394q-4.046,3.482-6.845,3.484-2.956,0-2.95-3.788a12.593,12.593,0,0,1,.227-2.193,69.848,69.848,0,0,0,14.037-15.173q6.622-9.419,6.617-14.186a4.06,4.06,0,0,0-1.434-3.218A5.438,5.438,0,0,0,125.722.106q-4.844,0-10.328,6.357a62.123,62.123,0,0,0-9.5,15.29,6.05,6.05,0,0,0-6.057-3.86q-4.385,0-8.739,4.54a34.155,34.155,0,0,0-6.812,10.29c-.011.027-.021.055-.032.083q-6.172,8.313-8.633,8.316-1.288,0-1.285-2.193,0-3.777,3.063-9.873a40.72,40.72,0,0,1,5.189-8.439,4.208,4.208,0,0,0-1.745-1.855,5.768,5.768,0,0,0-3.1-.791q-2.266,0-5.448,4.535a48.7,48.7,0,0,0-5.36,10.143q-2.12,2.667-4.4,5.067-4.236,4.468-5.9,4.469c-.753,0-1.136-.555-1.136-1.667q0-1.738,2.686-6.812t2.691-6.889q0-2.268-5.073-5.747-.53-.382-1.212-.8c-.455-.276-.831-.5-1.135-.681a3.551,3.551,0,0,1-.753-.564,8.929,8.929,0,0,0,1.206-4.313,2.109,2.109,0,0,0-2.42-2.348,6.368,6.368,0,0,0-4.314,1.744,5.148,5.148,0,0,0-1.965,3.932,3.41,3.41,0,0,0,1.816,2.8,52.164,52.164,0,0,1-4.015,7.038,1.685,1.685,0,0,0,.8,1.589,3.159,3.159,0,0,0,1.855.6c.1-.149.436-.681,1.018-1.589s1.225-1.916,1.933-3.029,1.308-2.042,1.817-2.8Q52.7,23.872,52.7,25.533q0,1.97-3.827,8.7t-3.82,9.686a5.8,5.8,0,0,0,1.7,4.275,5.621,5.621,0,0,0,4.126,1.7q4.461,0,10.7-5.9,1.562-1.478,3.069-3.09a14.215,14.215,0,0,0-.077,1.423,6.432,6.432,0,0,0,1.816,4.994A5.823,5.823,0,0,0,70.4,49q3.862,0,9.12-5.189c.792-.78,1.584-1.616,2.382-2.508-.051.51-.072,1.008-.072,1.489a6.637,6.637,0,0,0,1.893,5.145,6.082,6.082,0,0,0,4.236,1.744q5.067,0,13.546-8.782a9.169,9.169,0,0,0,2,5.111,5.418,5.418,0,0,0,4.275,1.855q4.692,0,10.858-5.151,1.636-1.362,3.223-2.9c-.006.132-.006.266-.006.4a9.185,9.185,0,0,0,2.614,6.927,9.819,9.819,0,0,0,7.148,2.537q8.9,0,18.755-10.332c-.038.559-.061,1.1-.061,1.627q0,4.236,2.231,6.468a7.537,7.537,0,0,0,5.56,2.237q5.524,0,12.3-5.676a61.069,61.069,0,0,0,4.862-4.564c-.038.526-.055,1.036-.055,1.534q0,4.236,2.231,6.468a7.535,7.535,0,0,0,5.56,2.237q5.524,0,12.3-5.676,2.092-1.761,4.086-3.765a18.046,18.046,0,0,0-.189,2.552q0,3.632,1.778,5.372A5.4,5.4,0,0,0,204.8,49.9q5.067,0,13.927-10.6a6.462,6.462,0,0,0-.077,1.213,9.157,9.157,0,0,0,1.512,5.26,4.7,4.7,0,0,0,4.086,2.231q6.662,0,19.376-17.936a1.565,1.565,0,0,0-.642-1.7M193.411,15.052q5.716-8.963,7.985-8.965c.5,0,.759.5.759,1.512q0,3.4-5.676,11.5a67.061,67.061,0,0,1-11.125,12.714,68.381,68.381,0,0,1,8.056-16.761m-24.9,0q5.714-8.963,7.984-8.965c.5,0,.759.5.759,1.512q0,3.4-5.676,11.5a67.012,67.012,0,0,1-11.124,12.714,68.338,68.338,0,0,1,8.057-16.761M135.446,26.364q3.522-5.448,5.564-5.448c.959,0,1.434.631,1.434,1.893q0,2.874-3.367,6.889a29.778,29.778,0,0,1-7.907,6.655,27.2,27.2,0,0,1,4.275-9.99M118.573,13.618q4.352-7.534,6.319-7.531c.5,0,.753.3.753.908q0,2.424-4.464,9.347a81.347,81.347,0,0,1-9.535,12.221,86.675,86.675,0,0,1,6.927-14.945M101.656,35.9q-5.45,6.054-8.246,6.057-1.818,0-1.816-2.652,0-4.236,3.556-10.217t6.733-5.975a3.359,3.359,0,0,1,2.725,1.817,53.766,53.766,0,0,0-2.952,10.97m119.266-5.222a64.258,64.258,0,0,1-6.474,7.8q-3.214,3.256-4.424,3.256c-.708,0-1.057-.731-1.057-2.2a17.571,17.571,0,0,1,1.512-6.13,27.309,27.309,0,0,1,3.937-6.844q2.416-3.064,4.54-3.067,1.962,0,3.633,3.178a39.269,39.269,0,0,0-1.667,4.009" transform="translate(17.529 0.043)" fill="#f8f8f8"/>
    <path id="Tracé_33" data-name="Tracé 33" d="M190.455,9.854A4.888,4.888,0,0,1,188,9.222a4.8,4.8,0,0,1-2.435-4.241,4.7,4.7,0,0,1,.664-2.492A4.906,4.906,0,0,1,188,.748a4.839,4.839,0,0,1,2.459-.642A4.775,4.775,0,0,1,192.9.748a4.949,4.949,0,0,1,1.762,1.741,4.726,4.726,0,0,1,.664,2.492,4.782,4.782,0,0,1-.664,2.5,4.81,4.81,0,0,1-4.21,2.372m0-.936a3.839,3.839,0,0,0,1.958-.5,3.767,3.767,0,0,0,1.394-1.392,3.97,3.97,0,0,0,.521-2.044,3.847,3.847,0,0,0-1.914-3.428,3.791,3.791,0,0,0-1.958-.511,3.891,3.891,0,0,0-1.99.511,3.843,3.843,0,0,0-1.4,1.392,3.908,3.908,0,0,0-.522,2.035,3.957,3.957,0,0,0,.522,2.044,3.718,3.718,0,0,0,1.4,1.392,3.941,3.941,0,0,0,1.99.5m-1.3-1.327a.472.472,0,0,1-.315-.12.37.37,0,0,1-.142-.294V2.761a.38.38,0,0,1,.108-.251.347.347,0,0,1,.262-.12h1.588a2.09,2.09,0,0,1,1.3.359,1.327,1.327,0,0,1,.466,1.12,1.138,1.138,0,0,1-.348.87,1.947,1.947,0,0,1-.935.457l-.045-.175a1.163,1.163,0,0,1,.655.425,1.261,1.261,0,0,1,.3.838,1.169,1.169,0,0,0,.068.467.4.4,0,0,0,.194.207.241.241,0,0,1,.184.152.258.258,0,0,1-.011.2.353.353,0,0,1-.228.251.894.894,0,0,1-.424.055.65.65,0,0,1-.469-.327,1.638,1.638,0,0,1-.206-.914.964.964,0,0,0-.173-.6.674.674,0,0,0-.567-.229H189.39l.218-.217V7.177a.386.386,0,0,1-.131.294.465.465,0,0,1-.327.12m1.35-2.872a1.278,1.278,0,0,0,.738-.207.653.653,0,0,0,.305-.576.578.578,0,0,0-.26-.545,1.381,1.381,0,0,0-.7-.152h-1.3L189.608,3V4.871l-.218-.152Z" transform="translate(75.64 0.043)" fill="#f8f8f8"/>
  </g>
</svg>
