<svg height="1735.788" viewBox="0 0 1889.408 1735.788" width="1889.408" xmlns="http://www.w3.org/2000/svg"><rect fill="#fff" height="1585.229" rx="41.856" transform="matrix(-1 -0 0 -1 1889.408 1881.347)" width="1884.408" x="2.5" y="148.059"/><path d="m1886.908 297.001v-107.086c0-23.116-18.74-41.856-41.856-41.856h-1800.696c-23.116 0-41.856 18.74-41.856 41.856v107.086z" fill="#92acef"/><path d="m1886.908 299.501h-1884.408c-1.381 0-2.5-1.119-2.5-2.5v-107.086c0-24.458 19.898-44.356 44.356-44.356h1800.696c24.458 0 44.356 19.898 44.356 44.356v107.086c0 1.381-1.119 2.5-2.5 2.5zm-1881.908-5h1879.408v-104.586c0-21.701-17.655-39.356-39.356-39.356h-1800.696c-21.701 0-39.356 17.655-39.356 39.356z"/><path d="m1845.052 1735.788h-1800.696c-24.458 0-44.356-19.898-44.356-44.356v-1501.517c0-24.458 19.898-44.356 44.356-44.356h1800.696c24.458 0 44.356 19.898 44.356 44.356v1501.517c0 24.458-19.898 44.355-44.356 44.355zm-1800.696-1585.229c-21.701 0-39.356 17.655-39.356 39.356v1501.517c0 21.701 17.655 39.355 39.356 39.355h1800.696c21.701 0 39.356-17.654 39.356-39.355v-1501.517c0-21.701-17.655-39.356-39.356-39.356z"/><g fill="#cad5f3"><rect height="317.331" rx="41.856" transform="matrix(-1 -0 0 -1 1512.542 2780.074)" width="317.331" x="597.606" y="1231.372"/><rect height="317.331" rx="41.856" transform="matrix(-1 -0 0 -1 762.757 2780.074)" width="317.331" x="222.713" y="1231.372"/><rect height="317.331" rx="41.856" transform="matrix(-1 -0 0 -1 3016.058 1280.505)" width="317.331" x="1349.363" y="481.587"/></g><path d="m1624.839 801.418h-233.619c-24.458 0-44.356-19.898-44.356-44.356v-233.619c0-24.458 19.898-44.356 44.356-44.356h233.619c24.458 0 44.355 19.898 44.355 44.356v233.619c0 24.458-19.897 44.356-44.355 44.356zm-233.619-317.331c-21.701 0-39.356 17.655-39.356 39.356v233.619c0 21.701 17.655 39.356 39.356 39.356h233.619c21.7 0 39.355-17.655 39.355-39.356v-233.619c0-21.701-17.655-39.356-39.355-39.356z"/><path d="m1624.839 1176.31h-233.619c-24.458 0-44.356-19.898-44.356-44.356v-233.619c0-24.458 19.898-44.356 44.356-44.356h233.619c24.458 0 44.355 19.898 44.355 44.356v233.619c0 24.458-19.897 44.356-44.355 44.356zm-233.619-317.331c-21.701 0-39.356 17.655-39.356 39.356v233.619c0 21.701 17.655 39.356 39.356 39.356h233.619c21.7 0 39.355-17.655 39.355-39.356v-233.619c0-21.701-17.655-39.356-39.355-39.356z"/><path d="m1624.839 1551.203h-233.619c-24.458 0-44.356-19.898-44.356-44.356v-233.618c0-24.458 19.898-44.356 44.356-44.356h233.619c24.458 0 44.355 19.898 44.355 44.356v233.618c0 24.458-19.897 44.356-44.355 44.356zm-233.619-317.331c-21.701 0-39.356 17.655-39.356 39.356v233.618c0 21.701 17.655 39.356 39.356 39.356h233.619c21.7 0 39.355-17.655 39.355-39.356v-233.618c0-21.701-17.655-39.356-39.355-39.356z"/><path d="m1249.946 801.418h-233.619c-24.458 0-44.355-19.898-44.355-44.356v-233.619c0-24.458 19.897-44.356 44.355-44.356h233.619c24.458 0 44.355 19.898 44.355 44.356v233.619c0 24.458-19.897 44.356-44.355 44.356zm-233.619-317.331c-21.7 0-39.355 17.655-39.355 39.356v233.619c0 21.701 17.655 39.356 39.355 39.356h233.619c21.7 0 39.355-17.655 39.355-39.356v-233.619c0-21.701-17.655-39.356-39.355-39.356z"/><path d="m1249.946 1176.31h-233.619c-24.458 0-44.355-19.898-44.355-44.356v-233.619c0-24.458 19.897-44.356 44.355-44.356h233.619c24.458 0 44.355 19.898 44.355 44.356v233.619c0 24.458-19.897 44.356-44.355 44.356zm-233.619-317.331c-21.7 0-39.355 17.655-39.355 39.356v233.619c0 21.701 17.655 39.356 39.355 39.356h233.619c21.7 0 39.355-17.655 39.355-39.356v-233.619c0-21.701-17.655-39.356-39.355-39.356z"/><path d="m1249.946 1551.203h-233.619c-24.458 0-44.355-19.898-44.355-44.356v-233.618c0-24.458 19.897-44.356 44.355-44.356h233.619c24.458 0 44.355 19.898 44.355 44.356v233.618c0 24.458-19.897 44.356-44.355 44.356zm-233.619-317.331c-21.7 0-39.355 17.655-39.355 39.356v233.618c0 21.701 17.655 39.356 39.355 39.356h233.619c21.7 0 39.355-17.655 39.355-39.356v-233.618c0-21.701-17.655-39.356-39.355-39.356z"/><path d="m873.081 801.418h-233.619c-24.458 0-44.356-19.898-44.356-44.356v-233.619c0-24.458 19.898-44.356 44.356-44.356h233.619c24.458 0 44.355 19.898 44.355 44.356v233.619c0 24.458-19.897 44.356-44.355 44.356zm-233.619-317.331c-21.701 0-39.356 17.655-39.356 39.356v233.619c0 21.701 17.655 39.356 39.356 39.356h233.619c21.7 0 39.355-17.655 39.355-39.356v-233.619c0-21.701-17.655-39.356-39.355-39.356z"/><path d="m873.081 1176.31h-233.619c-24.458 0-44.356-19.898-44.356-44.356v-233.619c0-24.458 19.898-44.356 44.356-44.356h233.619c24.458 0 44.355 19.898 44.355 44.356v233.619c0 24.458-19.897 44.356-44.355 44.356zm-233.619-317.331c-21.701 0-39.356 17.655-39.356 39.356v233.619c0 21.701 17.655 39.356 39.356 39.356h233.619c21.7 0 39.355-17.655 39.355-39.356v-233.619c0-21.701-17.655-39.356-39.355-39.356z"/><path d="m873.081 1551.203h-233.619c-24.458 0-44.356-19.898-44.356-44.356v-233.618c0-24.458 19.898-44.356 44.356-44.356h233.619c24.458 0 44.355 19.898 44.355 44.356v233.618c0 24.458-19.897 44.356-44.355 44.356zm-233.619-317.331c-21.701 0-39.356 17.655-39.356 39.356v233.618c0 21.701 17.655 39.356 39.356 39.356h233.619c21.7 0 39.355-17.655 39.355-39.356v-233.618c0-21.701-17.655-39.356-39.355-39.356z"/><path d="m498.188 801.418h-233.619c-24.458 0-44.355-19.898-44.355-44.356v-233.619c0-24.458 19.897-44.356 44.355-44.356h233.619c24.458 0 44.355 19.898 44.355 44.356v233.619c0 24.458-19.897 44.356-44.355 44.356zm-233.619-317.331c-21.7 0-39.355 17.655-39.355 39.356v233.619c0 21.701 17.655 39.356 39.355 39.356h233.619c21.7 0 39.355-17.655 39.355-39.356v-233.619c0-21.701-17.655-39.356-39.355-39.356z"/><path d="m498.188 1176.31h-233.619c-24.458 0-44.355-19.898-44.355-44.356v-233.619c0-24.458 19.897-44.356 44.355-44.356h233.619c24.458 0 44.355 19.898 44.355 44.356v233.619c0 24.458-19.897 44.356-44.355 44.356zm-233.619-317.331c-21.7 0-39.355 17.655-39.355 39.356v233.619c0 21.701 17.655 39.356 39.355 39.356h233.619c21.7 0 39.355-17.655 39.355-39.356v-233.619c0-21.701-17.655-39.356-39.355-39.356z"/><path d="m498.188 1551.203h-233.619c-24.458 0-44.355-19.898-44.355-44.356v-233.618c0-24.458 19.897-44.356 44.355-44.356h233.619c24.458 0 44.355 19.898 44.355 44.356v233.618c0 24.458-19.897 44.356-44.355 44.356zm-233.619-317.331c-21.7 0-39.355 17.655-39.355 39.356v233.618c0 21.701 17.655 39.356 39.355 39.356h233.619c21.7 0 39.355-17.655 39.355-39.356v-233.618c0-21.701-17.655-39.356-39.355-39.356z"/><path d="m1845.318 1735.788h-1801.229c-24.311 0-44.089-19.779-44.089-44.089v-1394.698c0-1.381 1.119-2.5 2.5-2.5h1884.408c1.381 0 2.5 1.119 2.5 2.5v1394.698c0 24.311-19.778 44.089-44.09 44.089zm-1840.318-1436.287v1392.198c0 21.554 17.535 39.089 39.089 39.089h1801.229c21.555 0 39.09-17.535 39.09-39.089v-1392.198z"/><rect fill="#cad5f3" height="242.715" rx="27.959" width="55.919" x="1626.13" y="2.5"/><path d="m1654.09 247.715c-16.795 0-30.459-13.664-30.459-30.459v-186.797c0-16.795 13.664-30.459 30.459-30.459s30.46 13.664 30.46 30.459v186.796c0 16.795-13.664 30.459-30.46 30.459zm0-242.715c-14.038 0-25.459 11.421-25.459 25.459v186.796c0 14.039 11.421 25.459 25.459 25.459s25.46-11.421 25.46-25.459v-186.796c0-14.039-11.421-25.459-25.46-25.459z"/><rect fill="#cad5f3" height="242.715" rx="27.959" width="55.919" x="1153.24" y="2.5"/><path d="m1181.199 247.715c-16.795 0-30.459-13.664-30.459-30.459v-186.797c0-16.795 13.664-30.459 30.459-30.459s30.46 13.664 30.46 30.459v186.796c0 16.795-13.664 30.459-30.46 30.459zm0-242.715c-14.038 0-25.459 11.421-25.459 25.459v186.796c0 14.039 11.421 25.459 25.459 25.459s25.46-11.421 25.46-25.459v-186.796c0-14.039-11.421-25.459-25.46-25.459z"/><rect fill="#cad5f3" height="242.715" rx="27.959" width="55.919" x="680.349" y="2.5"/><path d="m708.309 247.715c-16.795 0-30.459-13.664-30.459-30.459v-186.797c0-16.795 13.664-30.459 30.459-30.459s30.46 13.664 30.46 30.459v186.796c0 16.795-13.664 30.459-30.46 30.459zm0-242.715c-14.038 0-25.459 11.421-25.459 25.459v186.796c0 14.039 11.421 25.459 25.459 25.459s25.46-11.421 25.46-25.459v-186.796c0-14.039-11.421-25.459-25.46-25.459z"/><rect fill="#cad5f3" height="242.715" rx="27.959" width="55.919" x="207.459" y="2.5"/><path d="m235.418 247.715c-16.795 0-30.459-13.664-30.459-30.459v-186.797c0-16.795 13.664-30.459 30.459-30.459s30.46 13.664 30.46 30.459v186.796c0 16.795-13.664 30.459-30.46 30.459zm0-242.715c-14.038 0-25.459 11.421-25.459 25.459v186.796c0 14.039 11.421 25.459 25.459 25.459s25.46-11.421 25.46-25.459v-186.796c0-14.039-11.421-25.459-25.46-25.459z"/></svg>