<svg fill="#000000" xmlns="http://www.w3.org/2000/svg"  viewBox="0 0 24 24" width="48px" height="48px"><path d="M 12 2 C 6.5486138 2 2 5.9740326 2 11 C 2 16.025967 6.5486138 20 12 20 C 12.346168 20 12.665158 19.93053 13 19.898438 L 13 23.09375 L 14.541016 22.105469 C 16.703198 20.717704 21.385038 17.115414 21.943359 11.945312 C 21.978757 11.637749 22 11.322745 22 11 C 22 5.9740326 17.451386 2 12 2 z M 12 4 C 16.490614 4 20 7.1899674 20 11 C 20 11.240597 19.985091 11.480626 19.957031 11.722656 L 19.957031 11.726562 L 19.955078 11.730469 C 19.609498 14.93103 17.047504 17.44485 15 19.083984 L 15 17.572266 L 13.802734 17.814453 C 13.217083 17.932675 12.615326 18 12 18 C 7.5093862 18 4 14.810033 4 11 C 4 7.1899674 7.5093862 4 12 4 z M 7 10 L 7 12 L 9 12 L 9 10 L 7 10 z M 11 10 L 11 12 L 13 12 L 13 10 L 11 10 z M 15 10 L 15 12 L 17 12 L 17 10 L 15 10 z"/></svg>