<svg fill="#000000" xmlns="http://www.w3.org/2000/svg"  viewBox="0 0 50 50" width="50px" height="50px"><path fill="none" stroke="#000000" stroke-linecap="round" stroke-linejoin="round" stroke-miterlimit="10" stroke-width="2" d="M25 2L25 5M34.068 6.943L39 8M25 5L30.492 6.177M15.932 6.943L11 8M25 5L19.508 6.177M32 22c0 0 2-9.071 2-16l-3-1c0 8.043-6 7.011-6 11 0-3.93-6-2.957-6-11l-3 1c0 6.929 2 16 2 16s-4.429 15.286-6 24c0 0 5.002 1 13 1s13-1 13-1C36.429 37.286 32 22 32 22z"/><path fill="none" stroke="#000000" stroke-linecap="round" stroke-linejoin="round" stroke-miterlimit="10" stroke-width="2" d="M32,22c0,0-3.996,1-7,1s-7-1-7-1"/></svg>