<svg fill="#000000" xmlns="http://www.w3.org/2000/svg"  viewBox="0 0 50 50" width="50px" height="50px"><path fill="none" stroke="#000000" stroke-linejoin="round" stroke-miterlimit="10" stroke-width="2" d="M4,17v-1c0-3.866,3.291-7,7.35-7h27.3C42.709,9,46,12.134,46,16v1"/><path d="M13 13A1 1 0 1 0 13 15 1 1 0 1 0 13 13zM21 13A1 1 0 1 0 21 15 1 1 0 1 0 21 13zM29 13A1 1 0 1 0 29 15 1 1 0 1 0 29 13zM37 13A1 1 0 1 0 37 15 1 1 0 1 0 37 13zM13 21A1 1 0 1 0 13 23 1 1 0 1 0 13 21zM17 17A1 1 0 1 0 17 19 1 1 0 1 0 17 17zM25 17A1 1 0 1 0 25 19 1 1 0 1 0 25 17zM33 17A1 1 0 1 0 33 19 1 1 0 1 0 33 17zM21 21A1 1 0 1 0 21 23 1 1 0 1 0 21 21zM29 21A1 1 0 1 0 29 23 1 1 0 1 0 29 21zM37 21A1 1 0 1 0 37 23 1 1 0 1 0 37 21z"/><path fill="none" stroke="#000000" stroke-linejoin="round" stroke-miterlimit="10" stroke-width="2" d="M11 39L11 43 7 43 7 38M43 38L43 43 39 43 39 39"/><path fill="none" stroke="#000000" stroke-miterlimit="10" stroke-width="2" d="M25 33v-3c0-1.657-1.343-3-3-3H9M41 27H28c-1.657 0-3 1.343-3 3v3"/><path fill="none" stroke="#000000" stroke-linejoin="round" stroke-miterlimit="10" stroke-width="2" d="M49,21c0-2.339-2.007-4.209-4.393-3.981C42.527,17.217,41,19.083,41,21.172L41,31c0,1.105-0.895,2-2,2H11c-1.105,0-2-0.895-2-2V21c0-2.518-2.327-4.493-4.948-3.891c-1.436,0.33-2.604,1.493-2.939,2.928C0.584,22.304,1.985,24.35,4,24.87V33c0,3.314,2.686,6,6,6h30c3.314,0,6-2.686,6-6v-8.141C47.722,24.412,49,22.862,49,21z"/></svg>