<svg xmlns="http://www.w3.org/2000/svg"  viewBox="0 0 80 80" width="80px" height="80px"><path fill="#fff" d="M2.5 16.6H77.5V71.5H2.5z"/><path fill="#b7c5cf" d="M77,17.1V71H3V17.1H77 M78,16.1H2V72h76V16.1L78,16.1z"/><path fill="#fff" d="M2.5,17.5V13c0-2.5,2-4.5,4.5-4.5h66c2.5,0,4.5,2,4.5,4.5v4.5H2.5z"/><path fill="#b7c5cf" d="M73,9c2.2,0,4,1.8,4,4v4H3v-4c0-2.2,1.8-4,4-4H73 M73,8H7c-2.8,0-5,2.2-5,5v5h76v-5 C78,10.2,75.8,8,73,8L73,8z"/><path fill="#c2e8ff" d="M40,59.5c-8.5,0-15.5-7-15.5-15.5s7-15.5,15.5-15.5s15.5,7,15.5,15.5S48.5,59.5,40,59.5z"/><path fill="#7496c4" d="M40,29c8.3,0,15,6.7,15,15s-6.7,15-15,15s-15-6.7-15-15S31.7,29,40,29 M40,28c-8.8,0-16,7.2-16,16 s7.2,16,16,16s16-7.2,16-16S48.8,28,40,28L40,28z"/><path fill="#788b9c" d="M40 36A8 8 0 1 0 40 52A8 8 0 1 0 40 36Z"/><path fill="#fff" d="M35 36A3 3 0 1 0 35 42A3 3 0 1 0 35 36Z"/><path fill="#788b9c" d="M20,64.5c-0.1,0-0.3,0-0.4-0.1c-0.2-0.2-0.2-0.5,0-0.7l40-40c0.2-0.2,0.5-0.2,0.7,0s0.2,0.5,0,0.7 l-40,40C20.3,64.5,20.1,64.5,20,64.5z"/></svg>