<svg fill="#000000" xmlns="http://www.w3.org/2000/svg"  viewBox="0 0 24 24" width="48px" height="48px"><path d="M 5 3 C 4.448 3 4 3.448 4 4 L 4 7 L 2 12 L 2 14 L 3 14 L 3 21 L 13 21 L 13 14 L 19 14 L 19 21 L 21 21 L 21 14 L 22 14 L 22 12 L 20 7 L 20 4 C 20 3.448 19.552 3 19 3 L 5 3 z M 6 5 L 18 5 L 18 7.3847656 L 19.845703 12 L 13 12 L 4.1542969 12 L 6 7.3847656 L 6 5 z M 8 6 C 7.448 6 7 6.448 7 7 C 7 7.552 7.448 8 8 8 C 8.552 8 9 7.552 9 7 C 9 6.448 8.552 6 8 6 z M 11 6 C 10.448 6 10 6.448 10 7 C 10 7.552 10.448 8 11 8 C 11.552 8 12 7.552 12 7 C 12 6.448 11.552 6 11 6 z M 5 14 L 11 14 L 11 19 L 5 19 L 5 14 z"/></svg>