<svg enable-background="new 0 0 182.5 162.23" height="163" viewBox="0 0 182.5 162.23" width="183" xmlns="http://www.w3.org/2000/svg"><path d="m181.002 16.788-.226-1.73-.668-1.611-1.063-1.383-1.383-1.063-1.611-.667-1.73-.227-1.729.227-1.612.668-1.383 1.062-1.062 1.383-.668 1.611-.226 1.73-.226-1.73-.668-1.611-1.063-1.383-1.383-1.063-1.611-.667-1.73-.227-1.729.227-1.611.668-1.383 1.062-1.063 1.383-.668 1.611-.226 1.73.001.121.004.122.006.121.008.121.01.12.012.12.615 3.276 1.456 2.998 2.17 2.533 2.704 1.953 3.078 1.285 3.297.477 3.298-.478 3.077-1.284 2.704-1.953 2.169-2.532 1.456-2.998.616-3.277.012-.12.01-.12.008-.121.006-.121.003-.121z" fill="#ee4878"/><path d="m167.426 31.52-3.659-.578-3.379-1.453-2.965-2.193-2.379-2.853-1.456-2.998-.125-.378-.682-4.263.013-.209.226-1.729.102-.38.668-1.611.196-.339 1.062-1.383.275-.275 1.383-1.063.339-.196 1.611-.668.38-.102 1.73-.226h.389l1.729.226.38.102 1.611.668.34.196 1.383 1.062.276.275.767.999.767-.998.275-.276 1.383-1.063.339-.196 1.611-.668.38-.102 1.729-.226h.389l1.73.226.38.102 1.611.668.34.196 1.383 1.062.276.275 1.063 1.383.196.339.668 1.611.102.38.239 1.939-.067.987-.615 3.277-.125.378-1.666 3.319-2.43 2.773-3.004 2.121-3.441 1.385-3.298.478h-.43zm-2.679-3.419 2.894.419 2.895-.419 2.743-1.145 2.418-1.747 1.927-2.25 1.284-2.643.593-3.437-.187-1.429-.516-1.246-.823-1.07-1.07-.822-1.245-.516-1.339-.175-1.338.175-1.246.516-1.07.823-.822 1.07-.516 1.245-.2 1.533h-2.975l-.2-1.533-.516-1.245-.823-1.07-1.07-.822-1.245-.516-1.339-.175-1.338.175-1.245.516-1.07.823-.823 1.07-.516 1.245-.187 1.428.026.42.567 3.017 1.284 2.643 1.927 2.251 2.419 1.747z" fill="#231f20"/><path d="m38.655 20.071-.628 4.812-1.859 4.482-2.956 3.848-3.847 2.956-4.482 1.858-4.812.628-4.811-.628-4.482-1.859-3.848-2.956-2.956-3.847-1.858-4.482-.629-4.812.629-4.811 1.859-4.482 2.956-3.848 3.847-2.956 4.482-1.858 4.811-.629 4.812.629 4.482 1.859 3.848 2.956 2.956 3.847 1.858 4.482z" fill="#ee4878"/><path d="m20.266 40.143h-.389l-4.812-.629-.38-.102-4.482-1.858-.339-.196-3.847-2.956-.276-.276-2.956-3.847-.196-.339-1.858-4.482-.102-.38-.629-4.812v-.389l.629-4.812.102-.38 1.858-4.482.196-.339 2.956-3.848.276-.276 3.847-2.956.339-.196 4.482-1.858.38-.102 4.812-.628h.389l4.812.629.38.102 4.482 1.858.339.196 3.848 2.956.276.276 2.956 3.847.196.339 1.858 4.482.102.38.629 4.812v.389l-.629 4.812-.102.38-1.858 4.482-.196.339-2.956 3.847-.276.276-3.847 2.956-.339.196-4.482 1.858-.38.102zm-4.615-3.578 4.42.578 4.42-.578 4.116-1.706 3.535-2.716 2.716-3.535 1.707-4.116.578-4.42-.578-4.42-1.706-4.116-2.716-3.536-3.535-2.716-4.116-1.706-4.421-.578-4.42.578-4.116 1.706-3.535 2.716-2.716 3.535-1.706 4.116-.578 4.42.578 4.42 1.706 4.116 2.716 3.535 3.535 2.716z" fill="#231f20"/><path d="m54.045 18.571h82.435v3h-82.435z" fill="#231f20"/><path d="m181.002 77.831-.226-1.729-.668-1.612-1.063-1.383-1.383-1.062-1.611-.668-1.73-.226-1.729.226-1.612.668-1.383 1.063-1.062 1.383-.668 1.611-.226 1.729-.226-1.729-.668-1.612-1.063-1.383-1.383-1.062-1.611-.668-1.73-.226-1.729.226-1.611.668-1.383 1.063-1.063 1.383-.668 1.611-.226 1.729.001.122.004.122.006.121.008.12.01.121.012.119.615 3.277 1.456 2.998 2.17 2.533 2.704 1.953 3.078 1.284 3.297.478 3.298-.478 3.077-1.285 2.704-1.953 2.169-2.532 1.456-2.998.616-3.277.012-.12.01-.12.008-.12.006-.121.003-.122z" fill="#ee4878"/><g fill="#231f20"><path d="m167.426 92.563-3.659-.578-3.379-1.453-2.965-2.193-2.379-2.853-1.456-2.998-.125-.378-.682-4.263.013-.209.226-1.729.102-.38.668-1.611.196-.339 1.062-1.383.275-.275 1.383-1.063.34-.196 1.611-.668.38-.102 1.73-.226h.389l1.729.226.38.102 1.611.668.34.196 1.383 1.062.276.275.767.999.767-.998.275-.276 1.383-1.063.34-.196 1.611-.668.38-.102 1.729-.226h.389l1.73.226.38.102 1.611.668.34.196 1.383 1.062.276.275 1.063 1.383.196.339.668 1.611.102.38.239 1.939-.067.987-.615 3.277-.125.378-1.666 3.319-2.43 2.773-3.004 2.121-3.441 1.385-3.298.478h-.432zm-2.679-3.419 2.894.419 2.895-.419 2.743-1.145 2.418-1.747 1.927-2.25 1.284-2.643.593-3.437-.187-1.429-.516-1.246-.823-1.07-1.07-.822-1.245-.516-1.339-.175-1.338.175-1.245.516-1.07.823-.822 1.07-.516 1.245-.2 1.533h-2.975l-.2-1.533-.516-1.245-.823-1.07-1.07-.822-1.245-.516-1.338-.175-1.339.175-1.245.516-1.07.823-.823 1.07-.516 1.245-.187 1.428.026.42.567 3.017 1.284 2.644 1.927 2.25 2.419 1.747z"/><path d="m38.655 81.115-.628 4.812-1.859 4.482-2.956 3.847-3.847 2.956-4.482 1.858-4.812.629-4.811-.629-4.482-1.858-3.848-2.956-2.956-3.848-1.858-4.482-.629-4.811.629-4.812 1.859-4.482 2.956-3.847 3.847-2.956 4.482-1.858 4.811-.629 4.812.629 4.482 1.858 3.848 2.956 2.956 3.848 1.858 4.482z"/><path d="m20.266 101.186h-.389l-4.812-.629-.38-.102-4.482-1.858-.339-.196-3.847-2.956-.276-.276-2.956-3.847-.196-.339-1.858-4.482-.102-.38-.629-4.812v-.389l.629-4.812.102-.38 1.858-4.482.196-.339 2.956-3.847.276-.276 3.847-2.956.339-.196 4.482-1.858.38-.102 4.811-.629h.389l4.812.629.38.102 4.482 1.858.339.196 3.848 2.956.276.276 2.956 3.847.196.339 1.858 4.482.102.38.629 4.812v.389l-.629 4.812-.102.38-1.858 4.482-.196.339-2.956 3.847-.276.276-3.847 2.956-.339.196-4.482 1.858-.38.102zm-4.615-3.578 4.42.578 4.42-.578 4.116-1.706 3.535-2.716 2.716-3.535 1.707-4.116.578-4.42-.578-4.42-1.706-4.116-2.716-3.535-3.535-2.716-4.116-1.706-4.421-.578-4.42.578-4.116 1.706-3.535 2.716-2.716 3.535-1.706 4.116-.578 4.42.578 4.42 1.706 4.116 2.716 3.535 3.535 2.716z"/><path d="m54.045 79.615h50.217v3h-50.217z"/></g><path d="m181.002 138.875-.226-1.73-.668-1.611-1.063-1.383-1.383-1.063-1.611-.667-1.73-.227-1.729.227-1.612.668-1.383 1.062-1.062 1.383-.668 1.611-.226 1.73-.226-1.73-.668-1.611-1.063-1.383-1.383-1.063-1.611-.667-1.73-.227-1.729.227-1.611.668-1.383 1.062-1.063 1.383-.668 1.611-.226 1.73.001.121.004.122.006.121.008.121.01.12.012.12.615 3.276 1.456 2.998 2.17 2.533 2.704 1.953 3.078 1.285 3.297.477 3.298-.478 3.077-1.284 2.704-1.953 2.169-2.533 1.456-2.997.616-3.277.012-.12.01-.12.008-.121.006-.121.003-.121z" fill="#ee4878"/><path d="m167.426 153.607-3.659-.578-3.379-1.453-2.965-2.193-2.379-2.853-1.456-2.998-.125-.378-.682-4.263.013-.209.226-1.729.102-.38.668-1.611.196-.339 1.062-1.383.275-.275 1.383-1.063.34-.196 1.611-.668.38-.102 1.73-.226h.389l1.729.226.38.102 1.611.668.339.196 1.383 1.062.276.275.767.999.767-.998.275-.276 1.383-1.063.34-.196 1.611-.668.38-.102 1.729-.226h.389l1.73.226.38.102 1.611.668.339.196 1.383 1.062.276.275 1.063 1.383.196.339.668 1.611.102.38.239 1.939-.067.987-.615 3.277-.125.378-1.666 3.319-2.43 2.773-3.004 2.121-3.441 1.385-3.298.478h-.43zm-2.679-3.42 2.894.419 2.895-.419 2.743-1.145 2.418-1.747 1.927-2.25 1.284-2.643.593-3.437-.187-1.429-.516-1.246-.823-1.07-1.07-.822-1.245-.516-1.339-.175-1.338.175-1.245.516-1.07.823-.822 1.07-.516 1.245-.2 1.533h-2.975l-.2-1.533-.516-1.245-.823-1.07-1.07-.822-1.245-.516-1.338-.175-1.339.175-1.245.516-1.07.823-.823 1.07-.516 1.245-.187 1.428.026.42.567 3.017 1.284 2.644 1.927 2.25 2.419 1.747z" fill="#231f20"/><path d="m38.655 142.158-.628 4.812-1.859 4.482-2.956 3.848-3.847 2.955-4.482 1.859-4.812.628-4.811-.629-4.482-1.858-3.848-2.956-2.956-3.847-1.858-4.482-.629-4.812.629-4.811 1.859-4.482 2.956-3.848 3.847-2.956 4.482-1.858 4.811-.629 4.812.629 4.482 1.858 3.848 2.957 2.956 3.847 1.858 4.482z" fill="#231f20"/><path d="m20.266 162.23h-.389l-4.812-.629-.38-.102-4.482-1.858-.339-.196-3.847-2.956-.276-.276-2.956-3.847-.196-.339-1.858-4.482-.102-.38-.629-4.812v-.389l.629-4.812.102-.38 1.858-4.482.196-.339 2.956-3.847.276-.276 3.847-2.956.339-.196 4.482-1.858.38-.102 4.811-.629h.389l4.812.629.38.102 4.482 1.858.339.196 3.848 2.956.276.276 2.956 3.847.196.339 1.858 4.482.102.38.629 4.811v.389l-.629 4.812-.102.38-1.858 4.482-.196.339-2.956 3.847-.276.276-3.847 2.956-.339.196-4.482 1.858-.38.102zm-4.615-3.578 4.42.578 4.42-.578 4.116-1.706 3.535-2.716 2.716-3.535 1.707-4.116.578-4.42-.578-4.42-1.706-4.116-2.716-3.535-3.535-2.716-4.116-1.706-4.421-.578-4.42.578-4.116 1.706-3.535 2.716-2.716 3.535-1.706 4.116-.578 4.419.578 4.42 1.706 4.116 2.716 3.535 3.535 2.716z" fill="#231f20"/><path d="m54.045 140.658h72.522v3h-72.522z" fill="#231f20"/></svg>