<svg xmlns="http://www.w3.org/2000/svg" viewBox="0 0 3500 2750" width="3500" height="2750"><g transform="translate(514.0 751.0) rotate(0.0 944.5 867.5) scale(0.9997840593455728 0.999546027510272)"><svg width="1889.408" height="1735.788" viewBox="0 0 1889.408 1735.788"><rect fill="#fff" height="1585.229" rx="41.856" transform="matrix(-1 -0 0 -1 1889.408 1881.347)" width="1884.408" x="2.5" y="148.059"/><path d="M1886.908 297.001V189.915c0-23.116-18.74-41.856-41.856-41.856H44.356c-23.116 0-41.856 18.74-41.856 41.856v107.086z" fill="#92acef"/><path d="M1886.908 299.501H2.5a2.5 2.5 0 0 1-2.5-2.5V189.915c0-24.458 19.898-44.356 44.356-44.356h1800.696c24.458 0 44.356 19.898 44.356 44.356v107.086a2.5 2.5 0 0 1-2.5 2.5zM5 294.501h1879.408V189.915c0-21.701-17.655-39.356-39.356-39.356H44.356C22.655 150.559 5 168.214 5 189.915z"/><path d="M1845.052 1735.788H44.356C19.898 1735.788 0 1715.89 0 1691.432V189.915c0-24.458 19.898-44.356 44.356-44.356h1800.696c24.458 0 44.356 19.898 44.356 44.356v1501.517c0 24.458-19.898 44.355-44.356 44.355zM44.356 150.559C22.655 150.559 5 168.214 5 189.915v1501.517c0 21.701 17.655 39.355 39.356 39.355h1800.696c21.701 0 39.356-17.654 39.356-39.355V189.915c0-21.701-17.655-39.356-39.356-39.356z"/><g fill="#cad5f3"><rect height="317.331" rx="41.856" transform="matrix(-1 -0 0 -1 1512.542 2780.074)" width="317.331" x="597.606" y="1231.372"/><rect height="317.331" rx="41.856" transform="matrix(-1 -0 0 -1 762.757 2780.074)" width="317.331" x="222.713" y="1231.372"/><rect height="317.331" rx="41.856" transform="matrix(-1 -0 0 -1 3016.058 1280.505)" width="317.331" x="1349.363" y="481.587"/></g><path d="M1624.839 801.418H1391.22c-24.458 0-44.356-19.898-44.356-44.356V523.443c0-24.458 19.898-44.356 44.356-44.356h233.619c24.458 0 44.355 19.898 44.355 44.356v233.619c0 24.458-19.897 44.356-44.355 44.356zM1391.22 484.087c-21.701 0-39.356 17.655-39.356 39.356v233.619c0 21.701 17.655 39.356 39.356 39.356h233.619c21.7 0 39.355-17.655 39.355-39.356V523.443c0-21.701-17.655-39.356-39.355-39.356zm233.619 692.223H1391.22c-24.458 0-44.356-19.898-44.356-44.356V898.335c0-24.458 19.898-44.356 44.356-44.356h233.619c24.458 0 44.355 19.898 44.355 44.356v233.619c0 24.458-19.897 44.356-44.355 44.356zM1391.22 858.979c-21.701 0-39.356 17.655-39.356 39.356v233.619c0 21.701 17.655 39.356 39.356 39.356h233.619c21.7 0 39.355-17.655 39.355-39.356V898.335c0-21.701-17.655-39.356-39.355-39.356zm233.619 692.224H1391.22c-24.458 0-44.356-19.898-44.356-44.356v-233.618c0-24.458 19.898-44.356 44.356-44.356h233.619c24.458 0 44.355 19.898 44.355 44.356v233.618c0 24.458-19.897 44.356-44.355 44.356zm-233.619-317.331c-21.701 0-39.356 17.655-39.356 39.356v233.618c0 21.701 17.655 39.356 39.356 39.356h233.619c21.7 0 39.355-17.655 39.355-39.356v-233.618c0-21.701-17.655-39.356-39.355-39.356zm-141.274-432.454h-233.619c-24.458 0-44.355-19.898-44.355-44.356V523.443c0-24.458 19.897-44.356 44.355-44.356h233.619c24.458 0 44.355 19.898 44.355 44.356v233.619c0 24.458-19.897 44.356-44.355 44.356zm-233.619-317.331c-21.7 0-39.355 17.655-39.355 39.356v233.619c0 21.701 17.655 39.356 39.355 39.356h233.619c21.7 0 39.355-17.655 39.355-39.356V523.443c0-21.701-17.655-39.356-39.355-39.356zm233.619 692.223h-233.619c-24.458 0-44.355-19.898-44.355-44.356V898.335c0-24.458 19.897-44.356 44.355-44.356h233.619c24.458 0 44.355 19.898 44.355 44.356v233.619c0 24.458-19.897 44.356-44.355 44.356zm-233.619-317.331c-21.7 0-39.355 17.655-39.355 39.356v233.619c0 21.701 17.655 39.356 39.355 39.356h233.619c21.7 0 39.355-17.655 39.355-39.356V898.335c0-21.701-17.655-39.356-39.355-39.356zm233.619 692.224h-233.619c-24.458 0-44.355-19.898-44.355-44.356v-233.618c0-24.458 19.897-44.356 44.355-44.356h233.619c24.458 0 44.355 19.898 44.355 44.356v233.618c0 24.458-19.897 44.356-44.355 44.356zm-233.619-317.331c-21.7 0-39.355 17.655-39.355 39.356v233.618c0 21.701 17.655 39.356 39.355 39.356h233.619c21.7 0 39.355-17.655 39.355-39.356v-233.618c0-21.701-17.655-39.356-39.355-39.356zM873.081 801.418H639.462c-24.458 0-44.356-19.898-44.356-44.356V523.443c0-24.458 19.898-44.356 44.356-44.356h233.619c24.458 0 44.355 19.898 44.355 44.356v233.619c0 24.458-19.897 44.356-44.355 44.356zM639.462 484.087c-21.701 0-39.356 17.655-39.356 39.356v233.619c0 21.701 17.655 39.356 39.356 39.356h233.619c21.7 0 39.355-17.655 39.355-39.356V523.443c0-21.701-17.655-39.356-39.355-39.356zm233.619 692.223H639.462c-24.458 0-44.356-19.898-44.356-44.356V898.335c0-24.458 19.898-44.356 44.356-44.356h233.619c24.458 0 44.355 19.898 44.355 44.356v233.619c0 24.458-19.897 44.356-44.355 44.356zM639.462 858.979c-21.701 0-39.356 17.655-39.356 39.356v233.619c0 21.701 17.655 39.356 39.356 39.356h233.619c21.7 0 39.355-17.655 39.355-39.356V898.335c0-21.701-17.655-39.356-39.355-39.356zm233.619 692.224H639.462c-24.458 0-44.356-19.898-44.356-44.356v-233.618c0-24.458 19.898-44.356 44.356-44.356h233.619c24.458 0 44.355 19.898 44.355 44.356v233.618c0 24.458-19.897 44.356-44.355 44.356zm-233.619-317.331c-21.701 0-39.356 17.655-39.356 39.356v233.618c0 21.701 17.655 39.356 39.356 39.356h233.619c21.7 0 39.355-17.655 39.355-39.356v-233.618c0-21.701-17.655-39.356-39.355-39.356zM498.188 801.418H264.569c-24.458 0-44.355-19.898-44.355-44.356V523.443c0-24.458 19.897-44.356 44.355-44.356h233.619c24.458 0 44.355 19.898 44.355 44.356v233.619c0 24.458-19.897 44.356-44.355 44.356zM264.569 484.087c-21.7 0-39.355 17.655-39.355 39.356v233.619c0 21.701 17.655 39.356 39.355 39.356h233.619c21.7 0 39.355-17.655 39.355-39.356V523.443c0-21.701-17.655-39.356-39.355-39.356zm233.619 692.223H264.569c-24.458 0-44.355-19.898-44.355-44.356V898.335c0-24.458 19.897-44.356 44.355-44.356h233.619c24.458 0 44.355 19.898 44.355 44.356v233.619c0 24.458-19.897 44.356-44.355 44.356zM264.569 858.979c-21.7 0-39.355 17.655-39.355 39.356v233.619c0 21.701 17.655 39.356 39.355 39.356h233.619c21.7 0 39.355-17.655 39.355-39.356V898.335c0-21.701-17.655-39.356-39.355-39.356zm233.619 692.224H264.569c-24.458 0-44.355-19.898-44.355-44.356v-233.618c0-24.458 19.897-44.356 44.355-44.356h233.619c24.458 0 44.355 19.898 44.355 44.356v233.618c0 24.458-19.897 44.356-44.355 44.356zm-233.619-317.331c-21.7 0-39.355 17.655-39.355 39.356v233.618c0 21.701 17.655 39.356 39.355 39.356h233.619c21.7 0 39.355-17.655 39.355-39.356v-233.618c0-21.701-17.655-39.356-39.355-39.356z"/><path d="M1845.318 1735.788H44.089c-24.311 0-44.089-19.779-44.089-44.089V297.001a2.5 2.5 0 0 1 2.5-2.5h1884.408a2.5 2.5 0 0 1 2.5 2.5v1394.698c0 24.311-19.778 44.089-44.09 44.089zM5 299.501v1392.198c0 21.554 17.535 39.089 39.089 39.089h1801.229c21.555 0 39.09-17.535 39.09-39.089V299.501z"/><rect fill="#cad5f3" height="242.715" rx="27.959" width="55.919" x="1626.13" y="2.5"/><path d="M1654.09 247.715c-16.795 0-30.459-13.664-30.459-30.459V30.459c0-16.795 13.664-30.459 30.459-30.459s30.46 13.664 30.46 30.459v186.796c0 16.795-13.664 30.459-30.46 30.459zm0-242.715c-14.038 0-25.459 11.421-25.459 25.459v186.796c0 14.039 11.421 25.459 25.459 25.459s25.46-11.421 25.46-25.459V30.459C1679.55 16.42 1668.129 5 1654.09 5z"/><rect fill="#cad5f3" height="242.715" rx="27.959" width="55.919" x="1153.24" y="2.5"/><path d="M1181.199 247.715c-16.795 0-30.459-13.664-30.459-30.459V30.459c0-16.795 13.664-30.459 30.459-30.459s30.46 13.664 30.46 30.459v186.796c0 16.795-13.664 30.459-30.46 30.459zm0-242.715c-14.038 0-25.459 11.421-25.459 25.459v186.796c0 14.039 11.421 25.459 25.459 25.459s25.46-11.421 25.46-25.459V30.459c0-14.039-11.421-25.459-25.46-25.459z"/><rect fill="#cad5f3" height="242.715" rx="27.959" width="55.919" x="680.349" y="2.5"/><path d="M708.309 247.715c-16.795 0-30.459-13.664-30.459-30.459V30.459C677.85 13.664 691.514 0 708.309 0s30.46 13.664 30.46 30.459v186.796c0 16.795-13.664 30.459-30.46 30.459zm0-242.715c-14.038 0-25.459 11.421-25.459 25.459v186.796c0 14.039 11.421 25.459 25.459 25.459s25.46-11.421 25.46-25.459V30.459C733.769 16.42 722.348 5 708.309 5z"/><rect fill="#cad5f3" height="242.715" rx="27.959" width="55.919" x="207.459" y="2.5"/><path d="M235.418 247.715c-16.795 0-30.459-13.664-30.459-30.459V30.459C204.959 13.664 218.623 0 235.418 0s30.46 13.664 30.46 30.459v186.796c0 16.795-13.664 30.459-30.46 30.459zm0-242.715c-14.038 0-25.459 11.421-25.459 25.459v186.796c0 14.039 11.421 25.459 25.459 25.459s25.46-11.421 25.46-25.459V30.459C260.878 16.42 249.457 5 235.418 5z"/></svg></g><g transform="translate(1072.0 1564.0) rotate(0.0 196.0 195.5) scale(0.9984590109652195 0.9997622048975563)"><svg width="392.605" height="391.093" viewBox="0 0 392.605 391.093"><g fill="#ef4910"><path d="M370.104 391.093a22.428 22.428 0 0 1-15.875-6.556L6.625 38.444c-8.806-8.768-8.837-23.014-.069-31.819 8.766-8.806 23.013-8.838 31.819-.069l347.604 346.093c8.806 8.768 8.837 23.014.069 31.819a22.431 22.431 0 0 1-15.944 6.625z"/><path d="M22.5 391.093a22.427 22.427 0 0 1-15.944-6.625c-8.768-8.806-8.736-23.052.069-31.819L354.229 6.555c8.804-8.767 23.051-8.738 31.819.069 8.768 8.806 8.736 23.052-.069 31.819L38.375 384.538a22.43 22.43 0 0 1-15.875 6.556z"/></g></svg></g><g transform="translate(1845.0 264.0) rotate(0.0 571.5 1111.0) scale(1.0009387632144933 1.001173292193011)"><svg width="1141.928" height="2219.396" viewBox="0 0 1141.928 2219.396"><path d="M980.408 600.782c-63.945 33.279-58.949 115.542-92.424 149.282-31.584 31.834-55.62 80.057-32.566 118.226 15.422 24.411 46.723 24.741 53.021 30.529 0 0 16.702 34.663 52.598 42.229 35.897 7.566 75.242-3.993 101.129-62.721 12.035-27.302 18.079-92.222 40.96-123.225 35.45-48.034 45.804-149.22 27.217-210.061l-149.936 55.741z" fill="#ffaac3"/><path d="M980.271 945.627c-6.914 0-13.561-.829-19.749-2.133-34.734-7.321-51.78-38.56-54.086-43.09-1.752-1.295-5.981-2.536-10.442-3.845-12.549-3.681-31.513-9.245-42.688-26.934-24.438-40.458 2.457-90.634 32.904-121.323 12.713-12.814 19.895-33.396 27.498-55.187 12.079-34.616 25.77-73.851 65.546-94.552a2.5 2.5 0 1 1 2.309 4.435c-38.018 19.786-51.36 58.025-63.133 91.763-7.796 22.341-15.159 43.443-28.671 57.062-29.18 29.411-55.122 77.223-32.2 115.173 10.142 16.05 28.016 21.294 39.843 24.764 6.015 1.764 10.361 3.04 12.729 5.216.232.213.423.47.56.754.163.336 16.638 33.656 50.863 40.87 29.767 6.275 70.988.736 98.325-61.283 4.416-10.017 8.128-25.709 12.058-42.323 6.827-28.863 14.565-61.577 29.179-81.378 36.565-49.545 44.328-150.596 26.839-207.846a2.5 2.5 0 1 1 4.781-1.461c9.169 30.014 11.628 70.422 6.746 110.863-5.107 42.31-17.304 78.326-34.343 101.413-14.007 18.978-21.619 51.164-28.336 79.561-3.984 16.843-7.747 32.752-12.349 43.188-23.066 52.331-55.82 66.289-84.183 66.292z"/><path d="M940.797 914.266a2.487 2.487 0 0 1-1.55-.54c-2.561-2.027-15.364-8.338-33.359-13.74a2.501 2.501 0 0 1-1.676-3.113 2.503 2.503 0 0 1 3.113-1.676c17.419 5.229 31.533 11.844 35.025 14.609a2.499 2.499 0 0 1-1.554 4.46z"/><path d="M373.213 233.515c-94.041-35.033-148.109 6.061-162.347 68.962-17.657 78.005 7.865 182.374 103.079 242.563-4.534 102.444 122.766 199.537 356.914 145.523 152.014-35.067 366.748-250.057 37.027-395.857-24.559-48.74-57.997-124.873-121.75-145.543-54.326-17.613-126.574-1.616-212.923 84.351z" fill="#ef4910"/><path d="M544.415 707.968c-21.509 0-42.05-1.498-61.554-4.5-48.933-7.529-90.626-24.817-120.573-49.994-34.187-28.74-52.222-66.724-50.897-107.095-95.501-61.125-120.569-166.678-102.964-244.454 7.509-33.169 24.97-57.999 50.496-71.804 29.645-16.033 68.92-15.854 113.66.497 38.574-38.176 77.037-64.632 114.339-78.643 33.7-12.658 65.545-14.954 94.644-6.825 61.149 17.083 91.856 77.14 116.53 125.397 4.013 7.848 7.811 15.276 11.579 22.217 153.121 67.681 178.904 146.292 173.533 200.36-4.37 43.996-31.397 89.723-76.103 128.758-39.535 34.521-90.268 61.109-135.709 71.124-45.221 9.965-87.71 14.961-126.981 14.962zm-234.91-484.746c-18.048 0-34.272 3.764-48.203 11.298-24.22 13.099-40.817 36.789-47.998 68.509-17.292 76.392 7.534 180.196 101.977 239.898a2.499 2.499 0 0 1 1.161 2.224c-1.74 39.324 15.685 76.435 49.063 104.496 63.278 53.196 174.377 67.22 304.815 38.476 44.66-9.842 94.565-36.013 133.497-70.007 43.743-38.195 70.171-82.761 74.415-125.486 7.481-75.308-51.772-142.958-171.354-195.634a2.5 2.5 0 0 1-1.187-1.091c-3.935-7.212-7.876-14.92-12.048-23.081-24.229-47.388-54.384-106.364-113.424-122.858-60.188-16.814-133.085 13.484-205.243 85.321-.69.688-1.72.914-2.637.571-22.605-8.422-43.741-12.636-62.835-12.636z"/><path d="M523.608 568.683c-72.487-105.792-150.053-34.534-297.63-46.017C78.506 511.191 30.987 556.703 12.94 586.924c-15.367 25.734-17.238 73.105 18.43 109.007 90.121 90.712 403.845-21.283 466.441 8.442z" fill="#ffaac3"/><path d="M839.464 806.723c28.964 7.996 106.348 40.219 115.19 47.421 37.216 30.316 41.939 81.029 14.811 99.581-33.745 23.077-110.636 5.654-165.678-85.659-5.46-9.057 6.713-69.339 35.677-61.343z" fill="#fbb348"/><path d="M936.054 965.45c-6.539 0-13.432-.767-20.559-2.317-41.929-9.124-83.426-43.304-113.85-93.776-4.388-7.278.574-38.108 12.978-54.462 7.229-9.533 16.05-13.193 25.506-10.581 28.358 7.829 106.484 40.056 116.104 47.892 21.338 17.381 33.966 43.139 32.957 67.22-.663 15.827-7.167 28.741-18.313 36.363-9.346 6.392-21.325 9.662-34.822 9.662zM834.312 808.503c-5.689 0-10.956 3.151-15.705 9.413-11.8 15.558-15.537 44.118-12.679 48.86 29.717 49.299 70.04 82.64 110.631 91.472 20.182 4.391 38.952 1.991 51.495-6.585 9.813-6.711 15.545-18.233 16.141-32.445.944-22.537-10.98-46.729-31.12-63.134-8.309-6.769-84.815-38.816-114.275-46.95-1.522-.42-3.02-.63-4.487-.63z"/><path d="M805.338 877.077c-4.585-7.212-14.936-23.306-4.156-38.797s34.973-2.057 41.692 2.963 23.673 15.928 43.629 43.216c19.551 26.735-25.52 47.326-38.105 38.982-12.584-8.344-38.475-39.153-43.06-46.365z" fill="#fbb348"/><path d="M856.229 927.833c-3.627 0-6.833-.73-9.213-2.308-12.889-8.545-39.065-39.679-43.788-47.107l-.079-.124c-4.694-7.383-15.688-24.674-4.02-41.442 3.09-4.441 7.382-7.134 12.756-8.004 12.071-1.957 26.527 5.942 32.484 10.392.646.482 1.388 1.02 2.218 1.622 7.689 5.574 23.688 17.173 41.933 42.122 7.702 10.532 6.964 21.971-2.025 31.382-7.87 8.241-20.567 13.467-30.266 13.467zm-40.338-94.297c-1.087 0-2.159.078-3.206.248-4.042.655-7.133 2.593-9.452 5.925-9.768 14.037-.377 28.806 4.136 35.903l.078.124c4.452 7.002 30.186 37.569 42.333 45.623 6.052 4.012 23.522-.419 33.1-10.446 5.134-5.375 9.58-14.072 1.605-24.978-17.781-24.313-33.35-35.6-40.832-41.024-.853-.618-1.613-1.17-2.275-1.665-3.899-2.913-15.346-9.71-25.486-9.71zm-655.42-98.937c-55.246 0-103.253-9.103-130.874-36.905C8.568 676.527 2.184 653.483.532 637.879c-2.004-18.919 1.736-37.958 10.262-52.236 12.635-21.157 32.539-37.572 59.16-48.787 38.34-16.152 90.9-21.761 156.219-16.682 50.452 3.927 92.425-1.835 129.455-6.918 70.592-9.69 121.596-16.692 170.043 54.015a2.502 2.502 0 0 1-.649 3.476 2.502 2.502 0 0 1-3.476-.649c-46.701-68.158-93.858-61.684-165.238-51.887-37.28 5.117-79.534 10.917-130.523 6.95-64.514-5.02-116.292.466-153.889 16.304-25.619 10.793-44.731 26.52-56.809 46.743-7.981 13.367-11.475 31.28-9.583 49.146 1.568 14.806 7.636 36.682 27.641 56.817 54.967 55.329 196.445 33.716 310.125 16.35 70.363-10.75 131.13-20.032 155.614-8.405a2.5 2.5 0 1 1-2.144 4.517c-23.103-10.97-83.166-1.794-152.714 8.831-58.934 9.003-125.271 19.137-183.554 19.137z"/><path d="M304.792 1471.568c1.051 137.951 183.994 534.699 183.994 534.699 84.254 164.773 335.714-13.951 335.714-13.951-47.924-182.136-158.176-440.548-254.9-548.914 95.185-132.833 146.582-224.819 196.837-327.793 89.154-182.68 57.34-353.783-179.107-386.143 0 0-284.084 539.002-282.537 742.103z" fill="#6f5490"/><path d="M604.985 2078.495c-12.608 0-25.01-1.276-36.911-4.19-35.882-8.785-63.308-31.293-81.514-66.898-.016-.03-.03-.062-.045-.092-.457-.992-46.29-100.584-91.658-215.749-60.979-154.793-92.123-262.456-92.564-319.978-.354-46.604 14.322-114.716 43.623-202.448 23.395-70.05 56.124-152.748 97.279-245.797C513.247 864.959 584.408 729.648 585.118 728.3a2.502 2.502 0 0 1 2.551-1.312c51.565 7.058 95.268 21.015 129.894 41.486 32.779 19.378 57.678 44.709 74.004 75.289 19.05 35.683 26.378 78.098 21.782 126.067-4.379 45.704-19.407 95.119-44.665 146.875-50.021 102.495-100.3 192.97-195.89 326.529 44.475 50.409 95.848 137.624 144.834 245.931 45.114 99.745 84.949 210.007 109.29 302.515a2.501 2.501 0 0 1-.97 2.674c-.374.266-37.975 26.844-88.188 49.842-36.622 16.772-86.074 34.299-132.774 34.3zm-113.95-73.32c17.515 34.227 43.831 55.85 78.221 64.271 54.566 13.364 120.573-8.808 166.339-29.76 44.354-20.305 78.777-43.422 86.042-48.425-47.425-179.246-157.692-438.405-253.902-546.195a2.5 2.5 0 0 1-.167-3.121c96.142-134.167 146.513-224.757 196.622-327.434 51.201-104.912 59.356-200.229 22.966-268.394-32.974-61.763-99.724-100.09-198.428-113.935-8.103 15.484-75.028 144.112-140.972 293.208-92.521 209.192-141.093 363.47-140.463 446.158.427 56.099 32.312 166.117 92.208 318.162 44.935 114.067 90.327 212.842 91.534 215.464z"/><path d="M824.5 1994.304s60.975 101.73-.025 222.302l-457.446.102s-92.263-100.173 63.803-189.329c98.314-56.164 196.553 19.102 242.844 23.912 24.711 2.568 127.488-33.796 150.824-56.987z" fill="#fff"/><path d="M842.207 2171.675s-3.731 23.712-17.732 44.931l-457.446.102s-15.401-18.008-23.117-46.6l498.295 1.568z" fill="#92acef"/><path d="M367.03 2219.208a2.5 2.5 0 0 1-1.901-.875c-.644-.753-15.857-18.769-23.631-47.574a2.5 2.5 0 0 1 2.414-3.152h.008l498.296 1.567a2.498 2.498 0 0 1 2.462 2.889c-.156.99-3.979 24.494-18.115 45.919a2.5 2.5 0 0 1-2.086 1.123l-457.446.103zm-19.807-46.59c6.701 22.486 18.063 37.86 20.998 41.59l454.896-.103c10.196-15.938 14.626-33.234 16.06-39.94z"/><path d="M478.522 2217.204h-.008a2.5 2.5 0 0 1-2.492-2.508l.138-43.944a2.5 2.5 0 0 1 2.5-2.492h.008a2.5 2.5 0 0 1 2.492 2.508l-.138 43.944a2.5 2.5 0 0 1-2.5 2.492zm-55.036-.402h-.008a2.5 2.5 0 0 1-2.492-2.508l.138-43.944a2.5 2.5 0 0 1 2.5-2.492h.008a2.5 2.5 0 0 1 2.492 2.508l-.138 43.944a2.5 2.5 0 0 1-2.5 2.492z"/><path d="M367.03 2219.208a2.5 2.5 0 0 1-1.84-.807c-1.4-1.521-34.216-37.808-26.618-86.837 6.132-39.573 36.756-75.356 91.02-106.356 72.377-41.345 143.955-12.797 196.221 8.049 19.188 7.653 35.761 14.263 48.122 15.547 24.264 2.512 126.332-33.942 148.803-56.273a2.472 2.472 0 0 1 2.072-.707 2.502 2.502 0 0 1 1.835 1.195c.632 1.054 15.561 26.281 23.175 66.76 7.022 37.336 8.714 95.047-23.113 157.956a2.497 2.497 0 0 1-2.229 1.371l-457.446.103zm142.258-210.059c-25.098 0-51.152 5.511-77.216 20.4-52.849 30.19-82.642 64.752-88.55 102.723-6.652 42.751 19.931 76.37 24.645 81.936l454.767-.103c30.437-61.039 28.798-116.942 22.011-153.198-6.038-32.25-17.095-55.078-21.096-62.616-27.624 23.609-125.573 58.092-150.432 55.485-13.052-1.355-29.922-8.084-49.457-15.875-32.288-12.878-72.093-28.752-114.672-28.752z"/><path d="M842.208 2174.175h-.008l-498.296-1.567a2.5 2.5 0 0 1 .008-5h.008l498.296 1.567a2.5 2.5 0 0 1-.008 5zM517.186 2066.28a2.499 2.499 0 0 1-2.482-2.229c-3.112-28.551-54.616-46.608-55.136-46.787a2.5 2.5 0 0 1 1.627-4.729c2.245.772 55.024 19.276 58.479 50.975a2.501 2.501 0 0 1-2.488 2.771zm-36.452 17.984a2.499 2.499 0 0 1-2.482-2.229c-3.113-28.552-54.616-46.609-55.136-46.788a2.5 2.5 0 0 1 1.627-4.729c2.245.772 55.023 19.276 58.479 50.974a2.501 2.501 0 0 1-2.488 2.772zm-33.971 23.762a2.499 2.499 0 0 1-2.482-2.229c-3.113-28.552-54.616-46.609-55.136-46.788a2.5 2.5 0 0 1 1.627-4.729c2.245.772 55.023 19.276 58.479 50.974a2.501 2.501 0 0 1-2.488 2.772z"/><path d="M715.989 2217.723h-.008a2.5 2.5 0 0 1-2.492-2.508l.139-43.945a2.5 2.5 0 0 1 2.5-2.492h.008a2.5 2.5 0 0 1 2.492 2.508l-.139 43.945a2.5 2.5 0 0 1-2.5 2.492zm-76.133 1.673h-.008a2.5 2.5 0 0 1-2.492-2.508l.138-43.944a2.5 2.5 0 0 1 2.5-2.492h.008a2.5 2.5 0 0 1 2.492 2.508l-.138 43.944a2.5 2.5 0 0 1-2.5 2.492zm135.615-1.5h-.008a2.5 2.5 0 0 1-2.492-2.508l.138-43.945a2.5 2.5 0 0 1 2.5-2.492h.008a2.5 2.5 0 0 1 2.492 2.508l-.138 43.945a2.5 2.5 0 0 1-2.5 2.492zm33.29.403h-.008a2.5 2.5 0 0 1-2.492-2.508l.138-43.945a2.5 2.5 0 0 1 2.5-2.492h.008a2.5 2.5 0 0 1 2.492 2.508l-.138 43.945a2.5 2.5 0 0 1-2.5 2.492zm-185.826-.869h-.008a2.5 2.5 0 0 1-2.492-2.508l.138-43.945a2.5 2.5 0 0 1 2.5-2.492h.008a2.5 2.5 0 0 1 2.492 2.508l-.138 43.945a2.5 2.5 0 0 1-2.5 2.492zm-69.791-.22h-.008a2.5 2.5 0 0 1-2.492-2.508l.139-43.945a2.5 2.5 0 0 1 2.5-2.492h.008a2.5 2.5 0 0 1 2.492 2.508l-.139 43.945a2.5 2.5 0 0 1-2.5 2.492zm-162.844-.512h-.008a2.5 2.5 0 0 1-2.492-2.508l.139-43.944a2.5 2.5 0 0 1 2.5-2.492h.008a2.5 2.5 0 0 1 2.492 2.508l-.139 43.944a2.5 2.5 0 0 1-2.5 2.492z"/><path d="M651.888 726.575c124.315-14.796 345.416 114.618 319.723 373.15-11.466 115.38-64.457 363.481-64.457 363.481 82.018 212.537 75.511 529.213 75.511 529.213-98.208 137.176-330.778 20.967-330.778 20.967V1004.78" fill="#6f5490"/><path d="M836.531 2061.839c-17.789 0-36.66-1.677-56.498-5.03-69.977-11.831-128.678-40.895-129.262-41.187a2.5 2.5 0 0 1-1.383-2.236V1004.78a2.5 2.5 0 1 1 5 0v1007.041c9.22 4.414 63.246 29.386 126.586 40.076 63.317 10.688 149.181 8.866 199.206-60.303.134-8.472 1.062-85.028-7.009-183.934-7.858-96.291-26.095-234.059-68.349-343.554a2.496 2.496 0 0 1-.112-1.423c.529-2.479 53.092-249.285 64.413-363.206 13.945-140.317-44.669-230.129-96.296-280.764-63.042-61.83-151.716-97.854-220.644-89.657a2.494 2.494 0 0 1-2.778-2.187 2.5 2.5 0 0 1 2.187-2.778c32.743-3.896 72.134 2.237 110.929 17.27 41.724 16.168 81.077 41.682 113.808 73.783 34.706 34.039 60.891 74.08 77.825 119.009 19.126 50.746 25.837 106.535 19.946 165.818-11.044 111.117-61.161 348.039-64.346 363.028 42.287 109.957 60.537 247.874 68.404 344.311 8.538 104.652 7.023 184.367 7.007 185.16-.01.504-.173.993-.466 1.403-22.764 31.796-54.583 52.697-94.575 62.125-16.513 3.893-34.425 5.84-53.594 5.84zM393.585 243.02c-.315 0-.635-.06-.945-.187-11.543-4.718-19.958-6.874-20.042-6.895a2.5 2.5 0 0 1 1.23-4.847c.354.09 8.84 2.264 20.704 7.113a2.5 2.5 0 0 1-.947 4.815z"/><path d="M982.666 1994.406s60.899 101.776-.191 222.302l-457.446-.24s-92.188-100.242 63.944-189.281c98.356-56.09 196.539 19.248 242.826 24.093 24.709 2.586 127.513-33.701 150.866-56.874z" fill="#fff"/><path d="M1000.241 2171.79s-3.749 23.709-17.766 44.918l-457.446-.24s-16.337-18.02-24.032-46.618z" fill="#92acef"/><path d="m982.475 2219.208-457.446-.24a2.504 2.504 0 0 1-1.852-.821c-.684-.754-16.831-18.798-24.593-47.646a2.501 2.501 0 0 1 2.414-3.15h.01l499.244 1.939a2.502 2.502 0 0 1 2.46 2.891c-.157.99-3.997 24.49-18.15 45.906a2.502 2.502 0 0 1-2.086 1.121zm-456.297-5.239 454.941.238c10.228-15.957 14.658-33.229 16.092-39.929l-492.9-1.915c6.767 22.57 18.837 37.976 21.867 41.605z"/><path d="M674.546 2217.397h-.01a2.5 2.5 0 0 1-2.49-2.51l.173-44.374a2.5 2.5 0 0 1 2.5-2.49h.01a2.5 2.5 0 0 1 2.49 2.51l-.173 44.374a2.5 2.5 0 0 1-2.5 2.49zm-60.685-.184h-.01a2.5 2.5 0 0 1-2.49-2.51l.173-44.374a2.5 2.5 0 0 1 2.5-2.49h.01a2.5 2.5 0 0 1 2.49 2.51l-.173 44.374a2.5 2.5 0 0 1-2.5 2.49z"/><path d="m982.475 2219.208-457.446-.24a2.497 2.497 0 0 1-1.839-.808c-1.399-1.521-34.188-37.833-26.554-86.856 6.162-39.569 36.812-75.33 91.1-106.289 72.403-41.29 143.964-12.688 196.215 8.195 19.183 7.668 35.749 14.289 48.109 15.583 24.278 2.553 126.361-33.85 148.847-56.162a2.503 2.503 0 0 1 3.906.491c.631 1.054 15.541 26.293 23.125 66.777 6.994 37.341 8.642 95.054-23.232 157.938a2.499 2.499 0 0 1-2.229 1.37zm-456.307-5.239 454.767.238c30.482-61.017 28.886-116.922 22.125-153.183-6.014-32.255-17.053-55.092-21.048-62.633-27.641 23.588-125.626 57.979-150.473 55.374-13.052-1.365-29.917-8.106-49.446-15.912-51.305-20.507-121.57-48.591-191.882-8.495-52.871 30.151-82.689 64.69-88.627 102.657-6.684 42.745 19.874 76.385 24.584 81.953z"/><path d="M1000.242 2174.29h-.01l-498.294-1.939a2.5 2.5 0 0 1 .01-5h.01l498.294 1.939a2.5 2.5 0 0 1-.01 5z"/><path d="M594.835 2217.086h-.01a2.5 2.5 0 0 1-2.49-2.51l.173-44.374a2.5 2.5 0 0 1 2.5-2.49h.01a2.5 2.5 0 0 1 2.49 2.51l-.173 44.374a2.5 2.5 0 0 1-2.5 2.49zm80.466-150.934a2.499 2.499 0 0 1-2.482-2.23c-3.092-28.554-54.582-46.649-55.102-46.829a2.5 2.5 0 0 1 1.63-4.727c2.245.773 55.011 19.317 58.442 51.017a2.501 2.501 0 0 1-2.488 2.77zm-36.465 17.957a2.499 2.499 0 0 1-2.482-2.23c-3.093-28.554-54.582-46.649-55.102-46.829a2.5 2.5 0 0 1 1.63-4.727c2.245.773 55.01 19.317 58.442 51.017a2.501 2.501 0 0 1-2.488 2.77zm-33.989 23.737a2.499 2.499 0 0 1-2.482-2.23c-3.093-28.554-54.582-46.65-55.102-46.83a2.5 2.5 0 0 1 1.63-4.727c2.245.773 55.01 19.317 58.442 51.018a2.501 2.501 0 0 1-2.488 2.77zm269.149 110.327h-.01a2.5 2.5 0 0 1-2.49-2.51l.172-44.374a2.5 2.5 0 0 1 2.5-2.49h.01a2.5 2.5 0 0 1 2.49 2.51l-.172 44.374a2.5 2.5 0 0 1-2.5 2.49zm-33.131-.006h-.01a2.5 2.5 0 0 1-2.49-2.51l.173-44.374a2.5 2.5 0 0 1 2.5-2.49h.01a2.5 2.5 0 0 1 2.49 2.51l-.173 44.374a2.5 2.5 0 0 1-2.5 2.49zm-41.004-.007h-.01a2.5 2.5 0 0 1-2.49-2.51l.172-44.373a2.5 2.5 0 0 1 2.5-2.49h.01a2.5 2.5 0 0 1 2.49 2.51l-.172 44.373a2.5 2.5 0 0 1-2.5 2.49zm-18.92-.349h-.01a2.5 2.5 0 0 1-2.49-2.51l.173-44.374a2.5 2.5 0 0 1 2.5-2.49h.01a2.5 2.5 0 0 1 2.49 2.51l-.173 44.374a2.5 2.5 0 0 1-2.5 2.49zm162.968.843h-.01a2.5 2.5 0 0 1-2.49-2.51l.172-44.374a2.5 2.5 0 0 1 2.5-2.49h.01a2.5 2.5 0 0 1 2.49 2.51l-.172 44.374a2.5 2.5 0 0 1-2.5 2.49zm-232.758-1.115h-.01a2.5 2.5 0 0 1-2.49-2.51l.173-44.374a2.5 2.5 0 0 1 2.5-2.49h.01a2.5 2.5 0 0 1 2.49 2.51l-.173 44.374a2.5 2.5 0 0 1-2.5 2.49zm-162.844-.633h-.01a2.5 2.5 0 0 1-2.49-2.51l.173-44.374a2.5 2.5 0 0 1 2.5-2.49h.01a2.5 2.5 0 0 1 2.49 2.51l-.173 44.374a2.5 2.5 0 0 1-2.5 2.49z"/><path d="M520.257 471.816s-78.086 19.549-51.636 104.4c18.336 60.256 5.849 78.389 17.566 129.877 19.928 87.569 88.338 101.896 124.776 99.796 134.274-7.754 257.496-148.575 25.631-317.085 0 0-24.168-69.309-116.336-16.987z" fill="#ffaac3"/><path d="M604.357 808.046c-14.086 0-39.127-2.411-63.422-16.737-29.111-17.167-48.392-45.756-57.308-84.975-2.249-9.893-3.798-19.415-4.734-29.109a2.5 2.5 0 1 1 4.977-.481c.916 9.481 2.432 18.798 4.633 28.482 22.368 98.39 105.629 98.601 122.113 97.646 72.324-4.211 131.804-42.396 148.007-95.021 9.076-29.48 4.731-61.84-12.915-96.183-20.219-39.349-57.455-80.05-110.673-120.973a2.502 2.502 0 0 1-.837-1.159c-.077-.22-8.112-22.38-31.556-31.155-21.446-8.03-48.752-2.777-81.153 15.606a2.5 2.5 0 0 1-.624.25c-.314.08-31.65 8.254-46.892 35.449-10.01 17.862-11.023 39.954-3.013 65.664a2.5 2.5 0 0 1-1.643 3.13 2.498 2.498 0 0 1-3.131-1.643c-8.443-27.096-7.282-50.527 3.451-69.642 15.631-27.84 45.914-36.711 49.669-37.719 33.67-19.041 62.322-24.339 85.168-15.749 23.452 8.817 32.529 29.254 34.172 33.438 53.51 41.23 91.021 82.345 111.508 122.216 18.264 35.543 22.721 69.168 13.246 99.939-8.557 27.792-28.386 51.909-57.344 69.745-26.89 16.563-60.682 26.789-95.151 28.795-1.771.103-3.978.184-6.549.184z"/><path d="m542.017 423.589 31.987 62.164s-30.844 54.854-77.577 31.471l-30.802-56.914" fill="#fbb348"/><path d="M173.435 555.948c89.252 40.269 130.742 31.508 213.069 76.54 53.878 29.471 67.394 97.768 18.489 145.339-60.077 58.438-137.428 53.477-205.668 30.731-52.141-17.38-121.662-61.964-167.955-112.626l142.064-139.983z" fill="#ffaac3"/><path d="M519.495 525.495c-8.024 0-16.134-2.005-24.187-6.035a2.5 2.5 0 0 1-1.079-1.046l-30.802-56.915a2.5 2.5 0 0 1 4.397-2.38l30.423 56.214c18.19 8.819 35.998 6.456 52.937-7.032 10.801-8.6 17.835-19.201 19.962-22.64l-31.351-60.928a2.5 2.5 0 0 1 4.445-2.288l31.986 62.164a2.497 2.497 0 0 1-.044 2.369c-.324.578-8.108 14.266-21.885 25.235-11.097 8.835-22.855 13.281-34.803 13.282zM382.588 311.663a2.488 2.488 0 0 1-1.466-.477c-13.619-9.881-20.693-20.558-20.988-21.007a2.5 2.5 0 0 1 4.184-2.739c.066.101 6.907 10.388 19.74 19.7a2.5 2.5 0 0 1-1.469 4.524z"/><path d="M546.954 410.288s-5.602 49.998-61.073 74.23c-51.669 22.572-96.802-.462-116.687-45.222 0 0-37.836-5.808-39.096-22.849-1.25-17.046 31.692-6.021 31.692-6.021s-23.567-64.057 17.869-103.451c0 0 99.038 69.388 146.197 34.312 0 0 6.182-28.752 44.898-37.109 38.716-8.356 68.986 40.302 50.428 72.154-27.649 47.466-74.228 33.957-74.228 33.957z" fill="#fbb348"/><path d="M545.853 390.549h-.044a2.498 2.498 0 0 1-2.457-2.536c.021-1.339.903-33.188 35.798-67.077a2.5 2.5 0 1 1 3.484 3.587c-33.308 32.347-34.276 63.263-34.282 63.571a2.503 2.503 0 0 1-2.499 2.455z"/><path d="M574.761 374.553c-.816 0-1.617-.4-2.097-1.135-5.401-8.288-20.492-5.553-20.645-5.525a2.5 2.5 0 0 1-.935-4.912c.751-.144 18.531-3.395 25.769 7.707a2.5 2.5 0 0 1-2.092 3.865zM395.104 476.282a2.5 2.5 0 0 1-.798-4.869c.815-.277 19.942-7.06 17.927-30.692a2.5 2.5 0 0 1 4.982-.425c2.355 27.63-21.083 35.779-21.32 35.858a2.514 2.514 0 0 1-.791.129zm-3.488-89.508a5.502 5.502 0 0 0-7.137-3.09 5.491 5.491 0 0 0-3.086 7.129 5.492 5.492 0 0 0 7.126 3.095 5.502 5.502 0 0 0 3.097-7.134z"/><path d="M501.093 412.96c-6.77-17.132-26.15-25.532-43.278-18.764-17.138 6.772-25.531 26.146-18.761 43.279s26.14 25.536 43.278 18.764c17.126-6.768 25.532-26.146 18.761-43.279z" fill="#e79f33"/><path d="M446.369 495.81c-11.019 0-21.678-2.114-31.723-6.351-20.188-8.516-36.902-25.505-47.184-47.921-7.082-1.267-38.598-7.854-39.858-24.908-.367-5.003 1.81-7.804 3.701-9.273 6.421-4.989 19.56-2.52 26.667-.658-1.835-6.292-4.786-18.477-5.285-33.142-.957-28.131 7.774-51.782 25.249-68.396a2.499 2.499 0 0 1 3.157-.235c.97.68 97.097 67.257 142.562 34.869 1.484-5.319 10.291-30.231 46.571-38.062 18.051-3.894 35.989 3.645 47.986 20.171 12.661 17.443 14.675 39.3 5.129 55.685-14.77 25.354-34.921 33.563-49.225 35.984-11.307 1.915-20.688.639-25.123-.246-.881 4.623-3.331 14.542-9.572 26.17-7.791 14.516-23.23 34.507-52.54 47.311-13.725 5.996-27.374 9.001-40.513 9.001zm-103.993-86.374c-3.369 0-6.272.524-8.004 1.87-.871.677-2.003 1.928-1.781 4.957.912 12.334 27.005 19.024 36.982 20.561.841.13 1.56.678 1.904 1.456 20.806 46.83 66.381 64.489 113.402 43.946 53.412-23.333 59.534-71.734 59.59-72.221a2.504 2.504 0 0 1 3.181-2.119c.242.068 11.524 3.193 25.841.722 19.179-3.311 34.497-14.594 45.53-33.536 8.549-14.674 6.644-34.391-4.855-50.231-10.798-14.875-26.829-21.689-42.885-18.221-36.555 7.89-42.737 34.086-42.983 35.197a2.518 2.518 0 0 1-.95 1.474c-20.318 15.114-51.692 13.867-93.248-3.706-25.97-10.981-47.989-25.257-54.156-29.395-37.751 37.899-16.033 98.754-15.807 99.372a2.503 2.503 0 0 1-3.14 3.234c-4.964-1.658-12.549-3.36-18.621-3.36z"/><path d="M641.451 144.049c36.053-21.766 47.637-68.636 25.87-104.69S598.679-8.282 562.625 13.485c-36.053 21.767-47.632 68.645-25.866 104.699 21.767 36.054 68.638 47.632 104.692 25.865z" fill="#ef4910"/><path d="M577.755 152.817a2.497 2.497 0 0 1-2.497-2.617c2.072-44.51 21.217-77.697 36.912-97.7 17.006-21.674 33.31-32.686 33.995-33.144a2.502 2.502 0 0 1 3.789 1.378c13.697 46.989-6.479 80.403-25.815 100.159-20.796 21.247-44.421 31.31-45.416 31.728-.312.13-.641.195-.968.195zm68.35-127.232c-5.391 4.104-17.683 14.27-30.116 30.148-14.701 18.776-32.529 49.515-35.489 90.538 7.453-3.69 24.831-13.27 40.176-28.985 25.821-26.446 34.367-57.282 25.43-91.701z"/><path d="M576.656 151.665a2.496 2.496 0 0 1-2.078-1.108c-1.149-1.714-28.03-42.458-18.091-84.587 5.401-22.893 20.725-41.652 45.544-55.756a2.501 2.501 0 0 1 2.471 4.347c-23.562 13.389-38.079 31.072-43.148 52.558-9.443 40.028 17.108 80.253 17.377 80.655a2.5 2.5 0 0 1-2.075 3.893z"/><path d="M602.177 157.556a79.284 79.284 0 0 1-19.029-2.33c-20.422-5.045-37.656-17.742-48.529-35.75-22.446-37.179-10.462-85.687 26.714-108.131C598.507-11.099 647.015.888 669.462 38.067c22.442 37.175 10.457 85.678-26.719 108.122-12.443 7.513-26.395 11.367-40.565 11.367zm-.266-152.528c-12.974 0-26.102 3.417-37.995 10.597-34.815 21.02-46.038 66.447-25.017 101.267 10.182 16.865 26.321 28.755 45.447 33.48 19.121 4.723 38.944 1.718 55.812-8.463 34.815-21.019 46.04-66.443 25.021-101.258-13.84-22.924-38.264-35.623-63.269-35.623zm128.268 331.663a2.5 2.5 0 0 1-2.133-1.193c-.628-1.023-15.449-25.212-22.414-39.708a2.499 2.499 0 1 1 4.506-2.166c6.854 14.263 22.018 39.01 22.17 39.258a2.5 2.5 0 0 1-2.129 3.808zM287.421 826.895c-27.284.001-56.937-5.315-88.888-15.966-55.431-18.477-124.93-65.073-169.009-113.312a2.5 2.5 0 1 1 3.691-3.373c43.563 47.674 112.194 93.706 166.899 111.941 31.366 10.455 60.468 15.677 87.191 15.678 45.755.002 84.555-15.298 115.942-45.829 22.271-21.663 32.471-48.736 28.722-76.232-3.708-27.19-20.718-50.926-46.668-65.121-44.313-24.239-76.863-32.836-111.324-41.938-29.725-7.851-60.462-15.969-101.572-34.517a2.5 2.5 0 1 1 2.057-4.557c40.732 18.377 71.265 26.442 100.792 34.24 34.765 9.182 67.6 17.854 112.448 42.386 27.356 14.964 45.297 40.052 49.222 68.832 3.969 29.108-6.753 57.694-30.189 80.492-32.373 31.49-72.317 47.273-119.314 47.276z"/><path d="M447.467 850.769c-3.817-40.843-11.037-79.325-25.647-105.046-20.237-35.628-70.528-77.078-113.324-42.765-49.252 39.489-34.813 93.493-20.857 150.342 9.921 41.154 161.651 34.35 159.827-2.53z" fill="#fbb348"/><path d="M287.637 855.8a2.502 2.502 0 0 1-2.426-1.904l-.808-3.285c-13.895-56.506-27.019-109.878 22.529-149.604 14.298-11.464 30.3-15.601 47.564-12.295 29.311 5.613 56.024 32.058 69.496 55.777 12.928 22.761 21.421 57.449 25.963 106.048a2.5 2.5 0 0 1-4.979.465c-4.475-47.878-12.761-81.911-25.332-104.043-12.904-22.72-38.345-48.023-66.089-53.336-15.759-3.017-30.394.78-43.497 11.286-47.057 37.729-34.304 89.596-20.801 144.509l.808 3.286a2.5 2.5 0 0 1-2.43 3.097z"/><path d="M388.24 881.857c-.493 29.362-.843 52.31-11.931 77.637-16.61 37.939-30.387 67.03-6.243 77.696 9.632 4.255 23.778 1.828 38.184-19.497 6.853-10.144 28.599-47.342 34.319-68.251 8.578-31.359 7.804-70.827 4.031-107.867-1.032-10.866-59.132-6.423-58.36 40.282z" fill="#fbb348"/><path d="M378.337 1041.407a23.013 23.013 0 0 1-9.28-1.931c-11.777-5.203-16.31-15.004-13.855-29.964 2.129-12.981 9.084-28.833 17.138-47.188l1.681-3.833c10.851-24.785 11.233-47.559 11.717-76.39l.005-.286c.024-1.381 1.186-2.475 2.542-2.458a2.5 2.5 0 0 1 2.458 2.542l-.005.286c-.494 29.392-.884 52.607-12.137 78.311l-1.682 3.836c-17.17 39.133-25.907 61.706-5.842 70.57 11.027 4.869 23.821-1.912 35.104-18.61 7.179-10.626 28.498-47.479 33.979-67.511 7.281-26.618 8.575-61.603 3.955-106.954l-1.232-10.325a2.5 2.5 0 0 1 4.965-.593l1.237 10.368c4.688 46.018 3.345 81.601-4.103 108.823-5.712 20.881-27.107 57.814-34.658 68.99-12.194 18.051-23.773 22.314-31.985 22.315z"/><path d="M347.883 837.328c3.471 73.238-17.41 109.185-26.491 124.699-26.866 45.9 9.43 77.673 34.627 53.012 7.939-7.771 34.512-52.441 40.912-72.106 11.76-36.133 9.292-83.647 10.475-108.392-.304-17.568-60.629-18.014-59.523 2.787z" fill="#fbb348"/><path d="M336.924 1026.19c-5.409 0-10.714-1.803-15.404-5.465-12.357-9.647-18.344-32.526-2.285-59.96 8.856-15.131 29.599-50.566 26.151-123.318a2.5 2.5 0 0 1 2.379-2.615 2.513 2.513 0 0 1 2.615 2.379c3.518 74.233-17.749 110.565-26.831 126.08-14.54 24.841-9.649 45.143 1.048 53.494 8.807 6.875 20.456 5.49 29.673-3.532 7.692-7.528 33.948-51.627 40.284-71.093 9.104-27.975 9.573-63.126 9.917-88.793.097-7.276.181-13.561.438-18.944.066-1.378 1.263-2.436 2.616-2.377a2.5 2.5 0 0 1 2.378 2.617c-.254 5.297-.337 11.542-.434 18.772-.347 25.987-.822 61.577-10.162 90.274-6.657 20.455-33.369 65.121-41.54 73.119-6.335 6.2-13.68 9.364-20.844 9.364z"/><path d="M286.648 849.361c7.019 22.574 11.096 39.561-6.888 76.636-29.199 60.194 10.165 83.947 30.398 60.065 5.323-6.283 27.395-34.026 38.337-70.407 10.942-36.382 10.031-94.369 10.031-94.369-.649-17.835-60.438 18.25-71.878 28.075z" fill="#fbb348"/><path d="M292.162 997.776c-4.187 0-8.348-1.205-12.148-3.68-12.644-8.233-20.885-31.294-2.503-69.189 17.403-35.877 13.903-51.798 6.75-74.803a2.5 2.5 0 0 1 4.776-1.484c7.543 24.261 10.834 41.649-7.027 78.47-15.874 32.726-11.07 55.13.733 62.817 8.048 5.242 18.299 3.049 25.509-5.459 4.387-5.178 26.827-32.863 37.85-69.511 10.703-35.585 9.936-93.033 9.926-93.609a2.501 2.501 0 0 1 2.461-2.539h.04a2.5 2.5 0 0 1 2.499 2.46c.037 2.383.791 58.792-10.137 95.128-11.309 37.597-34.325 65.993-38.824 71.303-5.609 6.622-12.793 10.097-19.903 10.097z"/><path d="M627.747 508.649c67.661-77.343 152.161-32.507 237.3-33.157 25.663-.197 42.467-8.594 99.472-9.889 107.847-2.45 157.217 48.087 165.824 79.438 34.248 124.743-176.113 118.429-188.942 116.438-17.351-2.693-181.646-13.436-222.371 13.169l-91.284-165.999z" fill="#ffaac3"/><path d="M719.034 677.148a2.5 2.5 0 0 1-1.369-4.593c21.993-14.369 78.104-17.708 121.302-17.979 47.1-.295 93.418 2.973 102.82 4.432a2.5 2.5 0 0 1 2.087 2.854 2.492 2.492 0 0 1-2.854 2.087c-18.828-2.921-181.091-13.033-220.62 12.792a2.486 2.486 0 0 1-1.365.408zm417.351-102.372a2.501 2.501 0 0 1-2.479-2.198c-1.747-14.359-5.887-26.609-5.929-26.731a2.43 2.43 0 0 1-.045-.145c-8.918-32.482-59.764-79.953-163.356-77.601-33.241.755-52.703 3.932-68.341 6.484-10.923 1.783-20.356 3.323-31.169 3.406-23.666.176-47.344-3.134-70.262-6.339-60.193-8.42-117.05-16.369-165.176 38.643a2.5 2.5 0 1 1-3.763-3.292c22.443-25.655 48.913-40.293 80.921-44.752 28.502-3.973 57.747.119 88.711 4.45 22.74 3.18 46.267 6.495 69.53 6.291 10.428-.08 19.242-1.519 30.402-3.34 15.791-2.578 35.443-5.785 69.033-6.548 47.967-1.089 89.989 8.386 121.476 27.403 24.009 14.501 41.496 34.608 46.796 53.8.387 1.148 4.377 13.218 6.135 27.668a2.499 2.499 0 0 1-2.485 2.802z"/><path d="M786.164 822.815c3.76 16.332 31.358 21.4 69.59 12.53 8.358 24.36 32.703 27.103 41.186 24.893 21.257-5.537 18.673-44.813 9.96-60.704-7.977-14.548-27.204-31.264-65.438-22.397-38.233 8.867-59.059 29.343-55.298 45.678z" fill="#fbb348"/><path d="M891.35 863.325c-11.015 0-29.226-5.02-37.181-25.059-26.871 5.93-49.05 5.054-61.072-2.455-5.042-3.149-8.194-7.333-9.369-12.436-4.412-19.167 20.165-40.092 57.17-48.674 44.228-10.257 62.425 13.108 68.194 23.631 6.627 12.087 9.545 35.911 3.137 50.77-3.096 7.176-8.165 11.864-14.659 13.556-1.558.405-3.701.668-6.22.668zm-35.595-30.481a2.5 2.5 0 0 1 2.363 1.689c7.89 22.995 31.082 25.138 38.191 23.286 5.019-1.307 8.83-4.906 11.327-10.697 5.671-13.147 3.131-35.333-2.93-46.386-5.22-9.523-21.78-30.65-62.681-21.164-37.586 8.717-56.681 28.546-53.426 42.681.866 3.762 3.27 6.897 7.145 9.317 11.226 7.011 32.894 7.499 59.443 1.339.189-.044.38-.065.566-.065z"/><path d="M815.243 892.862c15.047 20.853 42.977 9.122 76.364-11.51 4.861 7.426 6.957 12.836 12.718 17.628 14.309 11.899 42.871-9.698 42.772-30.226-.028-5.887-4-28.532-18.247-43.044s-35.682-16.679-69.07 3.953-54.748 45.137-44.538 63.2z" fill="#fbb348"/><path d="M836.752 906.283c-9.314 0-17.393-3.445-23.536-11.958a2.36 2.36 0 0 1-.149-.233c-10.1-17.868 6.873-42.75 45.4-66.557 31.698-19.587 55.302-20.756 72.168-3.578 15.487 15.776 18.938 39.706 18.963 44.784.068 14.319-12.095 27.803-23.574 33.22-8.929 4.214-17.419 3.827-23.296-1.059-4.481-3.727-6.899-7.787-9.7-12.487a215.744 215.744 0 0 0-2.206-3.646c-19.27 11.773-38.413 21.515-54.069 21.515zm-19.399-14.771c13.668 18.758 39.048 8.657 72.94-12.288a2.5 2.5 0 0 1 3.406.758c1.388 2.119 2.524 4.028 3.624 5.873 2.67 4.483 4.779 8.023 8.602 11.202 5.913 4.918 13.793 2.351 17.965.382 10.224-4.825 20.765-16.87 20.708-28.674-.03-6.292-4.241-27.768-17.531-41.305-14.98-15.262-36.561-13.845-65.971 4.328-35.337 21.836-52.078 44.703-43.743 59.725z"/><path d="M954.654 854.143c-11.713-9.446-28.415-13.605-63.987 5.005s-56.163 44.678-44.538 63.2c14.445 25.875 62.165 2.109 95.552-18.523" fill="#fbb348"/><path d="M867.906 936.163c-3.229 0-6.189-.349-8.88-1.047-6.678-1.734-11.74-5.601-15.048-11.492-3.688-5.908-4.56-12.596-2.59-19.878 4.27-15.782 22.258-33.282 48.12-46.812 30.861-16.145 50.812-17.561 66.715-4.735a2.5 2.5 0 1 1-3.139 3.892c-9.959-8.032-25.024-13.684-61.258 5.274-24.649 12.895-41.7 29.227-45.611 43.687-1.597 5.904-.913 11.277 2.031 15.969.023.036.045.073.065.11 2.652 4.752 6.568 7.744 11.971 9.146 15.585 4.049 43.283-5.835 80.085-28.577a2.499 2.499 0 1 1 2.628 4.253c-32.503 20.085-57.69 30.21-75.091 30.211zM569.6 1445.901a2.493 2.493 0 0 1-1.896-.87c-13.079-15.207-28.171-31.861-28.322-32.027a2.501 2.501 0 0 1 3.705-3.359c.151.167 15.286 16.87 28.408 32.127a2.5 2.5 0 0 1-1.895 4.129zm321.001 69.686a2.5 2.5 0 0 1-2.319-3.433c.109-.274 11.081-27.68 16.444-49.544a2.496 2.496 0 0 1 3.023-1.832 2.5 2.5 0 0 1 1.832 3.023c-5.448 22.213-16.549 49.938-16.661 50.216a2.5 2.5 0 0 1-2.32 1.569z"/></svg></g></svg>