<svg xmlns="http://www.w3.org/2000/svg" width="173.064" height="177.826" viewBox="0 0 173.064 177.826"><g transform="translate(-31.81 -42.982)"><g transform="translate(48.413 57.847)"><path d="M207.606,99.531l-.841-1.368a36.691,36.691,0,0,0-33.389-17.628,35.545,35.545,0,0,0-5.156.7,38.215,38.215,0,0,0-27.365,23.5c-2.6,6.9-3.327,14.856-8.269,20.337-6.433,7.139-17.351,7.357-26.948,7.059s-20.524-.044-26.925,7.119c-4.041,4.485-5.306,10.859-4.993,16.867.876,15.9,12.076,30.117,26.345,37.192s31.069,7.7,46.687,4.589c21.876-4.362,42.681-16.312,55.189-34.785S217.612,119.468,207.606,99.531Z" transform="translate(-73.675 -80.465)" fill="#e3e5ff"/></g><g transform="translate(31.81 212.983)"><path d="M204.874,471.747c0,.056-38.743.1-86.528.1s-86.536-.048-86.536-.1,38.735-.107,86.536-.107S204.874,471.688,204.874,471.747Z" transform="translate(-31.81 -471.64)" fill="#263238"/></g><g transform="translate(172.225 158.571)"><path d="M391.36,426.55l2.713,17.839h15.772l3.661-17.581Z" transform="translate(-389.181 -390.02)" fill="#f8a1a1"/><path d="M414.179,455.231c0,.052-4.041.1-9.026.1s-9.022-.044-9.022-.1,4.037-.091,9.022-.091S414.179,455.18,414.179,455.231Z" transform="translate(-392.06 -407.272)" fill="#fafafa"/><path d="M414.142,453.021c0,.052-4.065.091-9.086.091s-9.086-.04-9.086-.091,4.069-.091,9.086-.091S414.142,452.958,414.142,453.021Z" transform="translate(-391.963 -405.938)" fill="#fafafa"/><path d="M414.066,450.521c0,.052-4.069.1-9.086.1s-9.09-.044-9.09-.1,4.069-.091,9.09-.091S414.066,450.47,414.066,450.521Z" transform="translate(-391.915 -404.43)" fill="#fafafa"/><path d="M401.575,462.115a14.87,14.87,0,0,1-.484-2.245,15.142,15.142,0,0,1-.3-2.28,28.626,28.626,0,0,1,.793,4.525Z" transform="translate(-394.872 -408.75)" fill="#fafafa"/><path d="M405.034,461.824a17.279,17.279,0,0,1-.19-2.173,16.717,16.717,0,0,1-.1-2.2,11.018,11.018,0,0,1,.286,2.185A10.834,10.834,0,0,1,405.034,461.824Z" transform="translate(-397.256 -408.666)" fill="#fafafa"/><path d="M409.6,461.589a10.76,10.76,0,0,1-.4-2.249,11.213,11.213,0,0,1-.119-2.28,19.609,19.609,0,0,1,.305,2.261A20.475,20.475,0,0,1,409.6,461.589Z" transform="translate(-399.871 -408.43)" fill="#fafafa"/><path d="M413.494,461.757a11.028,11.028,0,0,1-.218-2.284,11.367,11.367,0,0,1,.067-2.292,18.316,18.316,0,0,1,.115,2.288A19.186,19.186,0,0,1,413.494,461.757Z" transform="translate(-402.388 -408.503)" fill="#fafafa"/><path d="M419.691,461.879a12.553,12.553,0,0,1-.167-2.165,12.807,12.807,0,0,1,.02-2.173,13.335,13.335,0,0,1,.147,2.165A13.084,13.084,0,0,1,419.691,461.879Z" transform="translate(-406.154 -408.72)" fill="#fafafa"/><path d="M424.354,461.9a26.963,26.963,0,0,1,.036-4.481A26.976,26.976,0,0,1,424.354,461.9Z" transform="translate(-409.044 -408.647)" fill="#fafafa"/><path d="M428.67,461.018a30.009,30.009,0,0,1,.452-4.668,30.017,30.017,0,0,1-.452,4.668Z" transform="translate(-411.695 -408.002)" fill="#fafafa"/><path d="M434.08,461.574a12.293,12.293,0,0,1,.853-3.914,18.905,18.905,0,0,1-.4,1.959A17.746,17.746,0,0,1,434.08,461.574Z" transform="translate(-414.959 -408.792)" fill="#fafafa"/><path d="M423.9,337.79a.288.288,0,0,1-.02.087l-.075.254c-.071.234-.171.555-.3.96s-.3.928-.464,1.527-.4,1.273-.567,2.034-.42,1.586-.615,2.483-.4,1.86-.611,2.875c-.377,2.031-.722,4.283-.964,6.655s-.337,4.652-.369,6.718c0,1.035,0,2.019.028,2.939s.063,1.777.111,2.554.107,1.487.155,2.106.1,1.154.155,1.586.075.758.1,1v.262a.36.36,0,0,1,0,.087.318.318,0,0,0-.02-.087c-.02-.059-.024-.155-.044-.258-.032-.242-.079-.579-.135-1s-.131-.968-.186-1.586-.139-1.325-.182-2.106-.111-1.642-.135-2.562-.04-1.908-.044-2.943c.02-2.074.123-4.362.353-6.742s.595-4.636.984-6.671c.21-1.015.4-1.983.627-2.875s.428-1.729.638-2.487.416-1.432.595-2.027.349-1.106.5-1.519.25-.722.333-.952l.087-.25A.4.4,0,0,1,423.9,337.79Z" transform="translate(-406.294 -336.462)" fill="#455a64"/><path d="M422.636,360.466a5.858,5.858,0,0,1,2.451-3.1,1.408,1.408,0,0,1,1.3-.238c.551.266.595,1.039.432,1.63a4.327,4.327,0,0,1-1.785,2.431,3.64,3.64,0,0,1-2.681.678" transform="translate(-407.881 -348.092)" fill="#455a64"/><path d="M420.413,376.746a9.8,9.8,0,0,1,2.911-4.684,1.859,1.859,0,0,1,.658-.353.793.793,0,0,1,.71.155,1.087,1.087,0,0,1,.159,1.023,6.214,6.214,0,0,1-4.6,4.632" transform="translate(-406.614 -356.912)" fill="#455a64"/><path d="M420,394.823a9.007,9.007,0,0,1,2.935-3.692,1.4,1.4,0,0,1,1.027-.365c.555.1.793.793.761,1.344a4.371,4.371,0,0,1-1.9,2.816,11.822,11.822,0,0,1-2.717,1.4" transform="translate(-406.463 -368.426)" fill="#455a64"/><path d="M420.36,408.043a8.747,8.747,0,0,1,2.5-2.844,1.856,1.856,0,0,1,.75-.337.77.77,0,0,1,.738.282c.25.369,0,.865-.258,1.221a7.139,7.139,0,0,1-3.569,2.614" transform="translate(-406.68 -376.927)" fill="#455a64"/><path d="M413.038,402.089a27.681,27.681,0,0,0-3.569-3.641c-.2-.171-.46-.353-.71-.27a.531.531,0,0,0-.329.48,1.376,1.376,0,0,0,.135.6,6.936,6.936,0,0,0,4.6,3.871" transform="translate(-399.482 -372.888)" fill="#455a64"/><path d="M412.226,385.838l-2.808-3.4a3.376,3.376,0,0,0-.912-.865,1.162,1.162,0,0,0-1.19,0,1.138,1.138,0,0,0-.4,1.13,2.93,2.93,0,0,0,.547,1.122A8.4,8.4,0,0,0,409.509,386a3.456,3.456,0,0,0,2.566.793" transform="translate(-398.554 -362.78)" fill="#455a64"/><path d="M413.807,368.037a9.8,9.8,0,0,0-2.824-4.244,1.678,1.678,0,0,0-.738-.428,1.237,1.237,0,0,0-1.285.9,2.316,2.316,0,0,0,.254,1.86,4.9,4.9,0,0,0,1.321,1.392,11.446,11.446,0,0,0,3.121,1.689" transform="translate(-399.747 -351.891)" fill="#455a64"/><path d="M417.722,350.652a11.407,11.407,0,0,0-2.5-5.239c-.25-.341-.6-.7-1.019-.635a.793.793,0,0,0-.587.5,1.907,1.907,0,0,0-.111.793,6.131,6.131,0,0,0,3.966,5.473" transform="translate(-402.539 -340.674)" fill="#455a64"/><path d="M425.929,341.269a16.517,16.517,0,0,1-.1-3.066,5.52,5.52,0,0,1,1.019-2.859,2.379,2.379,0,0,1,1.019-.813,1.289,1.289,0,0,1,1.249.167,1.364,1.364,0,0,1,.428,1.1,3.485,3.485,0,0,1-.313,1.19c-.75,1.8-1.983,3.791-3.3,4.3" transform="translate(-409.961 -334.44)" fill="#455a64"/><path d="M395.159,357.62a1.6,1.6,0,0,1,0,.254v1.856a14.716,14.716,0,0,0,.056,1.507c.048,1.118.155,2.443.325,3.91s.432,3.07.793,4.735.769,3.236,1.19,4.652.865,2.669,1.269,3.712c.19.524.4.988.555,1.4s.317.765.444,1.051l.282.662a2.317,2.317,0,0,1,.087.234,1.046,1.046,0,0,1-.123-.218l-.313-.65c-.135-.282-.3-.627-.472-1.039s-.4-.868-.579-1.392c-.42-1.039-.869-2.3-1.317-3.708s-.853-2.99-1.21-4.664-.591-3.284-.765-4.759-.254-2.8-.286-3.922c-.028-.559-.024-1.067-.028-1.511s0-.829,0-1.142.02-.535.028-.722a1.047,1.047,0,0,1,.063-.246Z" transform="translate(-391.417 -348.427)" fill="#263238"/><path d="M396.41,373.448a4.184,4.184,0,0,1,1-2.637,1.007,1.007,0,0,1,.833-.44c.432.063.631.579.642,1.015a3.062,3.062,0,0,1-.69,2.042,2.594,2.594,0,0,1-1.678,1.035" transform="translate(-392.229 -356.121)" fill="#263238"/><path d="M398.8,384.911a7.007,7.007,0,0,1,.976-3.811,1.325,1.325,0,0,1,.373-.4.555.555,0,0,1,.516-.048.793.793,0,0,1,.329.662,4.434,4.434,0,0,1-2.118,4.156" transform="translate(-393.668 -362.301)" fill="#263238"/><path d="M401.92,397.36a6.388,6.388,0,0,1,1.19-3.145.991.991,0,0,1,.619-.472c.4-.052.718.357.793.753a3.093,3.093,0,0,1-.69,2.324,8.412,8.412,0,0,1-1.547,1.535" transform="translate(-395.553 -370.222)" fill="#263238"/><path d="M404.74,406.424a6.18,6.18,0,0,1,1.087-2.475,1.288,1.288,0,0,1,.44-.4.535.535,0,0,1,.559.032c.25.194.194.587.087.884a5.085,5.085,0,0,1-1.864,2.55" transform="translate(-397.255 -376.105)" fill="#263238"/><path d="M397.559,404.938a19.671,19.671,0,0,0-3.216-1.709.567.567,0,0,0-.543-.032.4.4,0,0,0-.119.4.96.96,0,0,0,.222.4,4.942,4.942,0,0,0,3.966,1.646" transform="translate(-390.574 -375.896)" fill="#263238"/><path d="M393.672,393.791l-2.645-1.725a2.45,2.45,0,0,0-.793-.4.821.821,0,0,0-.821.25.793.793,0,0,0,0,.849,2.132,2.132,0,0,0,.615.65,5.95,5.95,0,0,0,1.86,1.039,2.451,2.451,0,0,0,1.916,0" transform="translate(-387.932 -368.957)" fill="#263238"/><path d="M391,381.324a6.984,6.984,0,0,0-2.836-2.28,1.163,1.163,0,0,0-.595-.135.888.888,0,0,0-.682.892,1.67,1.67,0,0,0,.575,1.214,3.494,3.494,0,0,0,1.19.662,7.935,7.935,0,0,0,2.487.476" transform="translate(-386.484 -361.272)" fill="#263238"/><path d="M389.822,368.8a8.15,8.15,0,0,0-2.832-3.026.853.853,0,0,0-.829-.214.583.583,0,0,0-.293.468,1.388,1.388,0,0,0,.1.567,4.362,4.362,0,0,0,3.887,2.871" transform="translate(-385.867 -353.2)" fill="#263238"/><path d="M394.195,360.041a11.5,11.5,0,0,1-.73-2.066,3.922,3.922,0,0,1,.079-2.161,1.657,1.657,0,0,1,.52-.793.912.912,0,0,1,.884-.159.983.983,0,0,1,.531.658,2.555,2.555,0,0,1,.036.869c-.123,1.388-.543,3.01-1.321,3.633" transform="translate(-390.382 -346.732)" fill="#263238"/><path d="M437.9,357.19a1.008,1.008,0,0,1,.024.25c0,.182,0,.42.028.718a9.059,9.059,0,0,1,0,1.142c-.02.444,0,.952-.028,1.511-.032,1.118-.127,2.451-.286,3.922s-.42,3.082-.765,4.759-.793,3.248-1.21,4.664-.9,2.669-1.317,3.708c-.2.523-.4.988-.579,1.4s-.337.757-.472,1.039-.234.484-.313.646a1.187,1.187,0,0,1-.123.222,2.128,2.128,0,0,1,.087-.238l.282-.662c.127-.286.282-.635.444-1.047s.365-.876.555-1.4c.4-1.039.837-2.3,1.269-3.708s.841-2.986,1.19-4.652.595-3.276.793-4.739.278-2.776.325-3.906c.04-.559.04-1.063.056-1.507s0-.829,0-1.138v-.722A1.558,1.558,0,0,1,437.9,357.19Z" transform="translate(-414.223 -348.168)" fill="#455a64"/><path d="M440.692,373.008a4.176,4.176,0,0,0-1-2.633,1.012,1.012,0,0,0-.833-.444c-.432.064-.631.583-.642,1.019a3.05,3.05,0,0,0,.69,2.038,2.6,2.6,0,0,0,1.678,1.039" transform="translate(-417.455 -355.855)" fill="#455a64"/><path d="M438.7,384.453a7.011,7.011,0,0,0-.976-3.815,1.264,1.264,0,0,0-.373-.4.543.543,0,0,0-.516-.048.793.793,0,0,0-.329.658A4.434,4.434,0,0,0,438.647,385" transform="translate(-416.417 -362.022)" fill="#455a64"/><path d="M434.974,396.926a6.389,6.389,0,0,0-1.19-3.145.984.984,0,0,0-.619-.468c-.4-.052-.718.357-.793.75a3.107,3.107,0,0,0,.69,2.328,8.41,8.41,0,0,0,1.515,1.555" transform="translate(-413.902 -369.962)" fill="#455a64"/><path d="M432.686,406a6.156,6.156,0,0,0-1.087-2.475,1.262,1.262,0,0,0-.44-.4.543.543,0,0,0-.559.032c-.25.2-.194.587-.087.888a5.057,5.057,0,0,0,1.864,2.546" transform="translate(-412.752 -375.847)" fill="#455a64"/><path d="M436.919,404.5a19.977,19.977,0,0,1,3.216-1.709.579.579,0,0,1,.543-.028.4.4,0,0,1,.119.4.987.987,0,0,1-.222.377,4.965,4.965,0,0,1-3.966,1.646" transform="translate(-416.486 -375.636)" fill="#455a64"/><path d="M440.331,393.354l2.645-1.725a2.531,2.531,0,0,1,.793-.4.833.833,0,0,1,.821.25.793.793,0,0,1,0,.853,2.08,2.08,0,0,1-.615.646,5.851,5.851,0,0,1-1.86,1.039,2.451,2.451,0,0,1-1.916,0" transform="translate(-418.652 -368.694)" fill="#455a64"/><path d="M443.4,380.87a6.944,6.944,0,0,1,2.836-2.276,1.162,1.162,0,0,1,.595-.135.888.888,0,0,1,.682.892,1.658,1.658,0,0,1-.575,1.21,3.568,3.568,0,0,1-1.19.666,8.058,8.058,0,0,1-2.487.476" transform="translate(-420.498 -361.001)" fill="#455a64"/><path d="M445,368.346a8.161,8.161,0,0,1,2.832-3.03c.242-.174.559-.345.829-.21a.575.575,0,0,1,.293.468,1.379,1.379,0,0,1-.1.563A4.362,4.362,0,0,1,445,369" transform="translate(-421.548 -352.915)" fill="#455a64"/><path d="M443.348,359.561a11.745,11.745,0,0,0,.73-2.066,3.936,3.936,0,0,0-.079-2.165,1.677,1.677,0,0,0-.519-.793.92.92,0,0,0-.884-.155.984.984,0,0,0-.531.658,2.528,2.528,0,0,0-.036.865c.123,1.388.543,3.014,1.321,3.637" transform="translate(-419.742 -346.442)" fill="#455a64"/><path d="M386.8,417.64v3.339a1.313,1.313,0,0,0,1.313,1.313h22.836a1.317,1.317,0,0,0,1.317-1.313V417.64Z" transform="translate(-386.43 -384.644)" fill="#f8a1a1"/><g transform="translate(2.349 37.648)" opacity="0.4"><path d="M391.79,429.37l.19,1.063,21.071,1.5.535-2.562Z" transform="translate(-391.79 -429.37)"/></g></g><g transform="translate(55.248 62.708)"><path d="M130.221,108.509c-1.19-1.86-.313-5.072-.956-7.182s-.555-3.415-1.931-5.12a10.708,10.708,0,0,0-5.271-3.272,10.109,10.109,0,0,0-8.15,1.82,10.469,10.469,0,0,0-3.109,3.109,9.566,9.566,0,0,0-1,5.156l-.115-.119a5.2,5.2,0,0,0-3.022-.98,2.641,2.641,0,0,0-1.455.349,1.38,1.38,0,0,0-.67,1.269c.1.793.98,1.19,1.729,1.459a1.916,1.916,0,0,0,1.372,3.569c1.067-.3,1.634-1.4,2.3-2.328a12.192,12.192,0,0,1-.512,4.513c-.6,1.7-1.844,3.272-1.705,5.064a9.732,9.732,0,0,1,.258,2.407c-.246,1.233-1.586,1.923-2.2,3.014a3.926,3.926,0,0,0,.924,4.561,9.606,9.606,0,0,0,4.454,2.161c3.827,1,8.182,1.317,11.473-.876l9.225-9.407A13.011,13.011,0,0,0,130.221,108.509Z" transform="translate(-99.137 -92.721)" fill="#263238"/><path d="M151.07,458.28v.452s7.809,2.879,7.932,4.343l-15.332.365.087-5.108A8.792,8.792,0,0,0,151.07,458.28Z" transform="translate(-122.746 -313.303)" fill="#f8a1a1"/><g transform="translate(22.205 146.605)" opacity="0.6"><path d="M147.312,462.4a.623.623,0,0,0-.4.726.6.6,0,0,0,.714.416.662.662,0,0,0,.436-.769.627.627,0,0,0-.793-.353" transform="translate(-146.9 -462.386)" fill="#fff"/></g><g transform="translate(20.94 148.907)" opacity="0.6"><path d="M143.71,469.419V468.19l14.674.1s.69.282.623.765Z" transform="translate(-143.71 -468.19)" fill="#fff"/></g><path d="M160.4,459.434c0,.075-.373.119-.734.365s-.551.571-.623.543.032-.464.476-.757S160.421,459.363,160.4,459.434Z" transform="translate(-132.013 -313.961)" fill="#263238"/><path d="M165.059,461.067c.02.071-.3.206-.551.531s-.309.658-.4.654-.135-.42.182-.817S165.055,461,165.059,461.067Z" transform="translate(-135.041 -314.967)" fill="#263238"/><path d="M168.851,463.923c-.067,0-.182-.353,0-.769s.531-.587.563-.524-.178.286-.325.627S168.93,463.915,168.851,463.923Z" transform="translate(-137.881 -315.92)" fill="#263238"/><path d="M116.1,256.17l25.489,5.79-.48,3.228-7.293,57.541-5.041-.115-.52,4.247-7.987.119s-1.19-14.353-1.5-19.477-.48-13.924-1.44-19.366S109.926,266.517,116.1,256.17Z" transform="translate(-104.513 -191.348)" fill="#263238"/><path d="M151.481,427.41c-.059.452-1.19,13.111-1.19,13.111h-5.786l-1.015-13.06Z" transform="translate(-122.637 -294.675)" fill="#eb996e"/><path d="M138.617,433.51c-.056.452-1.19,13.111-1.19,13.111h-5.782l-1.015-13.06Z" transform="translate(-114.877 -298.356)" fill="#ffbe9d"/><path d="M157.371,418.05l-.75,4.085-5.612-.067.123-3.95Z" transform="translate(-127.175 -289.028)" fill="#455a64"/><path d="M154.487,281.81a.793.793,0,0,1,0,.147v.432c0,.4-.032.952-.056,1.662-.059,1.459-.143,3.545-.25,6.119-.23,5.175-.547,12.294-.9,20.182s-.714,15.011-.96,20.186c-.131,2.57-.238,4.656-.313,6.115-.04.71-.071,1.269-.1,1.662l-.032.432a.89.89,0,0,1,0,.147.878.878,0,0,1,0-.151v-.432c0-.4.032-.948.056-1.662.059-1.459.143-3.545.25-6.119.23-5.176.547-12.294.9-20.182s.714-15.007.96-20.182c.131-2.57.238-4.66.313-6.115.04-.71.071-1.269.1-1.662,0-.182.024-.325.032-.432A.793.793,0,0,1,154.487,281.81Z" transform="translate(-127.701 -206.819)" fill="#455a64"/><path d="M138.049,427.41l-.75,4.085h-8.8l-.623-3.95Z" transform="translate(-113.218 -294.675)" fill="#455a64"/><path d="M132.063,461.81s4.073,2.891,6.044.4l.516,1.214,2.316,8.638a1.154,1.154,0,0,1-.65,1.384,1.119,1.119,0,0,1-1.19-.226c-1.674-1.586-7.809-7.484-7.749-8.285l.024-2.118a1.087,1.087,0,0,1,.686-1Z" transform="translate(-115.311 -315.433)" fill="#f8a1a1"/><g transform="translate(16.047 148.753)" opacity="0.6"><path d="M140.1,477.108l-8.725-9.308v.476a1.293,1.293,0,0,0,.4,1.023,81.632,81.632,0,0,0,7.305,7.535,1.1,1.1,0,0,0,1.015.285Z" transform="translate(-131.372 -467.8)" fill="#fff"/></g><g transform="translate(16.341 147.273)" opacity="0.6"><path d="M133.091,464.168a.682.682,0,0,1,.19.884.654.654,0,0,1-.876.2.718.718,0,0,1-.194-.94.678.678,0,0,1,.932-.1" transform="translate(-132.113 -464.068)" fill="#fff"/></g><path d="M147,477.339c.063.032.305-.543.956-.853a3.433,3.433,0,0,1,1.257-.246c0-.028-.127-.111-.4-.147a1.737,1.737,0,0,0-.98.178,1.773,1.773,0,0,0-.734.67A1.024,1.024,0,0,0,147,477.339Z" transform="translate(-124.755 -324.045)" fill="#263238"/><path d="M148.992,481.745a7.786,7.786,0,0,1,.968-.476,8.658,8.658,0,0,1,1.067-.143,1.245,1.245,0,0,0-1.138-.087C149.245,481.238,148.94,481.714,148.992,481.745Z" transform="translate(-125.954 -326.988)" fill="#263238"/><path d="M143.354,472.546a10.852,10.852,0,0,1,1.44-.833,10.485,10.485,0,0,1,1.622-.4,2.467,2.467,0,0,0-1.709.159A2.5,2.5,0,0,0,143.354,472.546Z" transform="translate(-122.552 -321.12)" fill="#263238"/><path d="M142.868,467.2c.028.063.631-.19,1.416-.222s1.412.155,1.436.087a2.084,2.084,0,0,0-1.444-.329A2.2,2.2,0,0,0,142.868,467.2Z" transform="translate(-122.261 -318.401)" fill="#263238"/><path d="M144.818,464.283a.892.892,0,0,0-.059-.4,2.884,2.884,0,0,0-.524-1.007,1.3,1.3,0,0,0-.646-.5.46.46,0,0,0-.484.19.75.75,0,0,0-.079.52,1.586,1.586,0,0,0,1.634,1.19,1.84,1.84,0,0,0,1.586-1.277.642.642,0,0,0-.067-.527.448.448,0,0,0-.5-.147,1.554,1.554,0,0,0-.639.5,3.172,3.172,0,0,0-.575.972.861.861,0,0,0-.1.4,4.965,4.965,0,0,1,.793-1.261,1.448,1.448,0,0,1,.567-.42.238.238,0,0,1,.274.075.444.444,0,0,1,.024.349,1.638,1.638,0,0,1-1.4,1.091,1.376,1.376,0,0,1-1.4-.984.551.551,0,0,1,.04-.365.25.25,0,0,1,.266-.111,1.19,1.19,0,0,1,.555.4A4.144,4.144,0,0,1,144.818,464.283Z" transform="translate(-122.348 -315.733)" fill="#263238"/><path d="M250.3,160.992a28.574,28.574,0,0,1,2.6-3.312,20.8,20.8,0,0,1,4.7-.888c.3.147,4.684,1.626,4.085,2.078s-3.653-.615-3.653-.615l-.452.143a19.832,19.832,0,0,1,3.173,1.277c.527.42.194,1-.293.872a30.47,30.47,0,0,0-2.931-.88c-.155.075,2.467,1.039,2.729,1.257.357.293.289,1-.2.884-.29-.067-2.737-1.126-2.737-1.126a22.6,22.6,0,0,1,2.062,1.3c.258.337-.052.738-.476.575-.289-.115-1.614-1.019-2-1.19,0,0-.4.04-.853.75a14.662,14.662,0,0,1-2.7,2.177l-1.511.892-2.538-3.514Z" transform="translate(-186.484 -131.371)" fill="#ffbe9d"/><path d="M254.39,164.657a.908.908,0,0,0,1.047.163c.349-.143.643-.4.984-.571,1.015-.5,2.312-.143,3.3-.69.139-.079.286-.214.238-.369s-.214-.182-.361-.2l-3.724-.492" transform="translate(-189.555 -134.826)" fill="#ffbe9d"/><path d="M255.845,162.479a1.415,1.415,0,0,1,.4,0l1.1.115,1.634.19.468.059a.73.73,0,0,1,.527.2.309.309,0,0,1,0,.353.635.635,0,0,1-.222.214,2.742,2.742,0,0,1-.512.214,14.879,14.879,0,0,1-2.011.246,2.816,2.816,0,0,0-.813.23,5.03,5.03,0,0,0-.654.4,1.333,1.333,0,0,1-1.1.206c-.266-.1-.333-.262-.321-.258a1.078,1.078,0,0,0,.345.174,1.281,1.281,0,0,0,1-.254,7.341,7.341,0,0,1,.654-.4,2.935,2.935,0,0,1,.865-.262,17.194,17.194,0,0,0,1.983-.258,2.431,2.431,0,0,0,.464-.194c.135-.075.214-.2.155-.258a.793.793,0,0,0-.4-.119l-.472-.067-1.626-.238c-.46-.067-.837-.131-1.095-.178A1.586,1.586,0,0,1,255.845,162.479Z" transform="translate(-189.523 -134.805)" fill="#eb996e"/><path d="M271.831,160.9a2.2,2.2,0,0,1-.857.1,5.055,5.055,0,0,1-.932-.107c-.341-.091-.706-.206-1.095-.321l-.821-.254h.052a12.732,12.732,0,0,1-2.039.305,12.144,12.144,0,0,1,1.983-.508h.052l.817.242,1.079.333a5.947,5.947,0,0,0,.9.151C271.5,160.887,271.827,160.86,271.831,160.9Z" transform="translate(-196.645 -133.384)" fill="#eb996e"/><path d="M169.7,153.544s4.791-.258,7.2.924,13.012,8.475,13.012,8.475l10.867-4.025,3.847,5.215-9.423,6.861a8,8,0,0,1-7.638.726l-12.191-4.842Z" transform="translate(-138.453 -129.408)" fill="#f8a1a1"/><path d="M220.928,182.322a2.38,2.38,0,0,1-.365-.69,7.14,7.14,0,0,1-.456-1.836,6.966,6.966,0,0,1,.052-1.888,2.47,2.47,0,0,1,.206-.757,9.7,9.7,0,0,0,.563,5.172Z" transform="translate(-168.844 -143.666)" fill="#263238"/><g transform="translate(50.815 33.607)" opacity="0.3"><path d="M219.647,177.46a2.3,2.3,0,0,0-.579,1.638,15.747,15.747,0,0,0,.067,2.665,3.47,3.47,0,0,0,.377,1.4.662.662,0,0,0,.4.349c.309.071.587-.262.595-.583a1.983,1.983,0,0,0-.29-.892,6.611,6.611,0,0,1-.551-4.311" transform="translate(-219.04 -177.46)"/></g><path d="M117.383,155.419c-.234.079-2.808,1.753-4.834,3.085a3.494,3.494,0,0,0-1.269,4.339l5.029,11.3L118.069,181l-5.707,15,.4,1.666L140.1,200l1.333-3.141-1.586-14.277V164.652L135.48,153.48l-7.511.1Z" transform="translate(-103.019 -129.383)" fill="#f8a1a1"/><g transform="translate(35.015 24.937)" opacity="0.3"><path d="M179.945,155.6a.857.857,0,0,1,.793.5,2.527,2.527,0,0,1,.2.988c.321,4.854.135,10.787.059,15.772l.341,15.376c-1.459-2.721-1.586-5.949-1.721-9.011q-.147-4.16-.305-8.328c-.171-4.6.056-9.2-.115-13.8C179.192,156.5,179.33,155.675,179.945,155.6Z" transform="translate(-179.199 -155.6)"/></g><g transform="translate(11.814 42.942)" opacity="0.3"><path d="M120.727,217.954c.147-.484.527-1.384.527-1.384a16.93,16.93,0,0,0,2.265-8.622s-.646-2.725-1.344-5.279l-.734-1.67.048.024c1.233.567,1.983,2.257,2.157,3.6s.337,2.883,1.36,3.807a26.833,26.833,0,0,0,2.34,1.38,3.375,3.375,0,0,1,1.352,2.752c0,.444-.091.964.23,1.277.4.373,1,.178,1.491,0s1.166-.286,1.44.167a.892.892,0,0,1-.289,1.075,7.557,7.557,0,0,1-1.047.6c-.861.52-1.352,1.471-2.078,2.165-1.44,1.388-3.6,1.63-5.592,1.8a2.057,2.057,0,0,1-1.67-.345A1.416,1.416,0,0,1,120.727,217.954Z" transform="translate(-120.698 -201)"/></g><path d="M115,269.539c0-.036.488.107,1.269.234a11.34,11.34,0,0,0,3.082.06,11.212,11.212,0,0,0,2.982-.793c.73-.305,1.158-.555,1.19-.523s-.091.083-.282.206a7.1,7.1,0,0,1-.833.452,9.974,9.974,0,0,1-6.151.734,6.778,6.778,0,0,1-.916-.246A1.189,1.189,0,0,1,115,269.539Z" transform="translate(-105.446 -198.796)" fill="#455a64"/><path d="M141.2,226.035l-.143-.218a2.652,2.652,0,0,1,.5,2.062,1.035,1.035,0,0,1-.222.365,1.483,1.483,0,0,1-2.2,1.3.615.615,0,0,1-.4-.591.793.793,0,0,1,.2-.337,1.1,1.1,0,0,0,.123-.171l-1.019-.2s-2.471-.151-3.137-1.471c-.107-.21-5.406.206-5.406.206l.4-5.977,8.868,1.19s6.278.726,6.889.722a.607.607,0,0,1,.674.73c-.024.4-.329.563-.936.587-.206,0-3.966.131-3.966.131h0c.317.468.722,1.221.226,1.5Z" transform="translate(-114.196 -170.132)" fill="#ffbe9d"/><path d="M154.46,235.426c0-.028.171-.032.448,0a2.276,2.276,0,0,1,1.035.349,1.217,1.217,0,0,1,.571.944c0,.3-.115.452-.135.44a4.159,4.159,0,0,0,0-.424,1.19,1.19,0,0,0-.539-.793,2.919,2.919,0,0,0-.948-.377C154.618,235.5,154.452,235.454,154.46,235.426Z" transform="translate(-129.256 -178.817)" fill="#eb996e"/><path d="M154.65,230.729c0-.024.206-.028.512.075a2.526,2.526,0,0,1,1.055.686,2.479,2.479,0,0,1,.587,1.106c.075.317.056.52.032.52a4.315,4.315,0,0,0-.773-1.487A4.252,4.252,0,0,0,154.65,230.729Z" transform="translate(-129.371 -175.988)" fill="#eb996e"/><path d="M156.47,228.3c0-.056.361-.079.761.079s.654.4.619.452-.321-.119-.694-.262S156.466,228.352,156.47,228.3Z" transform="translate(-130.47 -174.503)" fill="#eb996e"/><path d="M154.811,239.852c-.048.028-.2-.155-.464-.238s-.5-.032-.52-.087.238-.222.583-.107S154.871,239.836,154.811,239.852Z" transform="translate(-128.874 -181.216)" fill="#eb996e"/><path d="M103.6,179.877l-2.538,6.71,9.459,1.436-.468,8.015-13-.551a6.344,6.344,0,0,1-6.139-5.949v-.428c.052-2.38,4.212-13.183,6.119-18.763a7.745,7.745,0,0,1,3.3-4.037h0Z" transform="translate(-90.91 -137.125)" fill="#f8a1a1"/><path d="M121.786,226.441a4.016,4.016,0,0,1,0-.611c.02-.424.04-.991.071-1.686.075-1.463.178-3.454.3-5.723l.087.107-1.983-.286c-2.74-.4-5.215-.769-7.008-1.047l-2.118-.341-.575-.1a.722.722,0,0,1-.2-.052.862.862,0,0,1,.2,0l.583.063,2.126.274c1.8.242,4.279.591,7.016.991l1.983.286h.091v.091c-.147,2.265-.278,4.255-.369,5.719-.056.69-.1,1.257-.131,1.682A3.173,3.173,0,0,1,121.786,226.441Z" transform="translate(-102.646 -167.528)" fill="#263238"/><path d="M115.128,174.52a2.362,2.362,0,0,1,.274.242,7.394,7.394,0,0,1,.654.75,10.739,10.739,0,0,1,2.213,6.1,6.851,6.851,0,0,1,0,1,1.361,1.361,0,0,1-.052.361c-.04,0,0-.52-.075-1.348a11.981,11.981,0,0,0-2.185-6.02C115.473,174.921,115.1,174.544,115.128,174.52Z" transform="translate(-105.522 -142.079)" fill="#263238"/><path d="M183.335,172.612a5.617,5.617,0,0,1,0-1.023c.024-.631.052-1.5.056-2.463s-.024-1.832-.044-2.463a6.342,6.342,0,0,1,0-1.023,4.364,4.364,0,0,1,.147,1.015c.059.631.1,1.5.1,2.471s-.056,1.84-.115,2.471a4.543,4.543,0,0,1-.147,1.015Z" transform="translate(-146.666 -136.721)" fill="#263238"/><path d="M129,251.51a4.73,4.73,0,0,1,.65.246c.4.174,1.011.416,1.753.706a55.917,55.917,0,0,0,5.925,1.916,54.8,54.8,0,0,0,6.107,1.214c.793.111,1.432.19,1.876.242a4.925,4.925,0,0,1,.686.1,4,4,0,0,1-.694-.02c-.448-.024-1.091-.083-1.888-.174a46.837,46.837,0,0,1-6.143-1.162,46.09,46.09,0,0,1-5.949-1.983c-.738-.305-1.329-.567-1.733-.765A3.967,3.967,0,0,1,129,251.51Z" transform="translate(-113.894 -188.536)" fill="#263238"/><path d="M172.37,190.057a.4.4,0,1,0,.4-.4A.4.4,0,0,0,172.37,190.057Z" transform="translate(-140.064 -151.215)" fill="#263238"/><path d="M240.35,182.617a.4.4,0,1,0,.4-.4A.4.4,0,0,0,240.35,182.617Z" transform="translate(-181.084 -146.725)" fill="#263238"/><path d="M208.753,179.046a.4.4,0,1,0,.379-.279A.4.4,0,0,0,208.753,179.046Z" transform="translate(-162.007 -144.642)" fill="#263238"/><path d="M192.39,165.037a.4.4,0,1,0,.4-.4A.4.4,0,0,0,192.39,165.037Z" transform="translate(-152.144 -136.118)" fill="#263238"/><path d="M170.12,204.577a.4.4,0,1,0,.4-.4A.4.4,0,0,0,170.12,204.577Z" transform="translate(-138.706 -159.976)" fill="#263238"/><path d="M227.8,179.827a.4.4,0,1,0,.4-.4A.4.4,0,0,0,227.8,179.827Z" transform="translate(-173.511 -145.042)" fill="#263238"/><path d="M213.7,195.4a.4.4,0,1,0,.379-.279A.4.4,0,0,0,213.7,195.4Z" transform="translate(-164.994 -154.507)" fill="#263238"/><path d="M150.87,193.307a.4.4,0,1,0,.4-.4A.4.4,0,0,0,150.87,193.307Z" transform="translate(-127.09 -153.176)" fill="#263238"/><circle cx="0.381" cy="0.381" r="0.381" transform="translate(21.896 34.023)" fill="#263238"/><path d="M164.14,172.857a.4.4,0,1,0,.4-.4A.4.4,0,0,0,164.14,172.857Z" transform="translate(-135.098 -140.836)" fill="#263238"/><path d="M196,179.827a.4.4,0,1,0,.4-.4A.4.4,0,0,0,196,179.827Z" transform="translate(-154.322 -145.042)" fill="#263238"/><circle cx="0.381" cy="0.381" r="0.381" transform="translate(30.486 26.643)" fill="#263238"/><circle cx="0.381" cy="0.381" r="0.381" transform="translate(16.938 35.51)" fill="#263238"/><path d="M150.87,211.6a.4.4,0,1,0,.4-.4A.4.4,0,0,0,150.87,211.6Z" transform="translate(-127.09 -164.212)" fill="#263238"/><circle cx="0.381" cy="0.381" r="0.381" transform="translate(34.25 66.552)" fill="#263238"/><circle cx="0.381" cy="0.381" r="0.381" transform="translate(24.16 61.63)" fill="#263238"/><path d="M124.41,259.127a.4.4,0,1,0,.4-.4A.4.4,0,0,0,124.41,259.127Z" transform="translate(-111.124 -192.892)" fill="#263238"/><path d="M159.59,239.077a.4.4,0,1,0,.4-.4A.4.4,0,0,0,159.59,239.077Z" transform="translate(-132.352 -180.794)" fill="#263238"/><circle cx="0.381" cy="0.381" r="0.381" transform="translate(7.115 34.674)" fill="#263238"/><path d="M108.85,228.4a.4.4,0,1,0,.4-.4A.4.4,0,0,0,108.85,228.4Z" transform="translate(-101.735 -174.35)" fill="#263238"/><path d="M124.41,234.187a.4.4,0,1,0,.4-.4A.4.4,0,0,0,124.41,234.187Z" transform="translate(-111.124 -177.843)" fill="#263238"/><path d="M132.643,222.958a.4.4,0,1,0,.147-.439A.4.4,0,0,0,132.643,222.958Z" transform="translate(-116.081 -170.997)" fill="#263238"/><path d="M114.08,193.307a.4.4,0,1,0,.4-.4A.4.4,0,0,0,114.08,193.307Z" transform="translate(-104.891 -153.176)" fill="#263238"/><circle cx="0.381" cy="0.381" r="0.381" transform="translate(34.25 60.079)" fill="#263238"/><circle cx="0.381" cy="0.381" r="0.381" transform="translate(4.021 45.29)" fill="#263238"/><path d="M95.94,223.137a.4.4,0,1,0,.4-.4A.4.4,0,0,0,95.94,223.137Z" transform="translate(-93.945 -171.176)" fill="#263238"/><path d="M132.643,199.308a.4.4,0,1,0,.147-.439A.4.4,0,0,0,132.643,199.308Z" transform="translate(-116.081 -156.726)" fill="#263238"/><g transform="translate(11.255 25.615)" opacity="0.3"><path d="M126.674,160.062c-.234-.73-.555-.876-1.249-1.21a12.938,12.938,0,0,1-2.415-1.543l-3.438,2.185a6.318,6.318,0,0,0,.27,4.493,3.447,3.447,0,0,0,6.068.543,6.659,6.659,0,0,0,1.1-2.637A4.36,4.36,0,0,0,126.674,160.062Z" transform="translate(-119.289 -157.31)"/></g><path d="M141.469,104.547c-.432-2.59-2.487-5.608-5.057-5.064l-7.892,2.883a1.531,1.531,0,0,0-1.19,1.689l2.879,19.457h-.056s2.4,5.326,7.591,3.105c1.027-.444,1.4-1.654,1.487-2.871h.056a3.88,3.88,0,0,0-.036-.4,12.863,12.863,0,0,0-.242-2.685h0c-.143-1.586-.21-2.229-.206-2.213s3.272-.9,3.514-5.31A52.4,52.4,0,0,0,141.469,104.547Z" transform="translate(-112.879 -96.762)" fill="#ffbe9d"/><path d="M159.227,119.4a.559.559,0,0,1-.48.615.535.535,0,0,1-.623-.444.555.555,0,0,1,.476-.615.535.535,0,0,1,.627.444Z" transform="translate(-131.465 -108.546)" fill="#263238"/><path d="M158.112,116.459c-.059.079-.516-.186-1.114-.123s-1.007.4-1.079.341,0-.171.2-.329a1.519,1.519,0,0,1,.853-.361,1.487,1.487,0,0,1,.9.19C158.068,116.3,158.144,116.424,158.112,116.459Z" transform="translate(-130.121 -106.755)" fill="#263238"/><path d="M144.987,121.171a.563.563,0,0,1-.48.619.535.535,0,0,1-.623-.444.559.559,0,0,1,.476-.619.535.535,0,0,1,.627.444Z" transform="translate(-122.873 -109.614)" fill="#263238"/><path d="M143.288,118.269c-.063.079-.516-.186-1.114-.123s-1.007.4-1.083.341.024-.167.2-.329a1.558,1.558,0,0,1,.857-.361,1.471,1.471,0,0,1,.9.19C143.241,118.11,143.316,118.233,143.288,118.269Z" transform="translate(-121.174 -107.847)" fill="#263238"/><path d="M152.1,122.094a3.871,3.871,0,0,1,.956-.278c.151-.032.293-.075.309-.182a.793.793,0,0,0-.151-.444q-.27-.535-.571-1.118a20,20,0,0,1-1.329-2.943,19.584,19.584,0,0,1,1.563,2.828c.194.4.4.769.555,1.126a.9.9,0,0,1,.139.595.4.4,0,0,1-.226.25,1.276,1.276,0,0,1-.258.063A4.052,4.052,0,0,1,152.1,122.094Z" transform="translate(-127.354 -107.449)" fill="#263238"/><path d="M147.1,145.972a11.128,11.128,0,0,1-5.977-.952s1.717,2.836,6.024,1.983Z" transform="translate(-121.207 -124.279)" fill="#eb996e"/><path d="M150.331,132.854a1.087,1.087,0,0,0-1.007-.3,1.015,1.015,0,0,0-.646.436.623.623,0,0,0,.028.718.722.722,0,0,0,.793.119,2.3,2.3,0,0,0,.718-.535.658.658,0,0,0,.155-.194.2.2,0,0,0-.024-.222" transform="translate(-125.707 -116.74)" fill="#eb996e"/><path d="M148.879,131.15c.1,0,.163.635.769,1.039s1.289.262,1.3.353-.139.139-.432.178a1.61,1.61,0,0,1-1.083-.258,1.424,1.424,0,0,1-.607-.876C148.764,131.321,148.819,131.15,148.879,131.15Z" transform="translate(-125.841 -115.909)" fill="#263238"/><path d="M142.953,115.773c-.04.167-.646.155-1.34.309s-1.245.4-1.352.27c-.048-.063.036-.226.246-.4a2.308,2.308,0,0,1,.976-.46,2.38,2.38,0,0,1,1.079,0C142.83,115.579,142.973,115.694,142.953,115.773Z" transform="translate(-120.681 -106.426)" fill="#263238"/><path d="M157.362,112.082c-.1.147-.52.048-1.019.091s-.9.186-1.019.056c-.048-.067,0-.21.175-.357a1.4,1.4,0,0,1,.793-.309,1.424,1.424,0,0,1,.837.19C157.326,111.876,157.4,112.011,157.362,112.082Z" transform="translate(-129.767 -104.087)" fill="#263238"/><path d="M140.217,96.8a5.259,5.259,0,0,1,4.478,4.9l-2.467.123-.512-1.285a1.832,1.832,0,0,1-1.035,2.11,5.134,5.134,0,0,1-2.526.365l-.159-1.1a2.1,2.1,0,0,1-1.277,1.705,6.318,6.318,0,0,1-2.177.456,6.044,6.044,0,0,0-2.177.464,4.624,4.624,0,0,1,.365-4.267,6.742,6.742,0,0,1,3.462-2.685,12.37,12.37,0,0,1,4.394-.639" transform="translate(-115.708 -95.182)" fill="#263238"/><path d="M121.566,127.54a11.573,11.573,0,0,0,.472-3.819c-.182-1.19-.876-2.38-.432-3.474a2.019,2.019,0,0,1,1.682-1.162c-1.666-2.721-1.919-6.163-1.8-9.4a11.716,11.716,0,0,1,.428-3.109,4.589,4.589,0,0,1,1.793-2.51,2.9,2.9,0,0,1,2.982-.151l.686.056a6.821,6.821,0,0,1-.226,5.064,5.306,5.306,0,0,0-.662,1.793c-.075,1.364,1.3,2.463,1.3,3.823a6.872,6.872,0,0,1-.98,3.05,1.253,1.253,0,0,0,.107,1.662c.321.424,2.657,6.195.9,9.423A4.505,4.505,0,0,1,126,131.565a3.058,3.058,0,0,1-3.819-.333A4.305,4.305,0,0,1,121.566,127.54Z" transform="translate(-109.323 -99.271)" fill="#263238"/></g><g transform="translate(35.273 42.982)"><path d="M63.079,65.468v.714c0,.472,0,1.134.024,1.983,0,1.7.024,4.1.044,6.968l-.087-.091H72.7c.024-.024-.194.194-.1.1h0V65.468l.091.091-6.917-.048-1.983-.024h-.71a.694.694,0,0,1,.167,0h.508l1.947-.024,7.024-.044h.087v9.736h0c.091-.091-.127.127-.1.107H63v-.087c.02-2.9.036-5.31.044-7.024,0-.825.02-1.483.024-1.951v-.508A.837.837,0,0,1,63.079,65.468Z" transform="translate(-54.094 -56.521)" fill="#263238"/><path d="M76.643,60.1c.135.107-1.983,2.879-4.68,6.191l-1.626,1.951-.194.234-.226-.2a28.426,28.426,0,0,1-3.752-3.625A28.673,28.673,0,0,1,70.3,67.83l-.4.036,1.586-1.983C74.2,62.591,76.512,59.994,76.643,60.1Z" transform="translate(-56.001 -53.312)" fill="#f8a1a1"/><path d="M54.526,42.989a.98.98,0,0,0-.238,0h-.71a4.065,4.065,0,0,0-.52.024l-.623.087-.726.1-.793.2a13.115,13.115,0,0,0-3.938,1.717,14.083,14.083,0,0,0-4.069,3.966,14.238,14.238,0,0,0-2.312,6.48,14.443,14.443,0,0,0-.04,1.9,8.047,8.047,0,0,0,.063.972c.063.325.1.65.151.98A13.964,13.964,0,0,0,42.092,63.3a14.9,14.9,0,0,0,2.51,3.486,14.594,14.594,0,0,0,3.657,2.621,13.4,13.4,0,0,0,4.446,1.364,9.078,9.078,0,0,0,1.19.1,10.956,10.956,0,0,0,1.19.024,14.5,14.5,0,0,0,2.38-.305,14.083,14.083,0,0,0,4.779-2.011H62.1l4.866,1.951.29.115-.083-.3q-.738-2.677-1.432-5.2l-.024.131a13.96,13.96,0,0,0,2.6-5.949,12.619,12.619,0,0,0,.19-3.046,10.4,10.4,0,0,0-.139-1.463c-.036-.242-.075-.476-.111-.714s-.115-.46-.171-.69a13.912,13.912,0,0,0-5.417-7.892,13.27,13.27,0,0,0-3.232-1.705l-.726-.262-.69-.167-.635-.159c-.2-.036-.4-.059-.579-.087-.369-.048-.694-.111-.976-.123l-.714-.028h-.44a.607.607,0,0,0-.147,0,1.147,1.147,0,0,0,.147.02l.436.032.71.052a7.5,7.5,0,0,1,.968.147A13.837,13.837,0,0,1,67.851,53.5c.052.222.123.448.163.678l.107.7a10.062,10.062,0,0,1,.127,1.436,12.318,12.318,0,0,1-.2,2.986,13.706,13.706,0,0,1-2.562,5.818l-.044.056v.071q.69,2.522,1.42,5.207l.206-.186-4.862-1.959-.075-.028-.071.044a13.643,13.643,0,0,1-4.672,1.983,13.833,13.833,0,0,1-2.344.3,10.537,10.537,0,0,1-1.19,0,8.658,8.658,0,0,1-1.158-.1,13.04,13.04,0,0,1-4.362-1.329,14.4,14.4,0,0,1-3.569-2.554,14.793,14.793,0,0,1-2.487-3.4,13.8,13.8,0,0,1-1.309-3.791c-.048-.325-.1-.642-.147-.96s-.044-.642-.067-.956a14.611,14.611,0,0,1,.032-1.868A13.746,13.746,0,0,1,47.07,45.277a13.274,13.274,0,0,1,3.875-1.745l.793-.214.722-.119.615-.1c.19-.02.365-.024.52-.036l.7-.052A2.194,2.194,0,0,0,54.526,42.989Z" transform="translate(-40.543 -42.982)" fill="#455a64"/></g><g transform="translate(91.644 44.448)"><path d="M245.488,198.515l-51.577-.032a11.235,11.235,0,0,1-11.231-11.235L182.7,57.911A11.231,11.231,0,0,1,193.947,46.68l51.581.028a11.239,11.239,0,0,1,11.231,11.239l-.028,129.32a11.231,11.231,0,0,1-11.243,11.247Z" transform="translate(-182.68 -46.68)" fill="#263238"/><path d="M250.664,58.294h-10a2.487,2.487,0,0,0-2.431,2.538v1.812a2.483,2.483,0,0,1-2.427,2.538h-19.5a2.487,2.487,0,0,1-2.427-2.538V60.808a2.487,2.487,0,0,0-2.427-2.538H199.19a7.872,7.872,0,0,0-7.876,7.868l-.024,126.223a7.872,7.872,0,0,0,7.864,7.872l51.481.028a7.864,7.864,0,0,0,7.872-7.864l.024-126.227a7.864,7.864,0,0,0-7.868-7.876Z" transform="translate(-187.875 -53.674)" fill="#fff"/><path d="M207.006,131.86h-.726v-.19h1.67v.19h-.726v1.872h-.218Z" transform="translate(-196.92 -97.964)" fill="#263238"/><path d="M210.449,133.713a.793.793,0,1,1,.793.793.761.761,0,0,1-.793-.793Zm1.364,0a.579.579,0,1,0-.575.6.567.567,0,0,0,.575-.6Z" transform="translate(-199.436 -98.718)" fill="#263238"/><path d="M216.64,131.348v2.185h-.2v-.305a.67.67,0,0,1-.6.321.793.793,0,0,1,0-1.586.682.682,0,0,1,.591.309v-.932Zm-.206,1.412a.575.575,0,1,0-.575.6.567.567,0,0,0,.575-.6Z" transform="translate(-202.212 -97.765)" fill="#263238"/><path d="M221.513,133.552v.96h-.19v-.242a.587.587,0,0,1-.535.258c-.349,0-.567-.182-.567-.452s.155-.44.6-.44h.5v-.091a.4.4,0,0,0-.436-.4.793.793,0,0,0-.516.182l-.1-.155a.987.987,0,0,1,.631-.21.551.551,0,0,1,.607.587Zm-.19.5v-.254h-.484c-.3,0-.4.119-.4.278s.147.29.4.29A.492.492,0,0,0,221.323,134.048Z" transform="translate(-205.332 -98.744)" fill="#263238"/><path d="M225.525,132.994l-.793,1.737c-.131.3-.293.4-.516.4a.531.531,0,0,1-.4-.143l.1-.155a.4.4,0,0,0,.286.119c.139,0,.23-.067.321-.262l.067-.151-.694-1.547h.218l.583,1.317.623-1.313Z" transform="translate(-207.504 -98.76)" fill="#263238"/><path d="M267.73,95.09h.642v2.257h1.4v.527H267.73Z" transform="translate(-234 -75.891)" fill="#263238"/><path d="M273.49,94.56a.353.353,0,0,1,.4-.345.349.349,0,0,1,.4.333.4.4,0,0,1-.769,0Zm.075.642h.619v2.142h-.619Z" transform="translate(-237.476 -75.361)" fill="#263238"/><path d="M276.18,98.6l.206-.448a1.463,1.463,0,0,0,.742.21c.286,0,.4-.079.4-.2,0-.349-1.289,0-1.289-.845,0-.4.365-.694.987-.694a1.725,1.725,0,0,1,.825.19l-.206.44a1.249,1.249,0,0,0-.619-.159c-.278,0-.4.087-.4.2,0,.365,1.293,0,1.293.853,0,.4-.369.682-1.011.682a1.832,1.832,0,0,1-.928-.23Z" transform="translate(-239.099 -76.82)" fill="#263238"/><path d="M283.026,98.03a.885.885,0,0,1-.5.135.706.706,0,0,1-.793-.769V96.5H281.4V96.04h.329v-.52h.623v.52h.531V96.5h-.531v.869a.25.25,0,0,0,.266.282.416.416,0,0,0,.25-.079Z" transform="translate(-242.249 -76.151)" fill="#263238"/><path d="M335.83,94.421c0,.036-1.3.071-2.9.087s-2.907,0-2.907-.04,1.3-.071,2.907-.087S335.83,94.386,335.83,94.421Z" transform="translate(-271.586 -75.46)" fill="#263238"/><path d="M335.86,98.171c0,.032-1.3.071-2.9.087s-2.907,0-2.907-.04,1.3-.071,2.907-.087S335.86,98.136,335.86,98.171Z" transform="translate(-271.604 -77.723)" fill="#263238"/><path d="M335.89,101.933c0,.032-1.3.071-2.9.083s-2.9,0-2.907-.036,1.3-.075,2.907-.087S335.89,101.893,335.89,101.933Z" transform="translate(-271.623 -79.994)" fill="#263238"/><path d="M205.712,98.949a.139.139,0,0,1-.1-.04l-1.253-1.237a.139.139,0,0,1-.04-.1.143.143,0,0,1,.044-.1l1.249-1.214a.143.143,0,0,1,.2.2l-1.15,1.114,1.15,1.138a.139.139,0,0,1-.1.238Z" transform="translate(-195.738 -76.577)" fill="#263238"/><path d="M228.531,162.92c0,.42-.3.67-.793.67h-.523v.619H227V162.25h.734C228.229,162.25,228.531,162.5,228.531,162.92Zm-.206,0c0-.313-.206-.492-.6-.492h-.52v.98h.52C228.118,163.408,228.325,163.23,228.325,162.92Z" transform="translate(-209.423 -116.416)" fill="#263238"/><path d="M232.532,163.446v.194h-.048a.48.48,0,0,0-.5.543v.75h-.2v-1.471h.19v.289A.555.555,0,0,1,232.532,163.446Z" transform="translate(-212.313 -117.136)" fill="#263238"/><path d="M234.159,164.2a.75.75,0,1,1,.75.75.722.722,0,0,1-.75-.75Zm1.3,0a.547.547,0,1,0-.547.571.539.539,0,0,0,.547-.571Z" transform="translate(-213.743 -117.14)" fill="#263238"/><path d="M237.62,164.492l.071-.151a.337.337,0,0,0,.23.075c.155,0,.242-.1.242-.278v-1.586h.2v1.586a.4.4,0,0,1-.428.448A.5.5,0,0,1,237.62,164.492Zm.5-2.4a.147.147,0,0,1,.147-.143.143.143,0,1,1,0,.286.147.147,0,0,1-.147-.143Z" transform="translate(-215.831 -116.235)" fill="#263238"/><path d="M241.938,164.259H240.7a.543.543,0,0,0,.579.512.587.587,0,0,0,.452-.19l.111.127a.718.718,0,0,1-.567.242.73.73,0,0,1-.773-.75.71.71,0,0,1,.718-.75.7.7,0,0,1,.714.75Zm-1.233-.147h1.043a.524.524,0,0,0-1.043,0Z" transform="translate(-217.567 -117.14)" fill="#263238"/><path d="M244.779,164.2a.726.726,0,0,1,.757-.75.654.654,0,0,1,.579.29l-.151.1a.488.488,0,0,0-.428-.218.575.575,0,0,0,0,1.146.484.484,0,0,0,.428-.214l.151.1a.654.654,0,0,1-.579.29.726.726,0,0,1-.758-.75Z" transform="translate(-220.151 -117.139)" fill="#263238"/><path d="M249.6,164.387a.472.472,0,0,1-.313.1.4.4,0,0,1-.428-.428v-.9h-.266v-.167h.266v-.321h.2v.321h.448v.167h-.448v.88a.234.234,0,0,0,.254.27.317.317,0,0,0,.218-.075Z" transform="translate(-222.451 -116.67)" fill="#263238"/><path d="M253.55,163.2a.984.984,0,0,1,1.031-1,.94.94,0,0,1,.714.286l-.131.131a.793.793,0,0,0-.579-.234.813.813,0,0,0,0,1.626.793.793,0,0,0,.579-.234l.131.131a.944.944,0,0,1-.718.29.987.987,0,0,1-1.027-1Z" transform="translate(-225.444 -116.39)" fill="#263238"/><path d="M259,162h.2v2.078H259Z" transform="translate(-228.732 -116.265)" fill="#263238"/><path d="M260.747,162.093a.145.145,0,0,1,.29,0,.147.147,0,1,1-.29,0Zm.044.464h.2v1.471h-.2Z" transform="translate(-229.785 -116.235)" fill="#263238"/><path d="M263.82,164.259h-1.229a.543.543,0,0,0,.579.512.6.6,0,0,0,.452-.19l.111.127a.722.722,0,0,1-.571.242.73.73,0,0,1-.773-.75.71.71,0,0,1,.722-.75.7.7,0,0,1,.714.75S263.82,164.239,263.82,164.259Zm-1.229-.147h1.043a.523.523,0,0,0-1.043,0Z" transform="translate(-230.776 -117.14)" fill="#263238"/><path d="M268.364,164.036v.853h-.2v-.833a.4.4,0,0,0-.444-.472.484.484,0,0,0-.516.531v.773H267v-1.471h.19v.27a.619.619,0,0,1,.559-.282.563.563,0,0,1,.615.631Z" transform="translate(-233.56 -117.112)" fill="#263238"/><path d="M272.227,164.387a.472.472,0,0,1-.313.1.4.4,0,0,1-.428-.428v-.9h-.266v-.167h.266v-.321h.2v.321h.448v.167h-.448v.88a.234.234,0,0,0,.254.27.325.325,0,0,0,.218-.075Z" transform="translate(-236.106 -116.67)" fill="#263238"/><path d="M212.847,162.473a1.693,1.693,0,1,1-1.693-1.693A1.693,1.693,0,0,1,212.847,162.473Z" transform="translate(-198.839 -115.529)" fill="#f8a1a1"/><path d="M212.408,164.744a.107.107,0,0,1-.067-.024l-.464-.424a.1.1,0,0,1,0-.143.1.1,0,0,1,.139,0l.4.357.742-.793a.1.1,0,1,1,.143.135l-.793.853a.1.1,0,0,1-.1.04Z" transform="translate(-200.28 -117.276)" fill="#fff"/><path d="M258.952,162.615a2.145,2.145,0,0,0,.369-.048,1.983,1.983,0,0,0,.964-.476,2.046,2.046,0,0,0,.694-1.559v-8.146a6.292,6.292,0,0,0-.036-.948,1.983,1.983,0,0,0-1.19-1.463,2.32,2.32,0,0,0-1.011-.159h-5.758l-51.16.032a1.959,1.959,0,0,0-1.539.75,1.983,1.983,0,0,0-.373.793,4.49,4.49,0,0,0-.044.9v8.2a2.027,2.027,0,0,0,.155.829,1.983,1.983,0,0,0,1.214,1.1,2.459,2.459,0,0,0,.841.087h12.691l23,.02,15.507.036h4.216l-4.216.02-15.507.032-23,.024H202.077a2.7,2.7,0,0,1-.9-.1,2.193,2.193,0,0,1-1.34-1.214,2.245,2.245,0,0,1-.175-.908V152.3a4.821,4.821,0,0,1,.048-.948,2.165,2.165,0,0,1,2.114-1.705l51.16.028h5.758a2.487,2.487,0,0,1,1.063.171,2.138,2.138,0,0,1,1.241,1.559,5.725,5.725,0,0,1,.036.968v8.146a2.074,2.074,0,0,1-.726,1.586,2.026,2.026,0,0,1-.988.468,1.717,1.717,0,0,1-.278.024Z" transform="translate(-192.923 -108.813)" fill="#f8a1a1"/><path d="M246.805,173.153c0,.059-4.39.1-9.8.1s-9.812-.044-9.812-.1,4.39-.1,9.812-.1S246.805,173.1,246.805,173.153Z" transform="translate(-209.538 -122.933)" fill="#e0e0e0"/><path d="M333.708,165.2a.084.084,0,0,1-.02.052l-.619.611a.075.075,0,0,1-.1,0l-.607-.627a.072.072,0,0,1,.1-.1l.555.575.571-.575a.071.071,0,0,1,.119.064Z" transform="translate(-272.986 -118.145)" fill="#f8a1a1"/><path d="M226.964,201.832V200.71h.206v1.114c0,.464.218.678.6.678s.6-.214.6-.678V200.71h.178v1.122a.805.805,0,0,1-1.61,0Z" transform="translate(-209.387 -139.623)" fill="#263238"/><path d="M233.983,202.641a.714.714,0,0,1-.734.75.643.643,0,0,1-.551-.274v.793h-.2v-2.019h.2v.29a.642.642,0,0,1,.567-.3.714.714,0,0,1,.718.761Zm-.2,0a.551.551,0,1,0-.547.571.539.539,0,0,0,.547-.571Z" transform="translate(-212.742 -140.329)" fill="#263238"/><path d="M238.357,200.41v2.078h-.19v-.29a.638.638,0,0,1-.567.305.75.75,0,0,1,0-1.5.642.642,0,0,1,.559.29v-.884Zm-.194,1.344a.547.547,0,1,0-.547.571.539.539,0,0,0,.547-.571Z" transform="translate(-215.367 -139.442)" fill="#263238"/><path d="M242.973,202.465v.912h-.19v-.226a.551.551,0,0,1-.508.242c-.333,0-.535-.175-.535-.428s.147-.416.567-.416h.468v-.091a.359.359,0,0,0-.4-.4.758.758,0,0,0-.492.174l-.087-.151a.924.924,0,0,1,.6-.2.523.523,0,0,1,.575.579Zm-.2.472v-.242h-.46c-.286,0-.4.111-.4.266s.139.274.373.274a.468.468,0,0,0,.484-.3Z" transform="translate(-218.317 -140.331)" fill="#263238"/><path d="M246.637,202.835a.464.464,0,0,1-.309.1.4.4,0,0,1-.432-.428v-.892h-.266v-.167h.266v-.321h.2v.321h.448v.167h-.448v.88a.238.238,0,0,0,.254.27.317.317,0,0,0,.218-.075Z" transform="translate(-220.665 -139.877)" fill="#263238"/><path d="M249.971,202.817h-1.233a.543.543,0,0,0,.579.512.583.583,0,0,0,.452-.19l.111.127a.714.714,0,0,1-.567.242.73.73,0,0,1-.793-.75.718.718,0,1,1,1.436,0A.1.1,0,0,1,249.971,202.817Zm-1.233-.147h1.047a.523.523,0,0,0-1.047,0Z" transform="translate(-222.408 -140.426)" fill="#263238"/><path d="M256.677,201.38c0,.42-.3.67-.793.67h-.523v.619h-.21V200.71h.734C256.387,200.71,256.677,200.964,256.677,201.38Zm-.206,0c0-.313-.206-.492-.6-.492h-.52v.98h.531c.4,0,.6-.178.6-.488Z" transform="translate(-226.409 -139.623)" fill="#263238"/><path d="M260.73,201.908v.194h-.048a.476.476,0,0,0-.5.543v.75H260v-1.471h.19v.29A.559.559,0,0,1,260.73,201.908Z" transform="translate(-229.336 -140.345)" fill="#263238"/><path d="M263.76,202.769h-1.233a.543.543,0,0,0,.579.512.587.587,0,0,0,.452-.19l.111.127a.718.718,0,0,1-.567.242.73.73,0,0,1-.773-.75.71.71,0,0,1,.718-.75.7.7,0,0,1,.714.75Zm-1.233-.147h1.043a.523.523,0,0,0-1.043,0Z" transform="translate(-230.74 -140.377)" fill="#263238"/><path d="M266.45,203.226l.091-.155a.884.884,0,0,0,.523.163c.278,0,.4-.1.4-.242,0-.4-.956-.079-.956-.662,0-.242.21-.42.583-.42a.98.98,0,0,1,.524.139l-.087.159a.749.749,0,0,0-.436-.127c-.266,0-.4.1-.4.246,0,.4.952.1.952.662,0,.254-.222.42-.607.42a.988.988,0,0,1-.587-.182Z" transform="translate(-233.228 -140.347)" fill="#263238"/><path d="M271.448,202.787h-1.233a.547.547,0,0,0,.583.512.579.579,0,0,0,.448-.19l.115.127a.793.793,0,0,1-1.36-.527.718.718,0,0,1,1.436,0A.316.316,0,0,1,271.448,202.787Zm-1.233-.147h1.047a.524.524,0,0,0-1.047,0Z" transform="translate(-235.37 -140.396)" fill="#263238"/><path d="M276.036,202.568v.853h-.2v-.833a.4.4,0,0,0-.444-.472.484.484,0,0,0-.516.531v.793h-.2v-1.471h.19v.27a.619.619,0,0,1,.559-.282.563.563,0,0,1,.607.611Z" transform="translate(-238.194 -140.375)" fill="#263238"/><path d="M279.887,202.835a.472.472,0,0,1-.313.1.4.4,0,0,1-.432-.428v-.892h-.262v-.167h.262v-.321h.2v.321h.448v.167h-.448v.88a.234.234,0,0,0,.254.27.325.325,0,0,0,.218-.075Z" transform="translate(-240.728 -139.877)" fill="#263238"/><path d="M283.247,202.46v.912h-.19v-.226a.559.559,0,0,1-.508.242c-.333,0-.539-.174-.539-.428s.147-.416.571-.416h.468v-.091a.366.366,0,0,0-.416-.4.749.749,0,0,0-.492.174l-.091-.151a.94.94,0,0,1,.6-.2.524.524,0,0,1,.6.579Zm-.2.472v-.242h-.464c-.286,0-.377.111-.377.266s.139.274.373.274A.472.472,0,0,0,283.049,202.932Z" transform="translate(-242.617 -140.326)" fill="#263238"/><path d="M286.917,202.835a.472.472,0,0,1-.313.1.4.4,0,0,1-.432-.428v-.892h-.262v-.167h.262v-.321h.2v.321h.448v.167h-.448v.88a.234.234,0,0,0,.254.27.325.325,0,0,0,.218-.075Z" transform="translate(-244.97 -139.877)" fill="#263238"/><path d="M289.24,200.541a.147.147,0,1,1,.147.143A.147.147,0,0,1,289.24,200.541Zm.048.464h.2v1.471h-.2Z" transform="translate(-246.979 -139.43)" fill="#263238"/><path d="M290.879,202.66a.75.75,0,1,1,.75.75.722.722,0,0,1-.75-.75Zm1.3,0a.547.547,0,1,0-.547.571.539.539,0,0,0,.547-.571Z" transform="translate(-247.968 -140.347)" fill="#263238"/><path d="M297.036,202.568v.853h-.2v-.833a.4.4,0,0,0-.444-.472.484.484,0,0,0-.516.531v.793h-.2v-1.471h.19v.27a.619.619,0,0,1,.559-.282.563.563,0,0,1,.607.611Z" transform="translate(-250.865 -140.375)" fill="#263238"/><path d="M212.847,200.933a1.693,1.693,0,1,1-1.693-1.693A1.693,1.693,0,0,1,212.847,200.933Z" transform="translate(-198.839 -138.736)" fill="#f8a1a1"/><path d="M212.408,203.2a.107.107,0,0,1-.067-.024l-.464-.424a.1.1,0,0,1,0-.143.1.1,0,0,1,.139,0l.4.357.742-.793a.1.1,0,1,1,.143.135l-.793.853A.1.1,0,0,1,212.408,203.2Z" transform="translate(-200.28 -140.483)" fill="#fff"/><path d="M258.952,201.075a2.143,2.143,0,0,0,.369-.048,1.983,1.983,0,0,0,.964-.476,2.046,2.046,0,0,0,.694-1.559v-8.146a6.291,6.291,0,0,0-.036-.948,1.983,1.983,0,0,0-1.19-1.463,2.32,2.32,0,0,0-1.011-.159h-5.758l-51.16.032a1.959,1.959,0,0,0-1.539.75,1.983,1.983,0,0,0-.373.793,4.488,4.488,0,0,0-.044.9v8.194a2.015,2.015,0,0,0,.155.829,1.983,1.983,0,0,0,1.214,1.1,2.458,2.458,0,0,0,.841.087h12.691l23,.02,15.507.036,4.216.02h0l-4.216.02-15.507.032-23,.024H202.077a2.7,2.7,0,0,1-.9-.1,2.193,2.193,0,0,1-1.34-1.214,2.233,2.233,0,0,1-.175-.908v-8.134a4.821,4.821,0,0,1,.048-.948,2.165,2.165,0,0,1,2.114-1.705l51.16.028h5.758a2.487,2.487,0,0,1,1.063.171,2.138,2.138,0,0,1,1.241,1.559,5.725,5.725,0,0,1,.036.968v8.146a2.074,2.074,0,0,1-.726,1.586,2.027,2.027,0,0,1-.988.468,1.715,1.715,0,0,1-.278.024Z" transform="translate(-192.923 -132.02)" fill="#f8a1a1"/><path d="M246.805,211.613c0,.06-4.39.1-9.8.1s-9.812-.044-9.812-.1,4.39-.1,9.812-.1S246.805,211.558,246.805,211.613Z" transform="translate(-209.538 -146.14)" fill="#e0e0e0"/><path d="M333.708,203.684a.084.084,0,0,1-.02.052l-.619.627a.075.075,0,0,1-.1,0l-.607-.627a.072.072,0,0,1,.1-.1l.555.575.571-.575a.069.069,0,0,1,.119.048Z" transform="translate(-272.986 -141.376)" fill="#f8a1a1"/><path d="M226.55,240.124a.984.984,0,0,1,1.031-1,.952.952,0,0,1,.718.286l-.135.131a.793.793,0,0,0-.579-.234.813.813,0,0,0,0,1.626.793.793,0,0,0,.579-.234l.135.131a.96.96,0,0,1-.722.29.988.988,0,0,1-1.027-1Z" transform="translate(-209.151 -162.804)" fill="#263238"/><path d="M232.726,240.368v.194h-.048a.48.48,0,0,0-.5.543v.75H232V240.38h.19v.29A.555.555,0,0,1,232.726,240.368Z" transform="translate(-212.44 -163.552)" fill="#263238"/><path d="M235.76,241.179h-1.233a.543.543,0,0,0,.579.512.587.587,0,0,0,.452-.19l.111.127a.718.718,0,0,1-.567.242.73.73,0,0,1-.773-.75.71.71,0,0,1,.718-.75.7.7,0,0,1,.714.75Zm-1.233-.147h1.043a.523.523,0,0,0-1.043,0Z" transform="translate(-213.844 -163.554)" fill="#263238"/><path d="M239.783,240.955v.912h-.19v-.226a.551.551,0,0,1-.508.242c-.333,0-.535-.174-.535-.428s.143-.4.567-.4h.468v-.091a.359.359,0,0,0-.4-.4.757.757,0,0,0-.492.174l-.087-.151a.924.924,0,0,1,.6-.2.524.524,0,0,1,.575.559Zm-.2.472v-.242h-.46c-.289,0-.4.111-.4.266s.139.274.373.274A.468.468,0,0,0,239.585,241.427Z" transform="translate(-216.393 -163.568)" fill="#263238"/><path d="M243.467,241.3a.472.472,0,0,1-.309.1.4.4,0,0,1-.432-.428v-.892h-.266v-.167h.266v-.321h.2v.321h.448v.167h-.448v.865a.238.238,0,0,0,.254.27.317.317,0,0,0,.218-.075Z" transform="translate(-218.752 -163.084)" fill="#263238"/><path d="M246.791,241.227h-1.233a.543.543,0,0,0,.579.512.583.583,0,0,0,.452-.19l.111.127a.714.714,0,0,1-.567.242.73.73,0,0,1-.793-.75.718.718,0,1,1,1.436,0A.236.236,0,0,1,246.791,241.227Zm-1.233-.147H246.6a.523.523,0,1,0-1.047,0Z" transform="translate(-220.489 -163.603)" fill="#263238"/><path d="M253.63,239.17v1.959h-.206v-.9H252.2v.9H252V239.17h.21v.872h1.225v-.872Z" transform="translate(-224.508 -162.83)" fill="#263238"/><path d="M257.229,241.12a.75.75,0,1,1,.75.75.726.726,0,0,1-.75-.75Zm1.3,0a.547.547,0,1,0-.547.571.535.535,0,0,0,.547-.571Z" transform="translate(-227.664 -163.554)" fill="#263238"/><path d="M264.443,241.012v.853h-.2v-.853c0-.313-.155-.472-.42-.472a.476.476,0,0,0-.5.531v.793h-.2v-.853c0-.313-.159-.472-.424-.472a.476.476,0,0,0-.5.531v.793H262v-1.487h.19v.27a.6.6,0,0,1,.543-.282.531.531,0,0,1,.523.309.639.639,0,0,1,.583-.309.555.555,0,0,1,.6.646Z" transform="translate(-230.542 -163.55)" fill="#263238"/><path d="M270.591,241.227h-1.233a.543.543,0,0,0,.579.512.583.583,0,0,0,.452-.19l.111.127a.714.714,0,0,1-.567.242.73.73,0,0,1-.773-.75.718.718,0,0,1,1.436,0S270.591,241.208,270.591,241.227Zm-1.233-.147H270.4a.523.523,0,1,0-1.047,0Z" transform="translate(-234.862 -163.603)" fill="#263238"/><path d="M275.291,241.119a.714.714,0,0,1-.734.75.642.642,0,0,1-.559-.289v.821h-.2v-2.019h.19v.29a.643.643,0,0,1,.567-.3.714.714,0,0,1,.734.75Zm-.2,0a.551.551,0,1,0-.547.571.539.539,0,0,0,.547-.571Z" transform="translate(-237.663 -163.554)" fill="#263238"/><path d="M279.487,240.951v.912h-.19v-.226a.559.559,0,0,1-.508.242c-.333,0-.539-.174-.539-.428s.147-.4.571-.4h.468v-.091a.367.367,0,0,0-.42-.4.738.738,0,0,0-.488.174l-.091-.151a.94.94,0,0,1,.6-.2.524.524,0,0,1,.6.559Zm-.2.472v-.242h-.464c-.285,0-.377.111-.377.266s.135.274.373.274A.472.472,0,0,0,279.289,241.422Z" transform="translate(-240.348 -163.564)" fill="#263238"/><path d="M283.917,240.381v1.293a.646.646,0,0,1-.738.738,1.027,1.027,0,0,1-.686-.226l.1-.151a.892.892,0,0,0,.579.2c.373,0,.543-.174.543-.535v-.19a.658.658,0,0,1-.575.286.714.714,0,1,1,0-1.428.662.662,0,0,1,.583.293v-.282Zm-.194.7a.559.559,0,1,0-.559.543.524.524,0,0,0,.559-.543Z" transform="translate(-242.87 -163.553)" fill="#263238"/><path d="M288.611,241.227h-1.233a.543.543,0,0,0,.579.512.583.583,0,0,0,.452-.19l.111.127a.714.714,0,0,1-.567.242.73.73,0,0,1-.793-.75.718.718,0,1,1,1.436,0A.236.236,0,0,1,288.611,241.227Zm-1.233-.147h1.047a.524.524,0,0,0-1.047,0Z" transform="translate(-245.724 -163.603)" fill="#263238"/><path d="M212.709,239.31a2.974,2.974,0,0,0-.091-.4,1.67,1.67,0,0,0-.623-.884,1.586,1.586,0,1,0,0,2.574,1.67,1.67,0,0,0,.623-.884c.075-.254.071-.4.091-.4a.909.909,0,0,1,0,.424,1.678,1.678,0,0,1-.611.98,1.757,1.757,0,0,1-1.678.278,1.781,1.781,0,0,1,0-3.359,1.757,1.757,0,0,1,1.678.274,1.7,1.7,0,0,1,.611.984A.881.881,0,0,1,212.709,239.31Z" transform="translate(-198.702 -161.848)" fill="#e0e0e0"/><path d="M258.952,239.535a2.145,2.145,0,0,0,.369-.048,1.983,1.983,0,0,0,.964-.476,2.046,2.046,0,0,0,.694-1.559v-8.146a6.292,6.292,0,0,0-.036-.948,1.983,1.983,0,0,0-1.19-1.463,2.32,2.32,0,0,0-1.011-.159h-5.758l-51.16.032a1.959,1.959,0,0,0-1.539.75,1.983,1.983,0,0,0-.373.793,4.49,4.49,0,0,0-.044.9v8.194a2.015,2.015,0,0,0,.155.829,1.983,1.983,0,0,0,1.214,1.1,2.459,2.459,0,0,0,.841.087h12.691l23,.02,15.507.036h4.216l-4.216.02-15.507.032-23,.024H202.077a2.7,2.7,0,0,1-.9-.1,2.193,2.193,0,0,1-1.34-1.214,2.233,2.233,0,0,1-.175-.908v-8.114a4.821,4.821,0,0,1,.048-.948,2.165,2.165,0,0,1,2.114-1.705l51.16.032h5.758a2.487,2.487,0,0,1,1.063.171,2.138,2.138,0,0,1,1.221,1.555,5.719,5.719,0,0,1,.036.968v8.146a2.074,2.074,0,0,1-.726,1.586,2.027,2.027,0,0,1-.988.468,1.717,1.717,0,0,1-.278.024Z" transform="translate(-192.923 -155.227)" fill="#e0e0e0"/><path d="M246.805,250.073c0,.06-4.39.1-9.8.1s-9.812-.044-9.812-.1,4.39-.1,9.812-.1S246.805,250.018,246.805,250.073Z" transform="translate(-209.538 -169.347)" fill="#e0e0e0"/><path d="M333.708,242.168a.075.075,0,0,1-.02.052l-.619.642a.075.075,0,0,1-.1,0l-.607-.627a.072.072,0,0,1,.1-.1l.555.575.571-.575a.073.073,0,0,1,.119.032Z" transform="translate(-272.986 -164.607)" fill="#e0e0e0"/><path d="M228.531,277.44c0,.416-.3.67-.793.67h-.523v.619H227V276.77h.734C228.229,276.77,228.531,277.02,228.531,277.44Zm-.206,0c0-.313-.206-.492-.6-.492h-.52v.98h.52C228.118,277.928,228.325,277.75,228.325,277.44Z" transform="translate(-209.423 -185.519)" fill="#263238"/><path d="M232.532,277.995v.19h-.048a.476.476,0,0,0-.5.543v.75h-.2v-1.483h.19v.286A.559.559,0,0,1,232.532,277.995Z" transform="translate(-212.313 -186.256)" fill="#263238"/><path d="M234.159,278.716a.75.75,0,1,1,.75.754.722.722,0,0,1-.75-.754Zm1.3,0a.547.547,0,1,0-.547.575.539.539,0,0,0,.547-.575Z" transform="translate(-213.742 -186.243)" fill="#263238"/><path d="M237.62,279.009l.071-.151a.357.357,0,0,0,.23.075c.155,0,.242-.1.242-.278V277.07h.2v1.586a.4.4,0,0,1-.428.448A.5.5,0,0,1,237.62,279.009Zm.5-2.4a.143.143,0,1,1,.043.1.143.143,0,0,1-.043-.1Z" transform="translate(-215.831 -185.335)" fill="#263238"/><path d="M241.938,278.769H240.7a.543.543,0,0,0,.579.512.579.579,0,0,0,.452-.194l.111.131a.793.793,0,0,1-1.34-.512.717.717,0,1,1,1.432,0Zm-1.233-.151h1.043a.523.523,0,0,0-1.043,0Z" transform="translate(-217.567 -186.236)" fill="#263238"/><path d="M244.779,278.714a.726.726,0,0,1,.757-.746.642.642,0,0,1,.579.29l-.151.1a.492.492,0,0,0-.428-.222.575.575,0,0,0,0,1.15.5.5,0,0,0,.428-.214l.151.1a.654.654,0,0,1-.579.293.73.73,0,0,1-.757-.754Z" transform="translate(-220.151 -186.241)" fill="#263238"/><path d="M249.6,278.885a.476.476,0,0,1-.313.107.4.4,0,0,1-.428-.428v-.892h-.266v-.167h.266v-.325h.2v.325h.448v.167h-.448v.88a.234.234,0,0,0,.254.27.337.337,0,0,0,.218-.075Z" transform="translate(-222.451 -185.766)" fill="#263238"/><path d="M253.55,277.718a.987.987,0,0,1,1.031-1,.94.94,0,0,1,.714.286l-.131.135a.793.793,0,0,0-.579-.234.813.813,0,0,0,0,1.626.761.761,0,0,0,.579-.238l.131.135a.94.94,0,0,1-.718.286.984.984,0,0,1-1.027-1Z" transform="translate(-225.444 -185.487)" fill="#263238"/><path d="M259,276.47h.2v2.078H259Z" transform="translate(-228.732 -185.338)" fill="#263238"/><path d="M260.75,276.606a.159.159,0,1,1,.143.143.143.143,0,0,1-.143-.143Zm.044.468h.2v1.471h-.2Z" transform="translate(-229.788 -185.335)" fill="#263238"/><path d="M263.821,278.793h-1.229a.543.543,0,0,0,.579.512.583.583,0,0,0,.452-.194l.111.131a.793.793,0,0,1-1.344-.512.71.71,0,0,1,.718-.73.7.7,0,0,1,.714.746Zm-1.229-.151h1.043a.523.523,0,0,0-1.043,0Z" transform="translate(-230.777 -186.261)" fill="#263238"/><path d="M268.364,278.6v.853h-.2v-.833a.4.4,0,0,0-.444-.472.48.48,0,0,0-.516.531v.773H267v-1.471h.19v.27a.619.619,0,0,1,.559-.282.563.563,0,0,1,.615.631Z" transform="translate(-233.56 -186.238)" fill="#263238"/><path d="M272.227,278.885a.476.476,0,0,1-.313.107.4.4,0,0,1-.428-.428v-.892h-.266v-.167h.266v-.325h.2v.325h.448v.167h-.448v.88a.234.234,0,0,0,.254.27.345.345,0,0,0,.218-.075Z" transform="translate(-236.106 -185.766)" fill="#263238"/><path d="M277.376,278.525v.179H276v-.143l.817-.793c.222-.218.262-.353.262-.484,0-.23-.159-.369-.46-.369a.674.674,0,0,0-.535.218l-.143-.123a.885.885,0,0,1,.694-.282c.4,0,.65.2.65.531a.793.793,0,0,1-.321.615l-.666.654Z" transform="translate(-238.954 -185.493)" fill="#263238"/><path d="M212.713,276.882a2.974,2.974,0,0,0-.091-.4A1.669,1.669,0,0,0,212,275.6a1.586,1.586,0,1,0,0,2.578,1.7,1.7,0,0,0,.623-.884c.075-.254.071-.4.091-.4a.9.9,0,0,1,0,.424,1.689,1.689,0,0,1-.611.98,1.757,1.757,0,0,1-1.678.278,1.785,1.785,0,0,1,0-3.363,1.757,1.757,0,0,1,1.678.278,1.678,1.678,0,0,1,.611.98A.9.9,0,0,1,212.713,276.882Z" transform="translate(-198.705 -184.52)" fill="#e0e0e0"/><path d="M258.952,277.125a3.18,3.18,0,0,0,.369-.044,2.054,2.054,0,0,0,1.658-2.035q0-1.059,0-2.435V266.9a6.235,6.235,0,0,0-.036-.944,2.011,2.011,0,0,0-1.19-1.467,2.319,2.319,0,0,0-1.011-.155h-5.758l-51.16.032a1.936,1.936,0,0,0-1.539.75,1.983,1.983,0,0,0-.373.793,4.465,4.465,0,0,0-.044.9V275a2.047,2.047,0,0,0,.155.833,1.983,1.983,0,0,0,1.214,1.1,2.563,2.563,0,0,0,.841.087h12.691l23,.024,15.507.032,4.216.02h-4.216l-15.507.032H202.077a2.709,2.709,0,0,1-.9-.1,2.177,2.177,0,0,1-1.34-1.21,2.253,2.253,0,0,1-.174-.912v-8.09a4.8,4.8,0,0,1,.048-.944,2.173,2.173,0,0,1,2.114-1.709l51.16.032h5.758a2.49,2.49,0,0,1,1.063.174,2.122,2.122,0,0,1,1.241,1.559,5.668,5.668,0,0,1,.036.964v8.15a2.09,2.09,0,0,1-.726,1.586,2.015,2.015,0,0,1-.988.464,1.829,1.829,0,0,1-.278.028Z" transform="translate(-192.923 -177.91)" fill="#e0e0e0"/><path d="M246.805,287.673c0,.056-4.39.1-9.8.1s-9.812-.048-9.812-.1,4.39-.1,9.812-.1S246.805,287.618,246.805,287.673Z" transform="translate(-209.538 -192.035)" fill="#e0e0e0"/><path d="M333.695,279.745a.084.084,0,0,1-.02.052l-.619.623a.067.067,0,0,1-.1,0l-.607-.615a.071.071,0,1,1,.1-.1l.555.575.571-.575a.071.071,0,0,1,.1,0,.084.084,0,0,1,.02.036Z" transform="translate(-272.973 -187.272)" fill="#e0e0e0"/><path d="M228.638,315.81c0,.333-.25.523-.738.523H227V314.37h.849c.436,0,.686.186.686.5a.46.46,0,0,1-.3.448.468.468,0,0,1,.4.488Zm-1.432-1.269v.714h.623c.313,0,.5-.123.5-.357s-.182-.357-.5-.357Zm1.221,1.249c0-.254-.186-.365-.531-.365h-.69v.738h.69c.345,0,.531-.119.531-.377Z" transform="translate(-209.423 -208.207)" fill="#263238"/><path d="M233.509,315.56v1.475h-.19v-.27a.587.587,0,0,1-.531.282.571.571,0,0,1-.623-.631v-.857h.2v.837a.4.4,0,0,0,.444.472.48.48,0,0,0,.5-.535v-.793Z" transform="translate(-212.538 -208.913)" fill="#263238"/><path d="M237.666,315.59l-.738,1.65c-.123.289-.278.4-.488.4a.5.5,0,0,1-.361-.135l.1-.147a.369.369,0,0,0,.266.111c.135,0,.222-.06.305-.246l.067-.143-.658-1.471h.206l.555,1.253.555-1.253Z" transform="translate(-214.902 -208.943)" fill="#263238"/><path d="M243.718,315.321h.2v.75a1.071,1.071,0,0,1-.718.25,1,1,0,1,1,0-1.983.964.964,0,0,1,.726.282l-.127.131a.82.82,0,1,0-.591,1.4.837.837,0,0,0,.512-.151Z" transform="translate(-218.518 -208.183)" fill="#263238"/><path d="M248,314.2a.143.143,0,1,1,.143.143A.143.143,0,0,1,248,314.2Zm.044.464h.2v1.475h-.2Z" transform="translate(-222.095 -208.02)" fill="#263238"/><path d="M249.866,314.463v.175h.456v.163h-.448v1.309h-.2V314.8h-.262v-.167h.262v-.182a.4.4,0,0,1,.448-.436.48.48,0,0,1,.293.091l-.067.151a.337.337,0,0,0-.218-.075A.246.246,0,0,0,249.866,314.463Z" transform="translate(-222.946 -207.99)" fill="#263238"/><path d="M252.807,316.479a.472.472,0,0,1-.309.1.4.4,0,0,1-.432-.428v-.9H251.8v-.167h.266v-.321h.2v.321h.448v.167h-.436v.88a.234.234,0,0,0,.254.27.317.317,0,0,0,.218-.075Z" transform="translate(-224.388 -208.448)" fill="#263238"/><path d="M212.709,314.472a2.974,2.974,0,0,0-.091-.4,1.67,1.67,0,0,0-.623-.884,1.586,1.586,0,1,0,0,2.574,1.669,1.669,0,0,0,.623-.884c.075-.254.071-.4.091-.4a.909.909,0,0,1,0,.424,1.7,1.7,0,0,1-.611.984,1.779,1.779,0,1,1,0-2.812,1.7,1.7,0,0,1,.611.984A.88.88,0,0,1,212.709,314.472Z" transform="translate(-198.702 -207.202)" fill="#e0e0e0"/><path d="M258.952,314.725a2.332,2.332,0,0,0,.369-.044,2.054,2.054,0,0,0,1.658-2.038c0-.706,0-1.519,0-2.431V304.5a6.292,6.292,0,0,0-.036-.948,1.983,1.983,0,0,0-1.19-1.463,2.319,2.319,0,0,0-1.011-.159h-5.758l-51.16.028a1.983,1.983,0,0,0-1.912,1.543,4.507,4.507,0,0,0-.044.9v8.194a2.015,2.015,0,0,0,.155.829,1.983,1.983,0,0,0,1.214,1.1,2.562,2.562,0,0,0,.841.091h12.691l23,.024,15.507.032h4.216l-4.216.02-15.507.032-23,.024H202.077a2.7,2.7,0,0,1-.9-.1,2.2,2.2,0,0,1-1.34-1.19,2.264,2.264,0,0,1-.175-.912v-8.134a4.821,4.821,0,0,1,.048-.948,2.149,2.149,0,0,1,.4-.876,2.181,2.181,0,0,1,1.7-.829l51.16.032h5.758a2.487,2.487,0,0,1,1.063.171,2.137,2.137,0,0,1,1.241,1.559,5.722,5.722,0,0,1,.036.968v8.158a2.09,2.09,0,0,1-.726,1.586,2.014,2.014,0,0,1-.987.464,1.358,1.358,0,0,1-.278.024Z" transform="translate(-192.923 -200.598)" fill="#e0e0e0"/><path d="M246.805,325.273c0,.056-4.39.1-9.8.1s-9.812-.048-9.812-.1,4.39-.1,9.812-.1S246.805,325.214,246.805,325.273Z" transform="translate(-209.538 -214.724)" fill="#e0e0e0"/><path d="M333.708,317.338a.071.071,0,0,1-.02.048l-.619.627a.075.075,0,0,1-.1,0l-.607-.627a.072.072,0,0,1,.1-.1l.555.575.571-.575a.071.071,0,0,1,.1,0A.075.075,0,0,1,333.708,317.338Z" transform="translate(-272.986 -209.953)" fill="#e0e0e0"/><circle cx="8.233" cy="8.233" r="8.233" transform="matrix(0.161, -0.987, 0.987, 0.161, 47.42, 136.996)" fill="#f8a1a1"/><path d="M325.778,373.736a.2.2,0,0,1-.2-.2v-4.3a.2.2,0,0,1,.4,0v4.3A.2.2,0,0,1,325.778,373.736Z" transform="translate(-268.907 -241.195)" fill="#fff"/><path d="M324.657,374.857h-4.3a.2.2,0,0,1,0-.4h4.3a.2.2,0,0,1,0,.4Z" transform="translate(-265.637 -244.466)" fill="#fff"/><path d="M333.28,132.667l-.04.956.948-.127,2.2-2.177-.888-.888Z" transform="translate(-273.529 -97.216)" fill="#f8a1a1"/><path d="M339.26,129.7l.861.865.131-.127a.551.551,0,0,0,0-.793l-.091-.087a.543.543,0,0,0-.793,0Z" transform="translate(-277.162 -96.586)" fill="#f8a1a1"/></g></g></svg>